JonovaCondensed-Regular.ufo
<glyph name="sign:exclam" format="2">
  <advance width="552"/>
  <unicode hex="0021"/>
  <outline>
    <contour>
      <point x="325" y="391" type="line" name="av01"/>
      <point x="272" y="1434" type="line" name="sh01"/>
      <point x="294" y="1464" type="line" name="at01"/>
      <point x="419" y="1464" type="line"/>
      <point x="441" y="1434" type="line" name="sh02"/>
      <point x="386" y="391" type="line"/>
    </contour>
    <contour>
      <point x="260" y="66" type="qcurve" name="dh01"/>
      <point x="260" y="106"/>
      <point x="316" y="162"/>
      <point x="356" y="162" type="qcurve" name="sv01"/>
      <point x="396" y="162"/>
      <point x="452" y="106"/>
      <point x="452" y="66" type="qcurve" name="dh02"/>
      <point x="452" y="26"/>
      <point x="396" y="-30"/>
      <point x="356" y="-30" type="qcurve" name="ab01"/>
      <point x="316" y="-30"/>
      <point x="260" y="26"/>
    </contour>
  </outline>
</glyph>
<glyph name="numbersign" format="2">
  <advance width="840"/>
  <unicode hex="0023"/>
  <outline>
    <contour>
      <point x="108" y="1004" type="line" name="at03"/>
      <point x="276" y="1004" type="line"/>
      <point x="337" y="1464" type="line" name="at01"/>
      <point x="411" y="1446" type="line"/>
      <point x="353" y="1004" type="line" name="sh01"/>
      <point x="557" y="1004" type="line" name="sh02"/>
      <point x="617" y="1464" type="line" name="at02"/>
      <point x="692" y="1446" type="line"/>
      <point x="633" y="1004" type="line" name="sh03"/>
      <point x="801" y="1004" type="line" name="ah03"/>
      <point x="788" y="902" type="line" name="sv01"/>
      <point x="620" y="902" type="line" name="sh04"/>
      <point x="571" y="533" type="line"/>
      <point x="739" y="533" type="line" name="ah04"/>
      <point x="725" y="431" type="line" name="dv01"/>
      <point x="557" y="431" type="line" name="sh07"/>
      <point x="497" y="-30" type="line" name="ab01"/>
      <point x="422" y="-13" type="line"/>
      <point x="481" y="431" type="line" name="sh06"/>
      <point x="277" y="431" type="line" name="sh09"/>
      <point x="216" y="-30" type="line" name="ab02"/>
      <point x="142" y="-13" type="line"/>
      <point x="200" y="431" type="line" name="sh10"/>
      <point x="33" y="431" type="line" name="ah02"/>
      <point x="47" y="533" type="line" name="sv02"/>
      <point x="214" y="533" type="line"/>
      <point x="263" y="902" type="line" name="sh11"/>
      <point x="95" y="902" type="line" name="ah01"/>
    </contour>
    <contour>
      <point x="290" y="533" type="line" name="sh08"/>
      <point x="494" y="533" type="line" name="sh05"/>
      <point x="543" y="902" type="line" name="dh02"/>
      <point x="339" y="902" type="line" name="dh01"/>
    </contour>
  </outline>
</glyph>
<glyph name="curr:dollar" format="2">
  <advance width="840"/>
  <unicode hex="0024"/>
  <outline>
    <contour>
      <point x="575" y="1207" type="line" name="ih01"/>
      <point x="542" y="1279"/>
      <point x="458" y="1352"/>
      <point x="409" y="1362" type="qcurve" name="sh01"/>
      <point x="409" y="839" type="line"/>
      <point x="468" y="803"/>
      <point x="573" y="720"/>
      <point x="652" y="610"/>
      <point x="698" y="465"/>
      <point x="698" y="368" type="qcurve" name="ih02"/>
      <point x="698" y="291"/>
      <point x="653" y="155"/>
      <point x="576" y="48"/>
      <point x="470" y="-21"/>
      <point x="409" y="-30" type="qcurve" name="ab02"/>
      <point x="409" y="-152" type="line" name="dh04"/>
      <point x="332" y="-170" type="line" name="dh03"/>
      <point x="332" y="-30" type="line" name="ab01"/>
      <point x="287" y="-29"/>
      <point x="209" y="-2"/>
      <point x="144" y="41"/>
      <point x="90" y="96"/>
      <point x="69" y="125" type="qcurve"/>
      <point x="146" y="227" type="line" name="ih03"/>
      <point x="158" y="202"/>
      <point x="193" y="149"/>
      <point x="239" y="104"/>
      <point x="298" y="74"/>
      <point x="332" y="72" type="qcurve" name="sh02"/>
      <point x="332" y="663" type="line"/>
      <point x="275" y="695"/>
      <point x="179" y="776"/>
      <point x="110" y="881"/>
      <point x="72" y="1014"/>
      <point x="72" y="1097" type="qcurve" name="dh01"/>
      <point x="72" y="1161"/>
      <point x="111" y="1286"/>
      <point x="180" y="1388"/>
      <point x="276" y="1456"/>
      <point x="332" y="1464" type="qcurve" name="sh03"/>
      <point x="332" y="1586" type="line"/>
      <point x="409" y="1604" type="line" name="sh04"/>
      <point x="409" y="1464" type="line" name="at01"/>
      <point x="447" y="1462"/>
      <point x="518" y="1433"/>
      <point x="581" y="1390"/>
      <point x="633" y="1336"/>
      <point x="652" y="1309" type="qcurve"/>
    </contour>
    <contour>
      <point x="576" y="321" type="qcurve" name="mh01"/>
      <point x="576" y="366"/>
      <point x="554" y="444"/>
      <point x="512" y="515"/>
      <point x="449" y="581"/>
      <point x="409" y="613" type="qcurve" name="sh05"/>
      <point x="409" y="72" type="line" name="sv02"/>
      <point x="446" y="79"/>
      <point x="508" y="117"/>
      <point x="552" y="179"/>
      <point x="576" y="265"/>
    </contour>
    <contour>
      <point x="194" y="1136" type="qcurve" name="dh02"/>
      <point x="194" y="1090"/>
      <point x="211" y="1025"/>
      <point x="245" y="972"/>
      <point x="297" y="923"/>
      <point x="332" y="893" type="qcurve" name="sh06"/>
      <point x="332" y="1362" type="line" name="sv01"/>
      <point x="310" y="1357"/>
      <point x="261" y="1325"/>
      <point x="220" y="1270"/>
      <point x="194" y="1190"/>
    </contour>
  </outline>
</glyph>
<glyph name="sign:ampersand" format="2">
  <advance width="936"/>
  <unicode hex="0026"/>
  <outline>
    <contour>
      <point x="445" y="968" type="qcurve" name="ih01"/>
      <point x="486" y="1003"/>
      <point x="540" y="1056"/>
      <point x="572" y="1106"/>
      <point x="584" y="1160"/>
      <point x="584" y="1196" type="qcurve" name="dh05"/>
      <point x="584" y="1221"/>
      <point x="572" y="1269"/>
      <point x="546" y="1308"/>
      <point x="507" y="1332"/>
      <point x="481" y="1332" type="qcurve" name="sv01"/>
      <point x="461" y="1332"/>
      <point x="425" y="1311"/>
      <point x="398" y="1270"/>
      <point x="383" y="1208"/>
      <point x="383" y="1168" type="qcurve" name="dh03"/>
      <point x="383" y="1148"/>
      <point x="395" y="1095"/>
      <point x="414" y="1039"/>
      <point x="436" y="987"/>
    </contour>
    <contour>
      <point x="395" y="749" type="line" name="ih02"/>
      <point x="310" y="669"/>
      <point x="221" y="501"/>
      <point x="221" y="391" type="qcurve" name="dh01"/>
      <point x="221" y="311"/>
      <point x="254" y="191"/>
      <point x="308" y="111"/>
      <point x="377" y="72"/>
      <point x="413" y="72" type="qcurve" name="sv02"/>
      <point x="444" y="72"/>
      <point x="503" y="83"/>
      <point x="557" y="111"/>
      <point x="610" y="160"/>
      <point x="635" y="198" type="qcurve"/>
    </contour>
    <contour>
      <point x="735" y="-30" type="line" name="ab01"/>
      <point x="665" y="125" type="line" name="ih03"/>
      <point x="640" y="92"/>
      <point x="583" y="36"/>
      <point x="516" y="-6"/>
      <point x="440" y="-30"/>
      <point x="395" y="-30" type="qcurve" name="ab02"/>
      <point x="332" y="-30"/>
      <point x="221" y="33"/>
      <point x="140" y="146"/>
      <point x="92" y="300"/>
      <point x="92" y="391" type="qcurve" name="dh02"/>
      <point x="92" y="466"/>
      <point x="127" y="606"/>
      <point x="191" y="729"/>
      <point x="283" y="834"/>
      <point x="338" y="875" type="qcurve"/>
      <point x="338" y="885" type="line"/>
      <point x="315" y="936"/>
      <point x="287" y="1010"/>
      <point x="273" y="1072"/>
      <point x="269" y="1131"/>
      <point x="269" y="1167" type="qcurve" name="dh04"/>
      <point x="269" y="1215"/>
      <point x="296" y="1310"/>
      <point x="350" y="1386"/>
      <point x="431" y="1434"/>
      <point x="482" y="1434" type="qcurve" name="at01"/>
      <point x="533" y="1434"/>
      <point x="612" y="1391"/>
      <point x="668" y="1322"/>
      <point x="698" y="1235"/>
      <point x="698" y="1191" type="qcurve" name="dh06"/>
      <point x="698" y="1131"/>
      <point x="674" y="1040"/>
      <point x="625" y="962"/>
      <point x="553" y="888"/>
      <point x="505" y="845" type="qcurve"/>
      <point x="505" y="835" type="line"/>
      <point x="719" y="343" type="line" name="iv01"/>
      <point x="736" y="388"/>
      <point x="749" y="503"/>
      <point x="749" y="584" type="qcurve"/>
      <point x="848" y="559" type="line"/>
      <point x="841" y="526"/>
      <point x="817" y="441"/>
      <point x="788" y="358"/>
      <point x="761" y="287"/>
      <point x="750" y="268" type="qcurve"/>
      <point x="866" y="0" type="line"/>
    </contour>
  </outline>
</glyph>
<glyph name="sign:quotesingle" format="2">
  <advance width="576"/>
  <unicode hex="0027"/>
  <guideline x="1823" y="0" angle="135"/>
  <outline>
    <contour>
      <point x="247" y="901" type="line" name="av01"/>
      <point x="187" y="1434" type="line" name="sh01"/>
      <point x="217" y="1464" type="line" name="at01"/>
      <point x="359" y="1464" type="line"/>
      <point x="389" y="1434" type="line" name="sh02"/>
      <point x="329" y="901" type="line"/>
    </contour>
  </outline>
</glyph>
<glyph name="plus" format="2">
  <advance width="1152"/>
  <unicode hex="002B"/>
  <outline>
    <contour>
      <point x="89" y="426" type="line" name="sh01"/>
      <point x="89" y="548" type="line"/>
      <point x="515" y="548" type="line" name="sh02"/>
      <point x="515" y="974" type="line" name="at01"/>
      <point x="637" y="974" type="line"/>
      <point x="637" y="548" type="line" name="sh03"/>
      <point x="1063" y="548" type="line"/>
      <point x="1063" y="426" type="line" name="sh04"/>
      <point x="637" y="426" type="line" name="sh05"/>
      <point x="637" y="0" type="line" name="ab01"/>
      <point x="515" y="0" type="line" name="sh06"/>
      <point x="515" y="426" type="line" name="iv01"/>
    </contour>
  </outline>
</glyph>
<glyph name="sign:comma" format="2">
  <advance width="576"/>
  <unicode hex="002C"/>
  <guideline x="-202" y="0" angle="135"/>
  <guideline x="106" y="0" angle="45"/>
  <outline>
    <contour>
      <point x="196" y="90" type="line" name="hr00"/>
      <point x="333" y="227" type="line" name="av01"/>
      <point x="354" y="227" type="line"/>
      <point x="365" y="212"/>
      <point x="391" y="167"/>
      <point x="413" y="106"/>
      <point x="428" y="29"/>
      <point x="428" y="-19" type="qcurve" name="dh02"/>
      <point x="428" y="-79"/>
      <point x="386" y="-187"/>
      <point x="320" y="-281"/>
      <point x="238" y="-359"/>
      <point x="197" y="-389" type="qcurve" name="av02"/>
      <point x="124" y="-316" type="line" name="sh01"/>
      <point x="148" y="-294"/>
      <point x="196" y="-245"/>
      <point x="233" y="-188"/>
      <point x="256" y="-121"/>
      <point x="256" y="-82" type="qcurve" name="dh01"/>
      <point x="256" y="-55"/>
      <point x="247" y="-15"/>
      <point x="231" y="20"/>
      <point x="209" y="52"/>
      <point x="196" y="70" type="qcurve"/>
    </contour>
  </outline>
</glyph>
<glyph name="sign:slash" format="2">
  <advance width="576"/>
  <unicode hex="002F"/>
  <guideline x="0" y="-13" angle="350"/>
  <guideline x="3" y="0" angle="72"/>
  <guideline x="107" y="0" angle="72"/>
  <outline>
    <contour>
      <point x="626" y="1569" type="line" name="dh03"/>
      <point x="68" y="-152" type="line" name="dh01"/>
      <point x="-50" y="-134" type="line" name="dh02"/>
      <point x="508" y="1586" type="line" name="dh04"/>
    </contour>
  </outline>
</glyph>
<glyph name="digit:zero" format="2">
  <advance width="840"/>
  <unicode hex="0030"/>
  <outline>
    <contour>
      <point x="420" y="1464" type="qcurve" name="at01"/>
      <point x="500" y="1464"/>
      <point x="634" y="1371"/>
      <point x="731" y="1185"/>
      <point x="785" y="904"/>
      <point x="785" y="717" type="qcurve" name="sh01"/>
      <point x="785" y="529"/>
      <point x="731" y="249"/>
      <point x="634" y="63"/>
      <point x="500" y="-30"/>
      <point x="420" y="-30" type="qcurve" name="ab01"/>
      <point x="340" y="-30"/>
      <point x="206" y="63"/>
      <point x="110" y="249"/>
      <point x="56" y="529"/>
      <point x="56" y="717" type="qcurve" name="sh02"/>
      <point x="56" y="904"/>
      <point x="110" y="1185"/>
      <point x="206" y="1371"/>
      <point x="340" y="1464"/>
    </contour>
    <contour>
      <point x="420" y="1362" type="qcurve" name="sv01"/>
      <point x="367" y="1362"/>
      <point x="280" y="1281"/>
      <point x="218" y="1120"/>
      <point x="185" y="878"/>
      <point x="185" y="717" type="qcurve" name="sh03"/>
      <point x="185" y="556"/>
      <point x="218" y="314"/>
      <point x="280" y="153"/>
      <point x="367" y="72"/>
      <point x="420" y="72" type="qcurve" name="sv02"/>
      <point x="473" y="72"/>
      <point x="560" y="153"/>
      <point x="622" y="314"/>
      <point x="656" y="556"/>
      <point x="656" y="717" type="qcurve" name="ah01"/>
      <point x="656" y="878"/>
      <point x="622" y="1120"/>
      <point x="560" y="1281"/>
      <point x="473" y="1362"/>
    </contour>
  </outline>
</glyph>
<glyph name="digit:one" format="2">
  <advance width="840"/>
  <unicode hex="0031"/>
  <outline>
    <contour>
      <point x="516" y="1464" type="line" name="at01"/>
      <point x="516" y="0" type="line" name="dh02"/>
      <point x="395" y="0" type="line" name="dh01"/>
      <point x="395" y="1266" type="line"/>
      <point x="387" y="1266" type="line"/>
      <point x="182" y="1207" type="line"/>
      <point x="168" y="1309" type="line"/>
      <point x="494" y="1464" type="line"/>
    </contour>
  </outline>
</glyph>
<glyph name="digit:two" format="2">
  <advance width="840"/>
  <unicode hex="0032"/>
  <outline>
    <contour>
      <point x="165" y="1309" type="line" name="hr00"/>
      <point x="185" y="1337"/>
      <point x="243" y="1393"/>
      <point x="314" y="1437"/>
      <point x="395" y="1464"/>
      <point x="439" y="1464" type="qcurve" name="at01"/>
      <point x="498" y="1464"/>
      <point x="604" y="1418"/>
      <point x="683" y="1324"/>
      <point x="729" y="1182"/>
      <point x="729" y="1086" type="qcurve" name="dh02"/>
      <point x="729" y="998"/>
      <point x="666" y="809"/>
      <point x="550" y="583"/>
      <point x="385" y="307"/>
      <point x="282" y="132" type="qcurve"/>
      <point x="282" y="122" type="line" name="sv01"/>
      <point x="747" y="142" type="line" name="sv02"/>
      <point x="728" y="0" type="line" name="sh01"/>
      <point x="115" y="0" type="line" name="sh02"/>
      <point x="115" y="20" type="line"/>
      <point x="207" y="178"/>
      <point x="352" y="430"/>
      <point x="462" y="634"/>
      <point x="538" y="795"/>
      <point x="586" y="929"/>
      <point x="608" y="1042"/>
      <point x="608" y="1095" type="qcurve" name="dh01"/>
      <point x="608" y="1153"/>
      <point x="584" y="1252"/>
      <point x="539" y="1322"/>
      <point x="477" y="1362"/>
      <point x="439" y="1362" type="qcurve" name="sv03"/>
      <point x="379" y="1362"/>
      <point x="284" y="1279"/>
      <point x="242" y="1207" type="qcurve" name="iv01"/>
    </contour>
  </outline>
</glyph>
<glyph name="digit:three" format="2">
  <advance width="840"/>
  <unicode hex="0033"/>
  <outline>
    <contour>
      <point x="174" y="227" type="line" name="iv01"/>
      <point x="191" y="195"/>
      <point x="234" y="139"/>
      <point x="287" y="97"/>
      <point x="350" y="72"/>
      <point x="385" y="72" type="qcurve" name="sv01"/>
      <point x="431" y="72"/>
      <point x="514" y="124"/>
      <point x="575" y="215"/>
      <point x="612" y="339"/>
      <point x="612" y="411" type="qcurve" name="sh01"/>
      <point x="612" y="488"/>
      <point x="578" y="621"/>
      <point x="511" y="720"/>
      <point x="413" y="777"/>
      <point x="349" y="777" type="qcurve" name="dv01"/>
      <point x="280" y="777" type="line"/>
      <point x="294" y="879" type="line"/>
      <point x="357" y="879" type="line" name="dv02"/>
      <point x="391" y="879"/>
      <point x="458" y="917"/>
      <point x="512" y="987"/>
      <point x="546" y="1085"/>
      <point x="546" y="1146" type="qcurve" name="dh01"/>
      <point x="546" y="1191"/>
      <point x="527" y="1269"/>
      <point x="490" y="1328"/>
      <point x="437" y="1362"/>
      <point x="404" y="1362" type="qcurve" name="sv02"/>
      <point x="373" y="1362"/>
      <point x="322" y="1334"/>
      <point x="281" y="1290"/>
      <point x="247" y="1235"/>
      <point x="233" y="1207" type="qcurve" name="iv02"/>
      <point x="157" y="1309" type="line" name="ah02"/>
      <point x="171" y="1330"/>
      <point x="216" y="1384"/>
      <point x="278" y="1431"/>
      <point x="356" y="1464"/>
      <point x="405" y="1464" type="qcurve" name="at01"/>
      <point x="463" y="1464"/>
      <point x="559" y="1414"/>
      <point x="629" y="1328"/>
      <point x="668" y="1213"/>
      <point x="668" y="1147" type="qcurve" name="dh02"/>
      <point x="668" y="1079"/>
      <point x="632" y="976"/>
      <point x="579" y="901"/>
      <point x="518" y="855"/>
      <point x="494" y="845" type="qcurve" name="mh01"/>
      <point x="494" y="835" type="line"/>
      <point x="512" y="830"/>
      <point x="563" y="804"/>
      <point x="617" y="759"/>
      <point x="671" y="693"/>
      <point x="715" y="603"/>
      <point x="741" y="486"/>
      <point x="741" y="413" type="qcurve" name="sh02"/>
      <point x="741" y="323"/>
      <point x="690" y="162"/>
      <point x="597" y="41"/>
      <point x="466" y="-30"/>
      <point x="385" y="-30" type="qcurve" name="ab01"/>
      <point x="333" y="-30"/>
      <point x="247" y="-5"/>
      <point x="176" y="38"/>
      <point x="120" y="94"/>
      <point x="98" y="125" type="qcurve" name="ah01"/>
    </contour>
  </outline>
</glyph>
<glyph name="six" format="2">
  <advance width="840"/>
  <unicode hex="0036"/>
  <outline>
    <contour>
      <point x="644" y="1464" type="qcurve" name="sh01"/>
      <point x="630" y="1362" type="line" name="sv01"/>
      <point x="538" y="1362"/>
      <point x="382" y="1256"/>
      <point x="267" y="1068"/>
      <point x="203" y="811"/>
      <point x="203" y="661" type="qcurve" name="sh03"/>
      <point x="210" y="661" type="line"/>
      <point x="230" y="709"/>
      <point x="283" y="780"/>
      <point x="343" y="827"/>
      <point x="407" y="849"/>
      <point x="439" y="849" type="qcurve" name="sv02"/>
      <point x="511" y="849"/>
      <point x="629" y="785"/>
      <point x="713" y="669"/>
      <point x="759" y="508"/>
      <point x="759" y="412" type="qcurve" name="sh04"/>
      <point x="759" y="308"/>
      <point x="707" y="144"/>
      <point x="618" y="30"/>
      <point x="502" y="-30"/>
      <point x="439" y="-30" type="qcurve" name="ab01"/>
      <point x="373" y="-30"/>
      <point x="245" y="49"/>
      <point x="143" y="209"/>
      <point x="81" y="451"/>
      <point x="81" y="613" type="qcurve" name="sh02"/>
      <point x="81" y="710"/>
      <point x="107" y="912"/>
      <point x="164" y="1101"/>
      <point x="253" y="1268"/>
      <point x="377" y="1392"/>
      <point x="541" y="1464"/>
    </contour>
    <contour>
      <point x="439" y="747" type="qcurve" name="av01"/>
      <point x="386" y="747"/>
      <point x="305" y="691"/>
      <point x="252" y="601"/>
      <point x="225" y="488"/>
      <point x="225" y="432" type="qcurve" name="sh05"/>
      <point x="225" y="353"/>
      <point x="254" y="221"/>
      <point x="309" y="125"/>
      <point x="388" y="72"/>
      <point x="439" y="72" type="qcurve" name="sv03"/>
      <point x="487" y="72"/>
      <point x="558" y="122"/>
      <point x="606" y="212"/>
      <point x="630" y="337"/>
      <point x="630" y="412" type="qcurve" name="ah01"/>
      <point x="630" y="483"/>
      <point x="606" y="606"/>
      <point x="558" y="696"/>
      <point x="487" y="747"/>
    </contour>
  </outline>
</glyph>
<glyph name="digit:eight" format="2">
  <advance width="840"/>
  <unicode hex="0038"/>
  <outline>
    <contour>
      <point x="419" y="1464" type="qcurve" name="at01"/>
      <point x="478" y="1464"/>
      <point x="575" y="1406"/>
      <point x="644" y="1312"/>
      <point x="683" y="1192"/>
      <point x="683" y="1131" type="qcurve" name="ih01"/>
      <point x="683" y="1037" name="hr00"/>
      <point x="627" y="885"/>
      <point x="566" y="834" type="qcurve" name="ih02"/>
      <point x="566" y="824" type="line"/>
      <point x="620" y="789"/>
      <point x="694" y="700"/>
      <point x="739" y="595"/>
      <point x="758" y="475"/>
      <point x="758" y="409" type="qcurve" name="sh01"/>
      <point x="758" y="328"/>
      <point x="713" y="170"/>
      <point x="627" y="46"/>
      <point x="501" y="-30"/>
      <point x="419" y="-30" type="qcurve" name="ab01"/>
      <point x="338" y="-30"/>
      <point x="213" y="46"/>
      <point x="128" y="170"/>
      <point x="83" y="327"/>
      <point x="83" y="408" type="qcurve" name="sh04"/>
      <point x="83" y="472"/>
      <point x="102" y="592"/>
      <point x="146" y="698"/>
      <point x="218" y="789"/>
      <point x="272" y="824" type="qcurve"/>
      <point x="272" y="834" type="line" name="ih04"/>
      <point x="211" y="885"/>
      <point x="156" y="1037"/>
      <point x="156" y="1131" type="qcurve" name="ih03"/>
      <point x="156" y="1192"/>
      <point x="194" y="1312"/>
      <point x="264" y="1406"/>
      <point x="361" y="1464"/>
    </contour>
    <contour>
      <point x="419" y="1362" type="qcurve" name="sv01"/>
      <point x="386" y="1362"/>
      <point x="335" y="1321"/>
      <point x="297" y="1253"/>
      <point x="278" y="1162"/>
      <point x="278" y="1113" type="qcurve" name="sh06"/>
      <point x="278" y="1063"/>
      <point x="297" y="975"/>
      <point x="335" y="908"/>
      <point x="386" y="869"/>
      <point x="419" y="869" type="qcurve" name="dv02"/>
      <point x="452" y="869"/>
      <point x="504" y="908"/>
      <point x="542" y="975"/>
      <point x="561" y="1063"/>
      <point x="561" y="1113" type="qcurve" name="sh03"/>
      <point x="561" y="1162"/>
      <point x="542" y="1253"/>
      <point x="504" y="1321"/>
      <point x="452" y="1362"/>
    </contour>
    <contour>
      <point x="419" y="767" type="qcurve" name="dv01"/>
      <point x="373" y="767"/>
      <point x="297" y="712"/>
      <point x="242" y="617"/>
      <point x="212" y="492"/>
      <point x="212" y="422" type="qcurve" name="sh05"/>
      <point x="212" y="352"/>
      <point x="242" y="225"/>
      <point x="297" y="129"/>
      <point x="373" y="72"/>
      <point x="419" y="72" type="qcurve" name="sv02"/>
      <point x="465" y="72"/>
      <point x="542" y="129"/>
      <point x="598" y="225"/>
      <point x="629" y="352"/>
      <point x="629" y="422" type="qcurve" name="sh02"/>
      <point x="629" y="492"/>
      <point x="598" y="617"/>
      <point x="543" y="712"/>
      <point x="466" y="767"/>
    </contour>
  </outline>
</glyph>
<glyph name="digit:nine" format="2">
  <advance width="840"/>
  <unicode hex="0039"/>
  <outline>
    <contour>
      <point x="176" y="72" type="line" name="sv01"/>
      <point x="272" y="72"/>
      <point x="441" y="174"/>
      <point x="567" y="359"/>
      <point x="641" y="617"/>
      <point x="641" y="773" type="qcurve" name="sh01"/>
      <point x="633" y="773" type="line"/>
      <point x="614" y="722"/>
      <point x="557" y="650"/>
      <point x="493" y="605"/>
      <point x="426" y="585"/>
      <point x="397" y="585" type="qcurve" name="dv01"/>
      <point x="325" y="585"/>
      <point x="207" y="649"/>
      <point x="123" y="765"/>
      <point x="77" y="926"/>
      <point x="77" y="1022" type="qcurve" name="sh02"/>
      <point x="77" y="1126"/>
      <point x="131" y="1290"/>
      <point x="223" y="1404"/>
      <point x="341" y="1464"/>
      <point x="404" y="1464" type="qcurve" name="at01"/>
      <point x="470" y="1464"/>
      <point x="599" y="1388"/>
      <point x="700" y="1230"/>
      <point x="762" y="987"/>
      <point x="762" y="821" type="qcurve" name="sh03"/>
      <point x="762" y="714"/>
      <point x="732" y="505"/>
      <point x="669" y="316"/>
      <point x="573" y="155"/>
      <point x="440" y="37"/>
      <point x="269" y="-30"/>
      <point x="163" y="-30" type="qcurve" name="ah02"/>
    </contour>
    <contour>
      <point x="397" y="687" type="qcurve" name="dv02"/>
      <point x="450" y="687"/>
      <point x="533" y="743"/>
      <point x="589" y="833"/>
      <point x="618" y="946"/>
      <point x="618" y="1002" type="qcurve" name="ah01"/>
      <point x="618" y="1085"/>
      <point x="590" y="1218"/>
      <point x="534" y="1312"/>
      <point x="455" y="1362"/>
      <point x="404" y="1362" type="qcurve" name="sv02"/>
      <point x="356" y="1362"/>
      <point x="282" y="1312"/>
      <point x="232" y="1222"/>
      <point x="206" y="1097"/>
      <point x="206" y="1022" type="qcurve" name="sh04"/>
      <point x="206" y="951"/>
      <point x="230" y="828"/>
      <point x="278" y="738"/>
      <point x="349" y="687"/>
    </contour>
  </outline>
</glyph>
<glyph name="math:equal" format="2">
  <advance width="1152"/>
  <unicode hex="003D"/>
  <guideline x="602" y="0" angle="90"/>
  <outline>
    <contour>
      <point x="1026" y="748" type="line" name="sv02"/>
      <point x="1026" y="626" type="line" name="sv01"/>
      <point x="126" y="626" type="line"/>
      <point x="126" y="748" type="line"/>
    </contour>
    <contour>
      <point x="1026" y="350" type="line" name="dv02"/>
      <point x="1026" y="228" type="line" name="dv01"/>
      <point x="126" y="228" type="line"/>
      <point x="126" y="350" type="line"/>
    </contour>
  </outline>
</glyph>
<glyph name="latn:A" format="2">
  <advance width="1008"/>
  <unicode hex="0041"/>
  <anchor x="500" y="1600" name="AccentAbove"/>
  <anchor x="750" y="1600" name="AccentAboveRight"/>
  <anchor x="888" y="0" name="AccentAttachedBelow"/>
  <anchor x="500" y="0" name="AccentBelow"/>
  <anchor x="400" y="712" name="AccentOverlay"/>
  <outline>
    <contour>
      <point x="814" y="-30" type="line" name="sh02"/>
      <point x="694" y="365" type="line" name="sv01"/>
      <point x="254" y="365" type="line"/>
      <point x="134" y="-30" type="line" name="sh04"/>
      <point x="44" y="0" type="line" name="sh03"/>
      <point x="488" y="1464" type="line" name="ih01"/>
      <point x="521" y="1464" type="line"/>
      <point x="964" y="0" type="line" name="sh01"/>
    </contour>
    <contour>
      <point x="470" y="1102" type="line" name="sh05"/>
      <point x="291" y="487" type="line" name="sh06"/>
      <point x="656" y="487" type="line" name="sh07"/>
      <point x="478" y="1102" type="line" name="av01"/>
    </contour>
  </outline>
</glyph>
<glyph name="latn:C" format="2">
  <advance width="1008"/>
  <unicode hex="0043"/>
  <anchor x="550" y="1600" name="AccentAbove"/>
  <anchor x="800" y="1600" name="AccentAboveRight"/>
  <anchor x="600" y="0" name="AccentBelow"/>
  <anchor x="450" y="0" name="AccentCedilla"/>
  <anchor x="400" y="712" name="AccentOverlay"/>
  <outline>
    <contour>
      <point x="868" y="1112" type="line" name="sv01"/>
      <point x="852" y="1149"/>
      <point x="800" y="1230"/>
      <point x="728" y="1298"/>
      <point x="636" y="1342"/>
      <point x="579" y="1342" type="qcurve" name="sv02"/>
      <point x="512" y="1342"/>
      <point x="380" y="1266"/>
      <point x="272" y="1111"/>
      <point x="206" y="876"/>
      <point x="206" y="717" type="qcurve" name="sh02"/>
      <point x="206" y="558"/>
      <point x="272" y="323"/>
      <point x="380" y="168"/>
      <point x="512" y="92"/>
      <point x="579" y="92" type="qcurve" name="sv03"/>
      <point x="636" y="92"/>
      <point x="728" y="137"/>
      <point x="800" y="205"/>
      <point x="852" y="286"/>
      <point x="868" y="322" type="qcurve" name="sv04"/>
      <point x="956" y="204" type="line" name="sh03"/>
      <point x="923" y="153"/>
      <point x="841" y="68"/>
      <point x="745" y="5"/>
      <point x="638" y="-30"/>
      <point x="579" y="-30" type="qcurve" name="ab01"/>
      <point x="514" y="-30"/>
      <point x="386" y="17"/>
      <point x="271" y="106"/>
      <point x="173" y="236"/>
      <point x="102" y="402"/>
      <point x="62" y="602"/>
      <point x="62" y="717" type="qcurve" name="sh01"/>
      <point x="62" y="832"/>
      <point x="102" y="1032"/>
      <point x="173" y="1198"/>
      <point x="271" y="1328"/>
      <point x="386" y="1417"/>
      <point x="513" y="1464"/>
      <point x="579" y="1464" type="qcurve" name="at01"/>
      <point x="638" y="1464"/>
      <point x="745" y="1429"/>
      <point x="841" y="1366"/>
      <point x="923" y="1281"/>
      <point x="956" y="1230" type="qcurve" name="sh04"/>
    </contour>
  </outline>
</glyph>
<glyph name="latn:D" format="2">
  <advance width="1128"/>
  <unicode hex="0044"/>
  <anchor x="500" y="1600" name="AccentAbove"/>
  <anchor x="750" y="1600" name="AccentAboveRight"/>
  <anchor x="500" y="0" name="AccentBelow"/>
  <anchor x="250" y="0" name="AccentCedilla"/>
  <anchor x="400" y="712" name="AccentOverlay"/>
  <outline>
    <contour>
      <point x="281" y="122" type="line" name="sh02"/>
      <point x="450" y="122" type="line"/>
      <point x="559" y="122"/>
      <point x="728" y="210"/>
      <point x="843" y="368"/>
      <point x="903" y="586"/>
      <point x="903" y="717" type="qcurve" name="sh04"/>
      <point x="903" y="873"/>
      <point x="839" y="1097"/>
      <point x="720" y="1243"/>
      <point x="551" y="1312"/>
      <point x="445" y="1312" type="qcurve" name="sv01"/>
      <point x="281" y="1312" type="line"/>
    </contour>
    <contour>
      <point x="144" y="1434" type="line" name="at01"/>
      <point x="464" y="1434" type="line"/>
      <point x="601" y="1434"/>
      <point x="818" y="1336"/>
      <point x="968" y="1151"/>
      <point x="1047" y="885"/>
      <point x="1047" y="717" type="qcurve" name="sh03"/>
      <point x="1047" y="619"/>
      <point x="1010" y="436"/>
      <point x="938" y="277"/>
      <point x="836" y="145"/>
      <point x="709" y="52"/>
      <point x="557" y="0"/>
      <point x="472" y="0" type="qcurve" name="ab01"/>
      <point x="144" y="0" type="line" name="sh01"/>
    </contour>
  </outline>
</glyph>
<glyph name="E" format="2">
  <advance width="816"/>
  <unicode hex="0045"/>
  <anchor x="350" y="0" name="AccentBelow"/>
  <anchor x="400" y="1600" name="AccentDefault"/>
  <anchor x="350" y="712" name="AccentMiddle"/>
  <anchor x="250" y="0" name="AccentOgonek"/>
  <outline>
    <contour>
      <point x="137" y="1434" type="line" name="hr00"/>
      <point x="740" y="1434" type="line" name="at01"/>
      <point x="721" y="1292" type="line" name="sv01"/>
      <point x="273" y="1312" type="line"/>
      <point x="273" y="839" type="line" name="sh03"/>
      <point x="659" y="839" type="line" name="dv02"/>
      <point x="643" y="717" type="line" name="dv01"/>
      <point x="273" y="717" type="line"/>
      <point x="273" y="122" type="line" name="sh02"/>
      <point x="740" y="142" type="line" name="sv02"/>
      <point x="721" y="0" type="line" name="ab01"/>
      <point x="137" y="0" type="line" name="sh01"/>
    </contour>
  </outline>
</glyph>
<glyph name="latn:G" format="2">
  <advance width="1200"/>
  <unicode hex="0047"/>
  <anchor x="600" y="1600" name="AccentAbove"/>
  <anchor x="850" y="1600" name="AccentAboveRight"/>
  <anchor x="700" y="0" name="AccentBelow"/>
  <anchor x="500" y="712" name="AccentOverlay"/>
  <outline>
    <contour>
      <point x="665" y="717" type="line" name="hr00"/>
      <point x="1065" y="717" type="line" name="dv02"/>
      <point x="1065" y="206" type="line" name="sh01"/>
      <point x="1025" y="146"/>
      <point x="927" y="58"/>
      <point x="819" y="-1"/>
      <point x="704" y="-30"/>
      <point x="647" y="-30" type="qcurve" name="ab01"/>
      <point x="574" y="-30"/>
      <point x="431" y="19"/>
      <point x="305" y="110"/>
      <point x="197" y="242"/>
      <point x="119" y="408"/>
      <point x="75" y="605"/>
      <point x="75" y="717" type="qcurve" name="sh02"/>
      <point x="75" y="826"/>
      <point x="118" y="1021"/>
      <point x="194" y="1187"/>
      <point x="301" y="1321"/>
      <point x="428" y="1414"/>
      <point x="572" y="1464"/>
      <point x="648" y="1464" type="qcurve" name="at01"/>
      <point x="714" y="1464"/>
      <point x="839" y="1427"/>
      <point x="947" y="1364"/>
      <point x="1034" y="1279"/>
      <point x="1065" y="1230" type="qcurve" name="sh03"/>
      <point x="978" y="1112" type="line" name="mh01"/>
      <point x="953" y="1159"/>
      <point x="887" y="1243"/>
      <point x="805" y="1306"/>
      <point x="706" y="1342"/>
      <point x="649" y="1342" type="qcurve" name="sv01"/>
      <point x="568" y="1342"/>
      <point x="413" y="1251"/>
      <point x="293" y="1086"/>
      <point x="219" y="856"/>
      <point x="219" y="717" type="qcurve" name="sh04"/>
      <point x="219" y="586"/>
      <point x="286" y="359"/>
      <point x="402" y="189"/>
      <point x="558" y="92"/>
      <point x="647" y="92" type="qcurve" name="sv02"/>
      <point x="690" y="92"/>
      <point x="773" y="113"/>
      <point x="848" y="149"/>
      <point x="908" y="198"/>
      <point x="929" y="227" type="qcurve" name="sh05"/>
      <point x="929" y="595" type="line" name="dv01"/>
      <point x="649" y="595" type="line" name="ah01"/>
    </contour>
  </outline>
</glyph>
<glyph name="latn:H" format="2">
  <advance width="1128"/>
  <unicode hex="0048"/>
  <anchor x="550" y="1600" name="AccentAbove"/>
  <anchor x="800" y="1600" name="AccentAboveRight"/>
  <anchor x="550" y="0" name="AccentBelow"/>
  <anchor x="50" y="0" name="AccentCedilla"/>
  <anchor x="450" y="712" name="AccentOverlay"/>
  <outline>
    <contour>
      <point x="273" y="1464" type="line" name="sh03"/>
      <point x="273" y="839" type="line"/>
      <point x="855" y="839" type="line" name="sh06"/>
      <point x="855" y="1434" type="line"/>
      <point x="992" y="1464" type="line" name="at01"/>
      <point x="992" y="0" type="line" name="sh04"/>
      <point x="855" y="0" type="line" name="sh05"/>
      <point x="855" y="717" type="line" name="dv01"/>
      <point x="273" y="717" type="line"/>
      <point x="273" y="0" type="line" name="sh02"/>
      <point x="137" y="0" type="line" name="sh01"/>
      <point x="137" y="1434" type="line"/>
    </contour>
  </outline>
</glyph>
<glyph name="latn:J" format="2">
  <advance width="552"/>
  <unicode hex="004A"/>
  <anchor x="350" y="1600" name="AccentAbove"/>
  <anchor x="400" y="1600" name="AccentAboveRight"/>
  <anchor x="150" y="0" name="AccentBelow"/>
  <anchor x="250" y="712" name="AccentOverlay"/>
  <outline>
    <contour>
      <point x="279" y="1434" type="line" name="dh01"/>
      <point x="416" y="1464" type="line" name="dh02"/>
      <point x="416" y="492" type="line"/>
      <point x="416" y="324"/>
      <point x="352" y="119"/>
      <point x="242" y="7"/>
      <point x="95" y="-30"/>
      <point x="12" y="-30" type="qcurve" name="sh01"/>
      <point x="30" y="112" type="line" name="sv01"/>
      <point x="59" y="112"/>
      <point x="117" y="120"/>
      <point x="173" y="143"/>
      <point x="221" y="185"/>
      <point x="258" y="252"/>
      <point x="279" y="349"/>
      <point x="279" y="415" type="qcurve"/>
    </contour>
  </outline>
</glyph>
<glyph name="K" format="2">
  <advance width="1008"/>
  <unicode hex="004B"/>
  <anchor x="400" y="1600" name="AccentAbove"/>
  <anchor x="650" y="1600" name="AccentAboveRight"/>
  <anchor x="400" y="0" name="AccentBelow"/>
  <anchor x="350" y="712" name="AccentOverlay"/>
  <outline>
    <contour>
      <point x="265" y="1464" type="line" name="sh03"/>
      <point x="265" y="729" type="line"/>
      <point x="273" y="729" type="line"/>
      <point x="823" y="1464" type="line" name="at01"/>
      <point x="936" y="1434" type="line"/>
      <point x="484" y="829" type="line"/>
      <point x="969" y="0" type="line" name="ab02"/>
      <point x="813" y="-30" type="line" name="ab01"/>
      <point x="384" y="698" type="line" name="iv01"/>
      <point x="265" y="539" type="line"/>
      <point x="265" y="0" type="line" name="sh02"/>
      <point x="129" y="0" type="line" name="sh01"/>
      <point x="129" y="1434" type="line"/>
    </contour>
  </outline>
</glyph>
<glyph name="M" format="2">
  <advance width="1368"/>
  <unicode hex="004D"/>
  <anchor x="550" y="0" name="AccentBelow"/>
  <anchor x="650" y="1600" name="AccentDefault"/>
  <anchor x="550" y="712" name="AccentMiddle"/>
  <outline>
    <contour>
      <point x="306" y="1061" type="line" name="hr00"/>
      <point x="299" y="1061" type="line"/>
      <point x="155" y="-30" type="line" name="dh03"/>
      <point x="65" y="0" type="line" name="dh04"/>
      <point x="254" y="1434" type="line"/>
      <point x="336" y="1464" type="line" name="at01"/>
      <point x="677" y="314" type="line"/>
      <point x="685" y="314" type="line"/>
      <point x="1034" y="1464" type="line" name="at02"/>
      <point x="1115" y="1434" type="line"/>
      <point x="1304" y="0" type="line" name="dh01"/>
      <point x="1154" y="-30" type="line" name="dh02"/>
      <point x="1017" y="1061" type="line"/>
      <point x="1010" y="1061" type="line"/>
      <point x="678" y="-30" type="line" name="ab01"/>
      <point x="629" y="-30" type="line"/>
    </contour>
  </outline>
</glyph>
<glyph name="N" format="2">
  <advance width="1128"/>
  <unicode hex="004E"/>
  <anchor x="550" y="1600" name="AccentAbove"/>
  <anchor x="905" y="1600" name="AccentAboveRight"/>
  <anchor x="450" y="0" name="AccentBelow"/>
  <anchor x="500" y="712" name="AccentOverlay"/>
  <outline>
    <contour>
      <point x="221" y="1464" type="line" name="sh03"/>
      <point x="900" y="305" type="line" name="sh06"/>
      <point x="908" y="305" type="line"/>
      <point x="908" y="1464" type="line" name="sh07"/>
      <point x="999" y="1434" type="line"/>
      <point x="999" y="0" type="line" name="sh04"/>
      <point x="908" y="0" type="line" name="sh05"/>
      <point x="228" y="1159" type="line" name="sh08"/>
      <point x="221" y="1159" type="line"/>
      <point x="221" y="0" type="line" name="sh02"/>
      <point x="129" y="0" type="line" name="sh01"/>
      <point x="129" y="1434" type="line"/>
    </contour>
  </outline>
</glyph>
<glyph name="latn:P" format="2">
  <advance width="864"/>
  <unicode hex="0050"/>
  <anchor x="400" y="1600" name="AccentAbove"/>
  <anchor x="650" y="1600" name="AccentAboveRight"/>
  <anchor x="350" y="0" name="AccentBelow"/>
  <anchor x="350" y="712" name="AccentOverlay"/>
  <outline>
    <contour>
      <point x="137" y="1434" type="line" name="sh01"/>
      <point x="416" y="1434" type="line"/>
      <point x="520" y="1434"/>
      <point x="672" y="1359"/>
      <point x="770" y="1235"/>
      <point x="818" y="1077"/>
      <point x="818" y="994" type="qcurve" name="sh02"/>
      <point x="818" y="939"/>
      <point x="794" y="828"/>
      <point x="749" y="726"/>
      <point x="682" y="638"/>
      <point x="593" y="572"/>
      <point x="482" y="535"/>
      <point x="416" y="535" type="qcurve"/>
      <point x="273" y="535" type="line" name="sh04"/>
      <point x="273" y="0" type="line" name="ab01"/>
      <point x="137" y="0" type="line"/>
    </contour>
    <contour>
      <point x="273" y="1312" type="line" name="sh03"/>
      <point x="273" y="657" type="line" name="sv01"/>
      <point x="398" y="657" type="line"/>
      <point x="459" y="657"/>
      <point x="560" y="702"/>
      <point x="633" y="788"/>
      <point x="674" y="914"/>
      <point x="674" y="994" type="qcurve" name="sh05"/>
      <point x="674" y="1067"/>
      <point x="633" y="1185"/>
      <point x="560" y="1268"/>
      <point x="459" y="1312"/>
      <point x="398" y="1312" type="qcurve"/>
    </contour>
  </outline>
</glyph>
<glyph name="latn:Q" format="2">
  <advance width="1200"/>
  <unicode hex="0051"/>
  <anchor x="600" y="1600" name="AccentAbove"/>
  <anchor x="850" y="1600" name="AccentAboveRight"/>
  <anchor x="600" y="0" name="AccentBelow"/>
  <anchor x="500" y="712" name="AccentOverlay"/>
  <outline>
    <contour>
      <point x="75" y="717" type="qcurve" name="sh01"/>
      <point x="75" y="832"/>
      <point x="116" y="1032"/>
      <point x="189" y="1198"/>
      <point x="289" y="1328"/>
      <point x="406" y="1417"/>
      <point x="534" y="1464"/>
      <point x="600" y="1464" type="qcurve" name="at01"/>
      <point x="666" y="1464"/>
      <point x="794" y="1417"/>
      <point x="911" y="1328"/>
      <point x="1011" y="1198"/>
      <point x="1084" y="1032"/>
      <point x="1125" y="832"/>
      <point x="1125" y="717" type="qcurve" name="sh02"/>
      <point x="1125" y="593"/>
      <point x="1075" y="380"/>
      <point x="989" y="207"/>
      <point x="875" y="77"/>
      <point x="810" y="36" type="qcurve"/>
      <point x="810" y="26" type="line" name="sv01"/>
      <point x="874" y="5"/>
      <point x="974" y="-59"/>
      <point x="1050" y="-137"/>
      <point x="1105" y="-225"/>
      <point x="1125" y="-271" type="qcurve" name="sh03"/>
      <point x="1038" y="-388" type="line" name="ih01"/>
      <point x="1020" y="-349"/>
      <point x="979" y="-266"/>
      <point x="926" y="-187"/>
      <point x="860" y="-115"/>
      <point x="774" y="-62"/>
      <point x="667" y="-30"/>
      <point x="600" y="-30" type="qcurve" name="ab01"/>
      <point x="535" y="-30"/>
      <point x="406" y="17"/>
      <point x="289" y="106"/>
      <point x="189" y="236"/>
      <point x="116" y="402"/>
      <point x="75" y="602"/>
    </contour>
    <contour>
      <point x="219" y="717" type="qcurve" name="sh05"/>
      <point x="219" y="558"/>
      <point x="288" y="323"/>
      <point x="398" y="168"/>
      <point x="533" y="92"/>
      <point x="600" y="92" type="qcurve" name="sv02"/>
      <point x="644" y="92"/>
      <point x="735" y="126"/>
      <point x="820" y="194"/>
      <point x="894" y="297"/>
      <point x="950" y="436"/>
      <point x="981" y="611"/>
      <point x="981" y="717" type="qcurve" name="sh04"/>
      <point x="981" y="823"/>
      <point x="950" y="998"/>
      <point x="894" y="1137"/>
      <point x="820" y="1240"/>
      <point x="735" y="1308"/>
      <point x="644" y="1342"/>
      <point x="600" y="1342" type="qcurve" name="sv03"/>
      <point x="533" y="1342"/>
      <point x="398" y="1266"/>
      <point x="288" y="1111"/>
      <point x="219" y="876"/>
    </contour>
  </outline>
</glyph>
<glyph name="T" format="2">
  <advance width="864"/>
  <unicode hex="0054"/>
  <anchor x="450" y="1600" name="AccentAbove"/>
  <anchor x="700" y="1600" name="AccentAboveRight"/>
  <anchor x="350" y="0" name="AccentBelow"/>
  <anchor x="280" y="0" name="AccentCedilla"/>
  <anchor x="350" y="712" name="AccentOverlay"/>
  <outline>
    <contour>
      <point x="43" y="1434" type="line" name="at01"/>
      <point x="840" y="1434" type="line" name="sh01"/>
      <point x="821" y="1292" type="line"/>
      <point x="500" y="1312" type="line" name="sv02"/>
      <point x="500" y="0" type="line" name="dh02"/>
      <point x="364" y="0" type="line" name="dh01"/>
      <point x="364" y="1312" type="line" name="sv01"/>
      <point x="24" y="1292" type="line" name="sh02"/>
    </contour>
  </outline>
</glyph>
<glyph name="U" format="2">
  <advance width="1128"/>
  <unicode hex="0055"/>
  <anchor x="550" y="1600" name="AccentAbove"/>
  <anchor x="800" y="1600" name="AccentAboveRight"/>
  <anchor x="668" y="0" name="AccentAttachedBelow"/>
  <anchor x="450" y="0" name="AccentBelow"/>
  <anchor x="500" y="712" name="AccentOverlay"/>
  <outline>
    <contour>
      <point x="273" y="1464" type="line" name="at01"/>
      <point x="273" y="542" type="line" name="sh02"/>
      <point x="273" y="411"/>
      <point x="326" y="238"/>
      <point x="413" y="134"/>
      <point x="523" y="92"/>
      <point x="579" y="92" type="qcurve" name="sv01"/>
      <point x="641" y="92"/>
      <point x="756" y="137"/>
      <point x="846" y="242"/>
      <point x="900" y="414"/>
      <point x="900" y="542" type="qcurve" name="sh04"/>
      <point x="900" y="1464" type="line" name="at02"/>
      <point x="992" y="1434" type="line"/>
      <point x="992" y="562" type="line" name="sh03"/>
      <point x="992" y="410"/>
      <point x="931" y="187"/>
      <point x="819" y="41"/>
      <point x="661" y="-30"/>
      <point x="564" y="-30" type="qcurve" name="ab01"/>
      <point x="467" y="-30"/>
      <point x="310" y="41"/>
      <point x="197" y="186"/>
      <point x="137" y="409"/>
      <point x="137" y="562" type="qcurve" name="sh01"/>
      <point x="137" y="1434" type="line"/>
    </contour>
  </outline>
</glyph>
<glyph name="latn:V" format="2">
  <advance width="936"/>
  <unicode hex="0056"/>
  <anchor x="500" y="1600" name="AccentAbove"/>
  <anchor x="750" y="1600" name="AccentAboveRight"/>
  <anchor x="350" y="0" name="AccentBelow"/>
  <anchor x="350" y="712" name="AccentOverlay"/>
  <outline>
    <contour>
      <point x="493" y="283" type="line" name="hr00"/>
      <point x="500" y="283" type="line"/>
      <point x="818" y="1464" type="line" name="sh01"/>
      <point x="908" y="1434" type="line" name="ah02"/>
      <point x="515" y="0" type="line" name="ab01"/>
      <point x="423" y="0" type="line"/>
      <point x="32" y="1434" type="line" name="ah01"/>
      <point x="182" y="1464" type="line" name="sh02"/>
    </contour>
  </outline>
</glyph>
<glyph name="latn:W" format="2">
  <advance width="1416"/>
  <unicode hex="0057"/>
  <anchor x="750" y="1600" name="AccentAbove"/>
  <anchor x="1400" y="1600" name="AccentAboveRight"/>
  <anchor x="700" y="0" name="AccentBelow"/>
  <anchor x="600" y="712" name="AccentOverlay"/>
  <outline>
    <contour>
      <point x="1057" y="348" type="line" name="sv01"/>
      <point x="1064" y="348" type="line"/>
      <point x="1295" y="1464" type="line" name="sh01"/>
      <point x="1385" y="1434" type="line" name="ah02"/>
      <point x="1076" y="0" type="line" name="dh06"/>
      <point x="984" y="0" type="line" name="dh05"/>
      <point x="716" y="1131" type="line" name="ih01"/>
      <point x="708" y="1131" type="line"/>
      <point x="432" y="0" type="line" name="dh03"/>
      <point x="341" y="0" type="line" name="dh04"/>
      <point x="32" y="1434" type="line" name="ah01"/>
      <point x="182" y="1464" type="line" name="sh02"/>
      <point x="414" y="348" type="line"/>
      <point x="422" y="348" type="line" name="av01"/>
      <point x="693" y="1464" type="line" name="dh01"/>
      <point x="785" y="1464" type="line" name="dh02"/>
    </contour>
  </outline>
</glyph>
<glyph name="X" format="2">
  <advance width="936"/>
  <unicode hex="0058"/>
  <anchor x="350" y="0" name="AccentBelow"/>
  <anchor x="450" y="1600" name="AccentDefault"/>
  <anchor x="350" y="712" name="AccentMiddle"/>
  <outline>
    <contour>
      <point x="445" y="600" type="line" name="hr00"/>
      <point x="149" y="-30" type="line" name="sh01"/>
      <point x="54" y="0" type="line" name="ah03"/>
      <point x="390" y="717" type="line"/>
      <point x="54" y="1434" type="line" name="ah02"/>
      <point x="204" y="1464" type="line" name="sh02"/>
      <point x="465" y="892" type="line"/>
      <point x="473" y="892" type="line"/>
      <point x="740" y="1464" type="line" name="sh03"/>
      <point x="836" y="1434" type="line" name="ah01"/>
      <point x="527" y="775" type="line"/>
      <point x="890" y="0" type="line" name="ah04"/>
      <point x="740" y="-30" type="line" name="sh04"/>
      <point x="452" y="600" type="line"/>
    </contour>
  </outline>
</glyph>
<glyph name="latn:Y" format="2">
  <advance width="936"/>
  <unicode hex="0059"/>
  <anchor x="500" y="1600" name="AccentAbove"/>
  <anchor x="750" y="1600" name="AccentAboveRight"/>
  <anchor x="450" y="0" name="AccentBelow"/>
  <anchor x="350" y="712" name="AccentOverlay"/>
  <outline>
    <contour>
      <point x="500" y="660" type="line" name="hr00"/>
      <point x="818" y="1464" type="line" name="sh01"/>
      <point x="908" y="1434" type="line" name="ah02"/>
      <point x="548" y="532" type="line"/>
      <point x="548" y="0" type="line" name="dh02"/>
      <point x="412" y="0" type="line" name="dh01"/>
      <point x="412" y="514" type="line"/>
      <point x="32" y="1434" type="line" name="ah01"/>
      <point x="182" y="1464" type="line" name="sh02"/>
      <point x="492" y="660" type="line"/>
    </contour>
  </outline>
</glyph>
<glyph name="bracketleft" format="2">
  <advance width="736"/>
  <unicode hex="005B"/>
  <guideline x="360" y="0" angle="80"/>
  <guideline x="532" y="0" angle="100"/>
  <guideline x="654" y="0" angle="90"/>
  <outline>
    <contour>
      <point x="274" y="1566" type="line" name="hr00"/>
      <point x="654" y="1566" type="line" name="sh02"/>
      <point x="636" y="1464" type="line" name="at01"/>
      <point x="416" y="1464" type="line"/>
      <point x="416" y="-74" type="line" name="sh03"/>
      <point x="636" y="-74" type="line" name="dv01"/>
      <point x="654" y="-176" type="line" name="sh01"/>
      <point x="274" y="-176" type="line" name="sh04"/>
    </contour>
  </outline>
</glyph>
<glyph name="sign:bracketright" format="2">
  <advance width="736"/>
  <unicode hex="005D"/>
  <outline>
    <contour>
      <point x="82" y="1564" type="line" name="sh02"/>
      <point x="462" y="1564" type="line"/>
      <point x="462" y="-178" type="line" name="sh04"/>
      <point x="82" y="-178" type="line" name="sh01"/>
      <point x="100" y="-76" type="line"/>
      <point x="320" y="-76" type="line" name="sh03"/>
      <point x="320" y="1464" type="line"/>
      <point x="100" y="1464" type="line" name="at01"/>
    </contour>
  </outline>
</glyph>
<glyph name="sign:asciicircum" format="2">
  <advance width="1248"/>
  <unicode hex="005E"/>
  <guideline x="0" y="700" angle="330"/>
  <guideline x="624" y="0" angle="90"/>
  <guideline x="-285" y="0" angle="60"/>
  <guideline x="1533" y="0" angle="120"/>
  <outline>
    <contour>
      <point x="543" y="1434" type="line" name="at01"/>
      <point x="705" y="1434" type="line"/>
      <point x="1158" y="648" type="line"/>
      <point x="1045" y="583" type="line" name="av01"/>
      <point x="634" y="1301" type="line" name="sv01"/>
      <point x="614" y="1301" type="line"/>
      <point x="203" y="583" type="line" name="av02"/>
      <point x="90" y="648" type="line"/>
    </contour>
  </outline>
</glyph>
<glyph name="underscore" format="2">
  <advance width="1024"/>
  <unicode hex="005F"/>
  <guideline x="-10" y="0" angle="90"/>
  <guideline x="1034" y="0" angle="90"/>
  <outline>
    <contour>
      <point x="0" y="-222" type="line" name="hr00"/>
      <point x="1024" y="-222" type="line" name="dv02"/>
      <point x="1024" y="-304" type="line" name="dv01"/>
      <point x="0" y="-304" type="line"/>
    </contour>
  </outline>
</glyph>
<glyph name="latn:a" format="2">
  <advance width="840"/>
  <unicode hex="0061"/>
  <anchor x="400" y="1100" name="AccentAbove"/>
  <anchor x="650" y="1100" name="AccentAboveRight"/>
  <anchor x="718" y="0" name="AccentAttachedBelow"/>
  <anchor x="400" y="0" name="AccentBelow"/>
  <anchor x="350" y="486" name="AccentOverlay"/>
  <outline>
    <contour>
      <point x="115" y="849" type="line" name="mh01"/>
      <point x="176" y="925"/>
      <point x="338" y="1004"/>
      <point x="424" y="1004" type="qcurve" name="at01"/>
      <point x="480" y="1004"/>
      <point x="589" y="960"/>
      <point x="674" y="862"/>
      <point x="728" y="708"/>
      <point x="728" y="597" type="qcurve"/>
      <point x="728" y="174" type="line" name="sh01"/>
      <point x="728" y="72"/>
      <point x="786" y="72" type="qcurve" name="sv01"/>
      <point x="773" y="-30" type="line" name="ab01"/>
      <point x="732" y="-30"/>
      <point x="676" y="3"/>
      <point x="639" y="54"/>
      <point x="618" y="115"/>
      <point x="614" y="142" type="qcurve"/>
      <point x="606" y="142" type="line" name="sh02"/>
      <point x="588" y="115"/>
      <point x="531" y="55"/>
      <point x="458" y="4"/>
      <point x="372" y="-30"/>
      <point x="326" y="-30" type="qcurve" name="ab02"/>
      <point x="278" y="-30"/>
      <point x="194" y="4"/>
      <point x="130" y="69"/>
      <point x="93" y="164"/>
      <point x="93" y="225" type="qcurve" name="sh03"/>
      <point x="93" y="313"/>
      <point x="164" y="449"/>
      <point x="296" y="541"/>
      <point x="487" y="589"/>
      <point x="606" y="589" type="qcurve" name="sh04"/>
      <point x="606" y="637" type="line"/>
      <point x="606" y="716"/>
      <point x="572" y="819"/>
      <point x="518" y="879"/>
      <point x="454" y="902"/>
      <point x="424" y="902" type="qcurve" name="sv02"/>
      <point x="394" y="902"/>
      <point x="330" y="879"/>
      <point x="269" y="839"/>
      <point x="213" y="781"/>
      <point x="191" y="747" type="qcurve" name="ih01"/>
    </contour>
    <contour>
      <point x="606" y="507" type="line" name="sh06"/>
      <point x="572" y="507"/>
      <point x="488" y="501"/>
      <point x="401" y="482"/>
      <point x="319" y="447"/>
      <point x="254" y="389"/>
      <point x="215" y="305"/>
      <point x="215" y="246" type="qcurve" name="sh05"/>
      <point x="215" y="164"/>
      <point x="288" y="72"/>
      <point x="354" y="72" type="qcurve" name="sv03"/>
      <point x="392" y="72"/>
      <point x="464" y="104"/>
      <point x="529" y="157"/>
      <point x="584" y="226"/>
      <point x="606" y="263" type="qcurve"/>
    </contour>
  </outline>
</glyph>
<glyph name="latn:b" format="2">
  <advance width="840"/>
  <unicode hex="0062"/>
  <anchor x="400" y="1600" name="AccentAbove"/>
  <anchor x="450" y="1400" name="AccentAboveRight"/>
  <anchor x="450" y="0" name="AccentBelow"/>
  <anchor x="350" y="486" name="AccentOverlay"/>
  <outline>
    <contour>
      <point x="228" y="190" type="line" name="sh03"/>
      <point x="264" y="139"/>
      <point x="360" y="72"/>
      <point x="414" y="72" type="qcurve" name="sv01"/>
      <point x="450" y="72"/>
      <point x="535" y="114"/>
      <point x="608" y="212"/>
      <point x="657" y="372"/>
      <point x="657" y="489" type="qcurve" name="sh05"/>
      <point x="657" y="587"/>
      <point x="617" y="741"/>
      <point x="551" y="847"/>
      <point x="466" y="902"/>
      <point x="422" y="902" type="qcurve" name="sv02"/>
      <point x="387" y="902"/>
      <point x="329" y="881"/>
      <point x="280" y="848"/>
      <point x="242" y="806"/>
      <point x="228" y="785" type="qcurve"/>
    </contour>
    <contour>
      <point x="107" y="1464" type="line" name="sh01"/>
      <point x="206" y="1494" type="line" name="av01"/>
      <point x="228" y="1494" type="line" name="sh02"/>
      <point x="228" y="902" type="line" name="sv03"/>
      <point x="236" y="902" type="line" name="sh06"/>
      <point x="252" y="921"/>
      <point x="298" y="958"/>
      <point x="351" y="987"/>
      <point x="412" y="1004"/>
      <point x="445" y="1004" type="qcurve" name="at01"/>
      <point x="515" y="1004"/>
      <point x="638" y="928"/>
      <point x="732" y="791"/>
      <point x="786" y="602"/>
      <point x="786" y="488" type="qcurve" name="sh04"/>
      <point x="786" y="357"/>
      <point x="725" y="163"/>
      <point x="624" y="34"/>
      <point x="492" y="-30"/>
      <point x="422" y="-30" type="qcurve" name="ab01"/>
      <point x="389" y="-30"/>
      <point x="324" y="-12"/>
      <point x="249" y="37"/>
      <point x="161" y="123"/>
      <point x="107" y="190" type="qcurve"/>
    </contour>
  </outline>
</glyph>
<glyph name="latn:c" format="2">
  <advance width="768"/>
  <unicode hex="0063"/>
  <anchor x="400" y="1100" name="AccentAbove"/>
  <anchor x="650" y="1100" name="AccentAboveRight"/>
  <anchor x="420" y="0" name="AccentBelow"/>
  <anchor x="300" y="0" name="AccentCedilla"/>
  <anchor x="300" y="486" name="AccentOverlay"/>
  <outline>
    <contour>
      <point x="630" y="747" type="line" name="sh03"/>
      <point x="620" y="768"/>
      <point x="585" y="822"/>
      <point x="536" y="869"/>
      <point x="473" y="902"/>
      <point x="435" y="902" type="qcurve" name="sv01"/>
      <point x="382" y="902"/>
      <point x="292" y="837"/>
      <point x="227" y="724"/>
      <point x="191" y="573"/>
      <point x="191" y="487" type="qcurve" name="sh05"/>
      <point x="191" y="400"/>
      <point x="227" y="249"/>
      <point x="292" y="137"/>
      <point x="381" y="72"/>
      <point x="435" y="72" type="qcurve" name="sv02"/>
      <point x="473" y="72"/>
      <point x="536" y="105"/>
      <point x="585" y="152"/>
      <point x="620" y="206"/>
      <point x="630" y="227" type="qcurve" name="sh06"/>
      <point x="707" y="125" type="line" name="sh01"/>
      <point x="687" y="96"/>
      <point x="633" y="40"/>
      <point x="566" y="-3"/>
      <point x="483" y="-30"/>
      <point x="435" y="-30" type="qcurve" name="ab01"/>
      <point x="355" y="-30"/>
      <point x="218" y="48"/>
      <point x="118" y="186"/>
      <point x="62" y="376"/>
      <point x="62" y="487" type="qcurve" name="sh04"/>
      <point x="62" y="598"/>
      <point x="119" y="788"/>
      <point x="219" y="926"/>
      <point x="355" y="1004"/>
      <point x="435" y="1004" type="qcurve" name="at01"/>
      <point x="483" y="1004"/>
      <point x="566" y="976"/>
      <point x="633" y="932"/>
      <point x="687" y="877"/>
      <point x="707" y="849" type="qcurve" name="sh02"/>
    </contour>
  </outline>
</glyph>
<glyph name="latn:d" format="2">
  <advance width="840"/>
  <unicode hex="0064"/>
  <anchor x="400" y="1600" name="AccentAbove"/>
  <anchor x="650" y="1600" name="AccentAboveRight"/>
  <anchor x="350" y="0" name="AccentBelow"/>
  <anchor x="300" y="0" name="AccentCedilla"/>
  <anchor x="222" y="486" name="AccentOverlay"/>
  <outline>
    <contour>
      <point x="614" y="1464" type="line" name="hr00"/>
      <point x="713" y="1494" type="line" name="av01"/>
      <point x="735" y="1494" type="line"/>
      <point x="735" y="179" type="line" name="sh01"/>
      <point x="735" y="125"/>
      <point x="762" y="72"/>
      <point x="794" y="72" type="qcurve" name="sv01"/>
      <point x="780" y="-30" type="line" name="ab01"/>
      <point x="737" y="-30"/>
      <point x="678" y="7"/>
      <point x="642" y="60"/>
      <point x="624" y="119"/>
      <point x="621" y="142" type="qcurve"/>
      <point x="614" y="142" type="line"/>
      <point x="599" y="114"/>
      <point x="558" y="54"/>
      <point x="503" y="3"/>
      <point x="432" y="-30"/>
      <point x="386" y="-30" type="qcurve" name="ab02"/>
      <point x="323" y="-30"/>
      <point x="206" y="40"/>
      <point x="116" y="172"/>
      <point x="62" y="365"/>
      <point x="62" y="488" type="qcurve" name="sh02"/>
      <point x="62" y="594"/>
      <point x="115" y="782"/>
      <point x="206" y="922"/>
      <point x="326" y="1004"/>
      <point x="393" y="1004" type="qcurve" name="at01"/>
      <point x="426" y="1004"/>
      <point x="488" y="986"/>
      <point x="543" y="957"/>
      <point x="589" y="921"/>
      <point x="606" y="902" type="qcurve" name="sv02"/>
      <point x="614" y="902" type="line" name="sh04"/>
    </contour>
    <contour>
      <point x="614" y="785" type="line"/>
      <point x="599" y="806"/>
      <point x="560" y="848"/>
      <point x="511" y="881"/>
      <point x="451" y="902"/>
      <point x="416" y="902" type="qcurve" name="sv03"/>
      <point x="369" y="902"/>
      <point x="287" y="844"/>
      <point x="226" y="736"/>
      <point x="191" y="583"/>
      <point x="191" y="489" type="qcurve" name="sh05"/>
      <point x="191" y="375"/>
      <point x="230" y="217"/>
      <point x="292" y="117"/>
      <point x="370" y="72"/>
      <point x="409" y="72" type="qcurve" name="sv04"/>
      <point x="444" y="72"/>
      <point x="505" y="105"/>
      <point x="557" y="158"/>
      <point x="598" y="227"/>
      <point x="614" y="263" type="qcurve" name="sh03"/>
    </contour>
  </outline>
</glyph>
<glyph name="latn:e" format="2">
  <advance width="768"/>
  <unicode hex="0065"/>
  <anchor x="400" y="1100" name="AccentAbove"/>
  <anchor x="650" y="1100" name="AccentAboveRight"/>
  <anchor x="528" y="0" name="AccentAttachedBelow"/>
  <anchor x="400" y="0" name="AccentBelow"/>
  <anchor x="300" y="550" name="AccentOverlay"/>
  <outline>
    <contour>
      <point x="183" y="487" type="line" name="sh02"/>
      <point x="183" y="373"/>
      <point x="226" y="215"/>
      <point x="296" y="116"/>
      <point x="385" y="72"/>
      <point x="431" y="72" type="qcurve" name="sv01"/>
      <point x="467" y="72"/>
      <point x="529" y="103"/>
      <point x="577" y="149"/>
      <point x="613" y="204"/>
      <point x="623" y="227" type="qcurve" name="mh01"/>
      <point x="699" y="125" type="line" name="ah01"/>
      <point x="687" y="106"/>
      <point x="638" y="53"/>
      <point x="568" y="4"/>
      <point x="479" y="-30"/>
      <point x="428" y="-30" type="qcurve" name="ab01"/>
      <point x="344" y="-30"/>
      <point x="207" y="39"/>
      <point x="109" y="174"/>
      <point x="54" y="375"/>
      <point x="54" y="507" type="qcurve" name="sh01"/>
      <point x="54" y="617"/>
      <point x="110" y="800"/>
      <point x="206" y="931"/>
      <point x="332" y="1004"/>
      <point x="403" y="1004" type="qcurve" name="at01"/>
      <point x="466" y="1004"/>
      <point x="581" y="944"/>
      <point x="669" y="817"/>
      <point x="722" y="622"/>
      <point x="722" y="487" type="qcurve" name="sh03"/>
    </contour>
    <contour>
      <point x="608" y="589" type="line" name="sh04"/>
      <point x="608" y="649"/>
      <point x="578" y="762"/>
      <point x="524" y="849"/>
      <point x="446" y="902"/>
      <point x="397" y="902" type="qcurve" name="sv02"/>
      <point x="350" y="902"/>
      <point x="275" y="853"/>
      <point x="219" y="769"/>
      <point x="186" y="655"/>
      <point x="183" y="589" type="qcurve" name="sh05"/>
    </contour>
  </outline>
</glyph>
<glyph name="f" format="2">
  <advance width="552"/>
  <unicode hex="0066"/>
  <anchor x="250" y="1600" name="AccentAbove"/>
  <anchor x="500" y="1600" name="AccentAboveRight"/>
  <anchor x="200" y="0" name="AccentBelow"/>
  <anchor x="300" y="486" name="AccentOverlay"/>
  <outline>
    <contour>
      <point x="75" y="1004" type="line" name="hr00"/>
      <point x="188" y="1004" type="line" name="dh01"/>
      <point x="188" y="1106"/>
      <point x="215" y="1258"/>
      <point x="262" y="1367"/>
      <point x="329" y="1437"/>
      <point x="409" y="1478"/>
      <point x="502" y="1494"/>
      <point x="552" y="1494" type="qcurve" name="dv02"/>
      <point x="539" y="1392" type="line" name="dv01"/>
      <point x="488" y="1392"/>
      <point x="404" y="1364"/>
      <point x="344" y="1290"/>
      <point x="310" y="1164"/>
      <point x="310" y="1066" type="qcurve"/>
      <point x="310" y="1004" type="line" name="dh02"/>
      <point x="488" y="1004" type="line" name="at01"/>
      <point x="470" y="872" type="line"/>
      <point x="310" y="886" type="line" name="sh01"/>
      <point x="310" y="0" type="line" name="ab01"/>
      <point x="188" y="0" type="line" name="sh02"/>
      <point x="188" y="893" type="line" name="sv01"/>
      <point x="62" y="902" type="line"/>
    </contour>
  </outline>
</glyph>
<glyph name="latn:g" format="2">
  <advance width="840"/>
  <unicode hex="0067"/>
  <anchor x="400" y="1100" name="AccentAbove"/>
  <anchor x="650" y="1100" name="AccentAboveRight"/>
  <anchor x="420" y="-400" name="AccentBelow"/>
  <anchor x="350" y="486" name="AccentOverlay"/>
  <outline>
    <contour>
      <point x="612" y="974" type="line" name="ah01"/>
      <point x="711" y="1004" type="line" name="at01"/>
      <point x="734" y="1004" type="line" name="sh01"/>
      <point x="734" y="0" type="line" name="ab02"/>
      <point x="734" y="-126"/>
      <point x="676" y="-310"/>
      <point x="581" y="-431"/>
      <point x="455" y="-490"/>
      <point x="388" y="-490" type="qcurve" name="ab01"/>
      <point x="347" y="-490"/>
      <point x="263" y="-471"/>
      <point x="186" y="-432"/>
      <point x="118" y="-374"/>
      <point x="91" y="-335" type="qcurve"/>
      <point x="167" y="-233" type="line" name="ih01"/>
      <point x="206" y="-305"/>
      <point x="320" y="-388"/>
      <point x="388" y="-388" type="qcurve" name="sv01"/>
      <point x="431" y="-388"/>
      <point x="513" y="-353"/>
      <point x="575" y="-271"/>
      <point x="612" y="-138"/>
      <point x="612" y="-40" type="qcurve" name="sh04"/>
      <point x="612" y="142" type="line"/>
      <point x="605" y="142" type="line" name="sh05"/>
      <point x="600" y="127"/>
      <point x="566" y="79"/>
      <point x="512" y="33"/>
      <point x="437" y="0"/>
      <point x="392" y="0" type="qcurve" name="ab03"/>
      <point x="332" y="0"/>
      <point x="215" y="71"/>
      <point x="125" y="200"/>
      <point x="69" y="379"/>
      <point x="69" y="488" type="qcurve" name="sh02"/>
      <point x="69" y="599"/>
      <point x="125" y="778"/>
      <point x="215" y="905"/>
      <point x="332" y="974"/>
      <point x="393" y="974" type="qcurve" name="at02"/>
      <point x="420" y="974"/>
      <point x="476" y="961"/>
      <point x="531" y="933"/>
      <point x="583" y="886"/>
      <point x="605" y="852" type="qcurve" name="sh06"/>
      <point x="612" y="852" type="line"/>
    </contour>
    <contour>
      <point x="612" y="743" type="line" name="sh07"/>
      <point x="574" y="813"/>
      <point x="474" y="872"/>
      <point x="416" y="872" type="qcurve" name="sv02"/>
      <point x="371" y="872"/>
      <point x="291" y="817"/>
      <point x="232" y="716"/>
      <point x="198" y="575"/>
      <point x="198" y="488" type="qcurve" name="sh03"/>
      <point x="198" y="386"/>
      <point x="236" y="240"/>
      <point x="298" y="146"/>
      <point x="375" y="102"/>
      <point x="415" y="102" type="qcurve" name="sv03"/>
      <point x="454" y="102"/>
      <point x="518" y="132"/>
      <point x="569" y="177"/>
      <point x="603" y="230"/>
      <point x="612" y="254" type="qcurve"/>
    </contour>
  </outline>
</glyph>
<glyph name="h" format="2">
  <advance width="840"/>
  <unicode hex="0068"/>
  <anchor x="400" y="1600" name="AccentAbove"/>
  <anchor x="450" y="1400" name="AccentAboveRight"/>
  <anchor x="350" y="0" name="AccentBelow"/>
  <anchor x="30" y="0" name="AccentCedilla"/>
  <anchor x="464" y="486" name="AccentOverlay"/>
  <outline>
    <contour>
      <point x="114" y="1464" type="line" name="sh01"/>
      <point x="213" y="1494" type="line" name="av01"/>
      <point x="236" y="1494" type="line" name="sh02"/>
      <point x="236" y="837" type="line"/>
      <point x="243" y="837" type="line" name="sh03"/>
      <point x="290" y="916"/>
      <point x="410" y="1004"/>
      <point x="489" y="1004" type="qcurve" name="at01"/>
      <point x="541" y="1004"/>
      <point x="629" y="963"/>
      <point x="692" y="884"/>
      <point x="728" y="770"/>
      <point x="728" y="697" type="qcurve"/>
      <point x="728" y="196" type="line" name="sh04"/>
      <point x="728" y="130"/>
      <point x="754" y="72"/>
      <point x="786" y="72" type="qcurve"/>
      <point x="773" y="-30" type="line" name="ab01"/>
      <point x="727" y="-30"/>
      <point x="664" y="9"/>
      <point x="624" y="77"/>
      <point x="606" y="171"/>
      <point x="606" y="227" type="qcurve" name="ah01"/>
      <point x="606" y="697" type="line"/>
      <point x="606" y="743"/>
      <point x="586" y="819"/>
      <point x="549" y="873"/>
      <point x="497" y="902"/>
      <point x="464" y="902" type="qcurve" name="sv01"/>
      <point x="427" y="902"/>
      <point x="360" y="869"/>
      <point x="302" y="812"/>
      <point x="254" y="738"/>
      <point x="236" y="696" type="qcurve" name="sh05"/>
      <point x="236" y="0" type="line" name="ab02"/>
      <point x="114" y="0" type="line"/>
    </contour>
  </outline>
</glyph>
<glyph name="latn:i" format="2">
  <advance width="432"/>
  <unicode hex="0069"/>
  <anchor x="220" y="1600" name="AccentAbove"/>
  <anchor x="370" y="1200" name="AccentAboveRight"/>
  <anchor x="218" y="0" name="AccentAttachedBelow"/>
  <anchor x="120" y="0" name="AccentBelow"/>
  <anchor x="120" y="486" name="AccentOverlay"/>
  <outline>
    <contour>
      <point x="155" y="974" type="line" name="hr00"/>
      <point x="254" y="1004" type="line"/>
      <point x="277" y="1004" type="line" name="at01"/>
      <point x="277" y="0" type="line" name="sh02"/>
      <point x="155" y="0" type="line" name="sh01"/>
    </contour>
    <contour>
      <point x="120" y="1272" type="qcurve" name="ih01"/>
      <point x="120" y="1312"/>
      <point x="176" y="1368"/>
      <point x="216" y="1368" type="qcurve" name="dv02"/>
      <point x="256" y="1368"/>
      <point x="312" y="1312"/>
      <point x="312" y="1272" type="qcurve" name="sh03"/>
      <point x="312" y="1232"/>
      <point x="256" y="1176"/>
      <point x="216" y="1176" type="qcurve" name="dv01"/>
      <point x="176" y="1176"/>
      <point x="120" y="1232"/>
    </contour>
  </outline>
</glyph>
<glyph name="j" format="2">
  <advance width="432"/>
  <unicode hex="006A"/>
  <anchor x="220" y="1600" name="AccentAbove"/>
  <anchor x="370" y="1200" name="AccentAboveRight"/>
  <anchor x="150" y="-400" name="AccentBelow"/>
  <anchor x="120" y="486" name="AccentOverlay"/>
  <outline>
    <contour>
      <point x="155" y="974" type="line" name="ih01"/>
      <point x="254" y="1004" type="line" name="at01"/>
      <point x="277" y="1004" type="line" name="sh01"/>
      <point x="277" y="-77" type="line"/>
      <point x="277" y="-196"/>
      <point x="240" y="-354"/>
      <point x="172" y="-450"/>
      <point x="73" y="-490"/>
      <point x="11" y="-490" type="qcurve" name="ab01"/>
      <point x="24" y="-388" type="line" name="sv01"/>
      <point x="51" y="-388"/>
      <point x="99" y="-365"/>
      <point x="135" y="-310"/>
      <point x="155" y="-220"/>
      <point x="155" y="-152" type="qcurve"/>
    </contour>
    <contour>
      <point x="120" y="1272" type="qcurve" name="dh01"/>
      <point x="120" y="1312"/>
      <point x="176" y="1368"/>
      <point x="216" y="1368" type="qcurve" name="dv02"/>
      <point x="256" y="1368"/>
      <point x="312" y="1312"/>
      <point x="312" y="1272" type="qcurve" name="dh02"/>
      <point x="312" y="1232"/>
      <point x="256" y="1176"/>
      <point x="216" y="1176" type="qcurve" name="dv01"/>
      <point x="176" y="1176"/>
      <point x="120" y="1232"/>
    </contour>
  </outline>
</glyph>
<glyph name="latn:k" format="2">
  <advance width="768"/>
  <unicode hex="006B"/>
  <anchor x="400" y="1600" name="AccentAbove"/>
  <anchor x="450" y="1400" name="AccentAboveRight"/>
  <anchor x="320" y="0" name="AccentBelow"/>
  <anchor x="464" y="486" name="AccentOverlay"/>
  <outline>
    <contour>
      <point x="737" y="0" type="line" name="ab02"/>
      <point x="602" y="-30" type="line" name="ab01"/>
      <point x="363" y="549" type="line"/>
      <point x="356" y="549" type="line"/>
      <point x="236" y="389" type="line"/>
      <point x="236" y="0" type="line" name="sh02"/>
      <point x="114" y="0" type="line" name="sh01"/>
      <point x="114" y="1464" type="line" name="at01"/>
      <point x="213" y="1494" type="line" name="av01"/>
      <point x="236" y="1494" type="line" name="sh03"/>
      <point x="236" y="565" type="line"/>
      <point x="243" y="565" type="line"/>
      <point x="573" y="1004" type="line" name="at03"/>
      <point x="674" y="974" type="line" name="at02"/>
      <point x="447" y="670" type="line"/>
    </contour>
  </outline>
</glyph>
<glyph name="latn:l" format="2">
  <advance width="432"/>
  <unicode hex="006C"/>
  <anchor x="220" y="1600" name="AccentAbove"/>
  <anchor x="270" y="1400" name="AccentAboveRight"/>
  <anchor x="150" y="0" name="AccentBelow"/>
  <anchor x="200" y="486" name="AccentOverlay"/>
  <outline>
    <contour>
      <point x="155" y="1464" type="line" name="at01"/>
      <point x="254" y="1494" type="line" name="av01"/>
      <point x="277" y="1494" type="line"/>
      <point x="277" y="293" type="line" name="sh02"/>
      <point x="277" y="226"/>
      <point x="300" y="140"/>
      <point x="336" y="91"/>
      <point x="379" y="72"/>
      <point x="398" y="72" type="qcurve" name="sv01"/>
      <point x="384" y="-30" type="line" name="ab01"/>
      <point x="341" y="-30"/>
      <point x="259" y="0"/>
      <point x="194" y="75"/>
      <point x="155" y="202"/>
      <point x="155" y="300" type="qcurve" name="sh01"/>
    </contour>
  </outline>
</glyph>
<glyph name="m" format="2">
  <advance width="1248"/>
  <unicode hex="006D"/>
  <anchor x="600" y="1100" name="AccentAbove"/>
  <anchor x="1050" y="1100" name="AccentAboveRight"/>
  <anchor x="550" y="0" name="AccentBelow"/>
  <anchor x="520" y="486" name="AccentOverlay"/>
  <outline>
    <contour>
      <point x="107" y="944" type="line" name="dh01"/>
      <point x="206" y="974" type="line" name="at01"/>
      <point x="228" y="974" type="line" name="dh02"/>
      <point x="228" y="838" type="line"/>
      <point x="236" y="838" type="line"/>
      <point x="261" y="882"/>
      <point x="311" y="945"/>
      <point x="367" y="985"/>
      <point x="429" y="1004"/>
      <point x="465" y="1004" type="qcurve" name="at02"/>
      <point x="505" y="1004"/>
      <point x="570" y="977"/>
      <point x="622" y="930"/>
      <point x="659" y="865"/>
      <point x="671" y="828" type="qcurve"/>
      <point x="679" y="828" type="line"/>
      <point x="704" y="872"/>
      <point x="756" y="938"/>
      <point x="812" y="982"/>
      <point x="876" y="1004"/>
      <point x="914" y="1004" type="qcurve" name="at03"/>
      <point x="954" y="1004" name="hr00"/>
      <point x="1035" y="969"/>
      <point x="1100" y="898"/>
      <point x="1142" y="789"/>
      <point x="1142" y="716" type="qcurve"/>
      <point x="1142" y="197" type="line" name="dh06"/>
      <point x="1142" y="131"/>
      <point x="1168" y="72"/>
      <point x="1200" y="72" type="qcurve" name="sv01"/>
      <point x="1187" y="-30" type="line" name="ab01"/>
      <point x="1105" y="-30"/>
      <point x="1020" y="98"/>
      <point x="1020" y="227" type="qcurve" name="dh05"/>
      <point x="1020" y="696" type="line"/>
      <point x="1020" y="744"/>
      <point x="1001" y="820"/>
      <point x="967" y="874"/>
      <point x="920" y="902"/>
      <point x="893" y="902" type="qcurve" name="sv02"/>
      <point x="860" y="902"/>
      <point x="804" y="872"/>
      <point x="755" y="817"/>
      <point x="708" y="742"/>
      <point x="685" y="697" type="qcurve"/>
      <point x="685" y="0" type="line" name="dh04"/>
      <point x="563" y="0" type="line" name="dh03"/>
      <point x="563" y="716" type="line"/>
      <point x="563" y="749"/>
      <point x="546" y="816"/>
      <point x="515" y="869"/>
      <point x="470" y="902"/>
      <point x="443" y="902" type="qcurve" name="sv03"/>
      <point x="407" y="902"/>
      <point x="348" y="871"/>
      <point x="298" y="817"/>
      <point x="251" y="741"/>
      <point x="228" y="696" type="qcurve" name="sh01"/>
      <point x="228" y="0" type="line" name="ab02"/>
      <point x="107" y="0" type="line"/>
    </contour>
  </outline>
</glyph>
<glyph name="latn:n" format="2">
  <advance width="840"/>
  <unicode hex="006E"/>
  <anchor x="400" y="1100" name="AccentAbove"/>
  <anchor x="650" y="1100" name="AccentAboveRight"/>
  <anchor x="350" y="0" name="AccentBelow"/>
  <anchor x="350" y="486" name="AccentOverlay"/>
  <outline>
    <contour>
      <point x="728" y="197" type="line" name="sh01"/>
      <point x="728" y="131"/>
      <point x="754" y="72"/>
      <point x="786" y="72" type="qcurve"/>
      <point x="773" y="-30" type="line" name="ab01"/>
      <point x="724" y="-30"/>
      <point x="660" y="11"/>
      <point x="622" y="82"/>
      <point x="606" y="175"/>
      <point x="606" y="227" type="qcurve" name="ah01"/>
      <point x="606" y="687" type="line" name="hr00"/>
      <point x="606" y="790"/>
      <point x="533" y="902"/>
      <point x="464" y="902" type="qcurve" name="sv01"/>
      <point x="394" y="902"/>
      <point x="284" y="797"/>
      <point x="236" y="697" type="qcurve"/>
      <point x="236" y="0" type="line" name="sh03"/>
      <point x="114" y="0" type="line" name="sh02"/>
      <point x="114" y="944" type="line"/>
      <point x="213" y="974" type="line" name="at01"/>
      <point x="236" y="974" type="line" name="sh04"/>
      <point x="236" y="837" type="line"/>
      <point x="243" y="837" type="line" name="sh05"/>
      <point x="296" y="925"/>
      <point x="413" y="1004"/>
      <point x="482" y="1004" type="qcurve" name="at02"/>
      <point x="536" y="1004"/>
      <point x="626" y="963"/>
      <point x="692" y="887"/>
      <point x="728" y="776"/>
      <point x="728" y="707" type="qcurve"/>
    </contour>
  </outline>
</glyph>
<glyph name="latn:o" format="2">
  <advance width="840"/>
  <unicode hex="006F"/>
  <anchor x="420" y="1100" name="AccentAbove"/>
  <anchor x="650" y="1100" name="AccentAboveRight"/>
  <anchor x="420" y="0" name="AccentBelow"/>
  <anchor x="720" y="798" name="AccentHorn"/>
  <anchor x="420" y="486" name="AccentOverlay"/>
  <outline>
    <contour>
      <point x="420" y="1004" type="qcurve" name="at01"/>
      <point x="500" y="1004"/>
      <point x="635" y="926"/>
      <point x="732" y="788"/>
      <point x="786" y="598"/>
      <point x="786" y="487" type="qcurve" name="sh01"/>
      <point x="786" y="376"/>
      <point x="732" y="186"/>
      <point x="635" y="48"/>
      <point x="500" y="-30"/>
      <point x="420" y="-30" type="qcurve" name="ab01"/>
      <point x="340" y="-30"/>
      <point x="206" y="48"/>
      <point x="108" y="186"/>
      <point x="54" y="375"/>
      <point x="54" y="487" type="qcurve" name="sh02"/>
      <point x="54" y="598"/>
      <point x="108" y="788"/>
      <point x="206" y="926"/>
      <point x="340" y="1004"/>
    </contour>
    <contour>
      <point x="420" y="902" type="qcurve" name="sv01"/>
      <point x="367" y="902"/>
      <point x="279" y="837"/>
      <point x="217" y="724"/>
      <point x="183" y="573"/>
      <point x="183" y="487" type="qcurve" name="sh03"/>
      <point x="183" y="400"/>
      <point x="217" y="249"/>
      <point x="279" y="137"/>
      <point x="367" y="72"/>
      <point x="420" y="72" type="qcurve" name="sv02"/>
      <point x="473" y="72"/>
      <point x="561" y="137"/>
      <point x="623" y="249"/>
      <point x="657" y="401"/>
      <point x="657" y="487" type="qcurve" name="sh04"/>
      <point x="657" y="573"/>
      <point x="623" y="724"/>
      <point x="561" y="837"/>
      <point x="473" y="902"/>
    </contour>
  </outline>
</glyph>
<glyph name="latn:p" format="2">
  <advance width="840"/>
  <unicode hex="0070"/>
  <anchor x="400" y="1100" name="AccentAbove"/>
  <anchor x="650" y="1100" name="AccentAboveRight"/>
  <anchor x="450" y="-400" name="AccentBelow"/>
  <anchor x="350" y="486" name="AccentOverlay"/>
  <outline>
    <contour>
      <point x="228" y="974" type="line" name="sh03"/>
      <point x="228" y="902" type="line" name="sv01"/>
      <point x="236" y="902" type="line" name="sh04"/>
      <point x="252" y="921"/>
      <point x="297" y="958"/>
      <point x="350" y="987" name="hr00"/>
      <point x="410" y="1004"/>
      <point x="443" y="1004" type="qcurve" name="at01"/>
      <point x="513" y="1004"/>
      <point x="635" y="928"/>
      <point x="726" y="791"/>
      <point x="779" y="602"/>
      <point x="779" y="488" type="qcurve" name="sh05"/>
      <point x="779" y="357" name="hr01"/>
      <point x="720" y="163"/>
      <point x="621" y="34"/>
      <point x="491" y="-30" name="hr02"/>
      <point x="420" y="-30" type="qcurve" name="ab02"/>
      <point x="394" y="-30"/>
      <point x="337" y="-13"/>
      <point x="285" y="16"/>
      <point x="242" y="52"/>
      <point x="228" y="72" type="qcurve" name="iv01"/>
      <point x="228" y="-460" type="line" name="sh02"/>
      <point x="129" y="-490" type="line" name="ab01"/>
      <point x="107" y="-490" type="line" name="sh01"/>
      <point x="107" y="944" type="line"/>
      <point x="206" y="974" type="line"/>
    </contour>
    <contour>
      <point x="228" y="190" type="line" name="sh06"/>
      <point x="264" y="139"/>
      <point x="359" y="72"/>
      <point x="413" y="72" type="qcurve" name="sv02"/>
      <point x="449" y="72"/>
      <point x="532" y="114"/>
      <point x="602" y="212"/>
      <point x="650" y="372"/>
      <point x="650" y="489" type="qcurve" name="ah01"/>
      <point x="650" y="587"/>
      <point x="611" y="741"/>
      <point x="547" y="847"/>
      <point x="464" y="902"/>
      <point x="420" y="902" type="qcurve" name="sv03"/>
      <point x="385" y="902"/>
      <point x="327" y="881"/>
      <point x="280" y="848"/>
      <point x="242" y="806"/>
      <point x="228" y="785" type="qcurve"/>
    </contour>
  </outline>
</glyph>
<glyph name="q" format="2">
  <advance width="840"/>
  <unicode hex="0071"/>
  <anchor x="400" y="1100" name="AccentAbove"/>
  <anchor x="650" y="1100" name="AccentAboveRight"/>
  <anchor x="350" y="-400" name="AccentBelow"/>
  <anchor x="350" y="486" name="AccentOverlay"/>
  <outline>
    <contour>
      <point x="620" y="784" type="line" name="ah01"/>
      <point x="584" y="835"/>
      <point x="488" y="902"/>
      <point x="434" y="902" type="qcurve" name="sv01"/>
      <point x="398" y="902"/>
      <point x="313" y="860"/>
      <point x="239" y="762"/>
      <point x="191" y="602"/>
      <point x="191" y="485" type="qcurve" name="sh02"/>
      <point x="191" y="387"/>
      <point x="231" y="233"/>
      <point x="297" y="127"/>
      <point x="382" y="72"/>
      <point x="426" y="72" type="qcurve" name="sv02"/>
      <point x="461" y="72"/>
      <point x="519" y="93"/>
      <point x="568" y="126"/>
      <point x="605" y="168"/>
      <point x="620" y="189" type="qcurve"/>
    </contour>
    <contour>
      <point x="741" y="-460" type="line"/>
      <point x="642" y="-490" type="line" name="ab01"/>
      <point x="620" y="-490" type="line" name="sh03"/>
      <point x="620" y="72" type="line" name="sv03"/>
      <point x="612" y="72" type="line" name="sh04"/>
      <point x="596" y="53"/>
      <point x="550" y="16"/>
      <point x="497" y="-13"/>
      <point x="436" y="-30"/>
      <point x="403" y="-30" type="qcurve" name="ab02"/>
      <point x="333" y="-30"/>
      <point x="209" y="46"/>
      <point x="116" y="183"/>
      <point x="62" y="372"/>
      <point x="62" y="486" type="qcurve" name="sh01"/>
      <point x="62" y="617"/>
      <point x="122" y="811"/>
      <point x="224" y="940"/>
      <point x="356" y="1004"/>
      <point x="426" y="1004" type="qcurve" name="at01"/>
      <point x="458" y="1004"/>
      <point x="524" y="986"/>
      <point x="599" y="937"/>
      <point x="686" y="851"/>
      <point x="741" y="784" type="qcurve" name="sh05"/>
    </contour>
  </outline>
</glyph>
<glyph name="latn:r" format="2">
  <advance width="552"/>
  <unicode hex="0072"/>
  <anchor x="320" y="1100" name="AccentAbove"/>
  <anchor x="370" y="1100" name="AccentAboveRight"/>
  <anchor x="220" y="0" name="AccentBelow"/>
  <anchor x="120" y="486" name="AccentOverlay"/>
  <outline>
    <contour>
      <point x="236" y="974" type="line" name="sh03"/>
      <point x="236" y="808" type="line" name="av01"/>
      <point x="243" y="808" type="line"/>
      <point x="277" y="905"/>
      <point x="363" y="1004"/>
      <point x="425" y="1004" type="qcurve" name="at01"/>
      <point x="441" y="1004"/>
      <point x="474" y="992"/>
      <point x="502" y="974"/>
      <point x="523" y="953"/>
      <point x="528" y="944" type="qcurve" name="ah01"/>
      <point x="508" y="786" type="line" name="iv01"/>
      <point x="494" y="806"/>
      <point x="437" y="842"/>
      <point x="405" y="842" type="qcurve" name="sv01"/>
      <point x="360" y="842"/>
      <point x="296" y="783"/>
      <point x="255" y="699"/>
      <point x="236" y="607"/>
      <point x="236" y="574" type="qcurve"/>
      <point x="236" y="0" type="line" name="sh02"/>
      <point x="114" y="0" type="line" name="sh01"/>
      <point x="114" y="944" type="line"/>
      <point x="213" y="974" type="line"/>
    </contour>
  </outline>
</glyph>
<glyph name="s" format="2">
  <advance width="648"/>
  <unicode hex="0073"/>
  <anchor x="350" y="1100" name="AccentAbove"/>
  <anchor x="470" y="1100" name="AccentAboveRight"/>
  <anchor x="250" y="0" name="AccentBelow"/>
  <anchor x="200" y="0" name="AccentCedilla"/>
  <anchor x="250" y="486" name="AccentOverlay"/>
  <outline>
    <contour>
      <point x="146" y="227" type="line" name="ih01"/>
      <point x="161" y="193"/>
      <point x="200" y="136"/>
      <point x="246" y="95"/>
      <point x="297" y="72"/>
      <point x="323" y="72" type="qcurve" name="sv01"/>
      <point x="350" y="72"/>
      <point x="401" y="91"/>
      <point x="440" y="132"/>
      <point x="465" y="194"/>
      <point x="465" y="238" type="qcurve" name="ah01"/>
      <point x="465" y="272"/>
      <point x="447" y="325"/>
      <point x="407" y="372"/>
      <point x="342" y="414"/>
      <point x="296" y="437" type="qcurve" name="sv02"/>
      <point x="263" y="453"/>
      <point x="196" y="507"/>
      <point x="143" y="583"/>
      <point x="109" y="685"/>
      <point x="109" y="749" type="qcurve" name="sh01"/>
      <point x="109" y="807"/>
      <point x="143" y="902"/>
      <point x="201" y="968"/>
      <point x="278" y="1004"/>
      <point x="322" y="1004" type="qcurve" name="at01"/>
      <point x="358" y="1004"/>
      <point x="427" y="980"/>
      <point x="489" y="938"/>
      <point x="542" y="882"/>
      <point x="563" y="849" type="qcurve" name="ih02"/>
      <point x="488" y="747" type="line" name="iv02"/>
      <point x="476" y="778"/>
      <point x="442" y="834"/>
      <point x="400" y="877"/>
      <point x="350" y="902"/>
      <point x="323" y="902" type="qcurve" name="sv03"/>
      <point x="302" y="902"/>
      <point x="266" y="884"/>
      <point x="239" y="850"/>
      <point x="223" y="800"/>
      <point x="223" y="768" type="qcurve" name="sh02"/>
      <point x="223" y="733"/>
      <point x="246" y="673"/>
      <point x="284" y="624"/>
      <point x="333" y="587"/>
      <point x="359" y="575" type="qcurve" name="iv01"/>
      <point x="415" y="548"/>
      <point x="498" y="484"/>
      <point x="553" y="404"/>
      <point x="579" y="306"/>
      <point x="579" y="246" type="qcurve" name="sh03"/>
      <point x="579" y="182"/>
      <point x="536" y="80"/>
      <point x="465" y="8"/>
      <point x="373" y="-30"/>
      <point x="323" y="-30" type="qcurve" name="ab01"/>
      <point x="176" y="-30"/>
      <point x="69" y="125" type="qcurve"/>
    </contour>
  </outline>
</glyph>
<glyph name="latn:t" format="2">
  <advance width="552"/>
  <unicode hex="0074"/>
  <anchor x="220" y="1600" name="AccentAbove"/>
  <anchor x="270" y="1300" name="AccentAboveRight"/>
  <anchor x="300" y="0" name="AccentBelow"/>
  <anchor x="200" y="0" name="AccentCedilla"/>
  <anchor x="200" y="486" name="AccentOverlay"/>
  <outline>
    <contour>
      <point x="310" y="1322" type="line" name="sh01"/>
      <point x="310" y="1004" type="line" name="at01"/>
      <point x="488" y="1004" type="line"/>
      <point x="470" y="872" type="line"/>
      <point x="310" y="886" type="line" name="sv02"/>
      <point x="310" y="297" type="line" name="dh02"/>
      <point x="310" y="240"/>
      <point x="323" y="155"/>
      <point x="359" y="99"/>
      <point x="422" y="72"/>
      <point x="472" y="72" type="qcurve" name="sv03"/>
      <point x="458" y="-30" type="line" name="ab01"/>
      <point x="378" y="-30"/>
      <point x="274" y="8"/>
      <point x="213" y="92"/>
      <point x="188" y="228"/>
      <point x="188" y="326" type="qcurve" name="dh01"/>
      <point x="188" y="893" type="line" name="sv01"/>
      <point x="62" y="902" type="line"/>
      <point x="75" y="1004" type="line"/>
      <point x="188" y="1004" type="line" name="sh02"/>
      <point x="188" y="1292" type="line"/>
      <point x="287" y="1322" type="line"/>
    </contour>
  </outline>
</glyph>
<glyph name="u" format="2">
  <advance width="840"/>
  <unicode hex="0075"/>
  <anchor x="350" y="0" name="AccentBelow"/>
  <anchor x="400" y="1100" name="AccentDefault"/>
  <anchor x="350" y="486" name="AccentMiddle"/>
  <anchor x="350" y="0" name="AccentOgonek"/>
  <outline>
    <contour>
      <point x="236" y="1004" type="line" name="at01"/>
      <point x="236" y="305" type="line" name="sh02"/>
      <point x="236" y="240"/>
      <point x="261" y="151"/>
      <point x="303" y="96"/>
      <point x="356" y="72"/>
      <point x="384" y="72" type="qcurve" name="sv01"/>
      <point x="425" y="72"/>
      <point x="493" y="107"/>
      <point x="548" y="163"/>
      <point x="590" y="230"/>
      <point x="606" y="263" type="qcurve" name="sh03"/>
      <point x="606" y="974" type="line"/>
      <point x="705" y="1004" type="line" name="at02"/>
      <point x="728" y="1004" type="line"/>
      <point x="728" y="189" type="line" name="sh04"/>
      <point x="728" y="123"/>
      <point x="756" y="72"/>
      <point x="786" y="72" type="qcurve" name="sv02"/>
      <point x="773" y="-30" type="line" name="ab01"/>
      <point x="731" y="-30"/>
      <point x="676" y="2"/>
      <point x="640" y="52"/>
      <point x="620" y="113"/>
      <point x="614" y="142" type="qcurve"/>
      <point x="606" y="142" type="line" name="ah01"/>
      <point x="593" y="116"/>
      <point x="549" y="56"/>
      <point x="486" y="4"/>
      <point x="407" y="-30"/>
      <point x="359" y="-30" type="qcurve" name="ab02"/>
      <point x="313" y="-30"/>
      <point x="225" y="4"/>
      <point x="156" y="79"/>
      <point x="114" y="197"/>
      <point x="114" y="280" type="qcurve" name="sh01"/>
      <point x="114" y="974" type="line"/>
      <point x="213" y="1004" type="line"/>
    </contour>
  </outline>
</glyph>
<glyph name="latn:v" format="2">
  <advance width="768"/>
  <unicode hex="0076"/>
  <anchor x="400" y="1100" name="AccentAbove"/>
  <anchor x="650" y="1100" name="AccentAboveRight"/>
  <anchor x="400" y="0" name="AccentBelow"/>
  <anchor x="300" y="486" name="AccentOverlay"/>
  <outline>
    <contour>
      <point x="174" y="1004" type="line" name="sh01"/>
      <point x="404" y="230" type="line" name="av01"/>
      <point x="412" y="230" type="line"/>
      <point x="642" y="1004" type="line" name="sh02"/>
      <point x="725" y="974" type="line" name="ah02"/>
      <point x="430" y="0" type="line" name="dh02"/>
      <point x="338" y="0" type="line" name="dh01"/>
      <point x="44" y="974" type="line" name="ah01"/>
    </contour>
  </outline>
</glyph>
<glyph name="latn:w" format="2">
  <advance width="1080"/>
  <unicode hex="0077"/>
  <anchor x="600" y="1100" name="AccentAbove"/>
  <anchor x="850" y="1100" name="AccentAboveRight"/>
  <anchor x="550" y="0" name="AccentBelow"/>
  <anchor x="450" y="486" name="AccentOverlay"/>
  <outline>
    <contour>
      <point x="1038" y="974" type="line" name="ah02"/>
      <point x="800" y="0" type="line" name="dh06"/>
      <point x="709" y="0" type="line" name="dh05"/>
      <point x="544" y="678" type="line"/>
      <point x="536" y="678" type="line"/>
      <point x="371" y="0" type="line" name="dh04"/>
      <point x="280" y="0" type="line" name="dh03"/>
      <point x="42" y="974" type="line" name="ah01"/>
      <point x="173" y="1004" type="line" name="sh01"/>
      <point x="345" y="269" type="line"/>
      <point x="353" y="269" type="line" name="av01"/>
      <point x="517" y="974" type="line" name="dh01"/>
      <point x="608" y="974" type="line" name="dh02"/>
      <point x="774" y="269" type="line" name="sv01"/>
      <point x="782" y="269" type="line"/>
      <point x="953" y="1004" type="line" name="sh02"/>
    </contour>
  </outline>
</glyph>
<glyph name="latn:x" format="2">
  <advance width="768"/>
  <unicode hex="0078"/>
  <anchor x="350" y="1100" name="AccentAbove"/>
  <anchor x="600" y="1100" name="AccentAboveRight"/>
  <anchor x="300" y="0" name="AccentBelow"/>
  <anchor x="300" y="486" name="AccentOverlay"/>
  <outline>
    <contour>
      <point x="175" y="1004" type="line" name="sh01"/>
      <point x="393" y="602" type="line"/>
      <point x="401" y="602" type="line"/>
      <point x="632" y="1004" type="line" name="sh02"/>
      <point x="725" y="974" type="line" name="ah02"/>
      <point x="449" y="509" type="line"/>
      <point x="449" y="499" type="line" name="dh02"/>
      <point x="725" y="0" type="line" name="ah03"/>
      <point x="591" y="-30" type="line" name="sh03"/>
      <point x="376" y="372" type="line"/>
      <point x="368" y="372" type="line"/>
      <point x="136" y="-30" type="line" name="sh04"/>
      <point x="44" y="0" type="line" name="ah04"/>
      <point x="319" y="464" type="line"/>
      <point x="319" y="474" type="line" name="dh01"/>
      <point x="44" y="974" type="line" name="ah01"/>
    </contour>
  </outline>
</glyph>
<glyph name="latn:y" format="2">
  <advance width="720"/>
  <unicode hex="0079"/>
  <anchor x="400" y="1100" name="AccentAbove"/>
  <anchor x="650" y="1100" name="AccentAboveRight"/>
  <anchor x="300" y="-400" name="AccentBelow"/>
  <anchor x="300" y="486" name="AccentOverlay"/>
  <outline>
    <contour>
      <point x="170" y="1004" type="line" name="sh01"/>
      <point x="405" y="204" type="line"/>
      <point x="413" y="204" type="line" name="ih01"/>
      <point x="607" y="1004" type="line" name="sh02"/>
      <point x="689" y="974" type="line" name="ah02"/>
      <point x="444" y="-30" type="line" name="dh02"/>
      <point x="407" y="-181"/>
      <point x="333" y="-362"/>
      <point x="253" y="-459"/>
      <point x="164" y="-490"/>
      <point x="99" y="-490" type="qcurve" name="ab01"/>
      <point x="113" y="-388" type="line"/>
      <point x="140" y="-388"/>
      <point x="208" y="-366"/>
      <point x="269" y="-291"/>
      <point x="326" y="-150"/>
      <point x="356" y="-30" type="qcurve" name="dh01"/>
      <point x="39" y="974" type="line" name="ah01"/>
    </contour>
  </outline>
</glyph>
<glyph name="latn:z" format="2">
  <advance width="720"/>
  <unicode hex="007A"/>
  <anchor x="400" y="1100" name="AccentAbove"/>
  <anchor x="650" y="1100" name="AccentAboveRight"/>
  <anchor x="400" y="0" name="AccentBelow"/>
  <anchor x="300" y="486" name="AccentOverlay"/>
  <outline>
    <contour>
      <point x="54" y="25" type="line" name="hr00"/>
      <point x="501" y="866" type="line"/>
      <point x="501" y="876" type="line" name="sh02"/>
      <point x="116" y="849" type="line" name="sv01"/>
      <point x="132" y="974" type="line" name="ah01"/>
      <point x="663" y="974" type="line"/>
      <point x="663" y="949" type="line" name="sh01"/>
      <point x="215" y="105" type="line"/>
      <point x="215" y="95" type="line" name="sh04"/>
      <point x="663" y="125" type="line" name="sv02"/>
      <point x="647" y="0" type="line" name="ah02"/>
      <point x="54" y="0" type="line" name="sh03"/>
    </contour>
  </outline>
</glyph>
<glyph name="sign:braceleft" format="2">
  <advance width="736"/>
  <unicode hex="007B"/>
  <guideline x="636" y="0" angle="90"/>
  <outline>
    <contour>
      <point x="636" y="1434" type="line" name="at01"/>
      <point x="573" y="1434"/>
      <point x="499" y="1409"/>
      <point x="461" y="1355"/>
      <point x="450" y="1268"/>
      <point x="450" y="1207" type="qcurve" name="sh01"/>
      <point x="450" y="1044" type="line"/>
      <point x="450" y="976"/>
      <point x="433" y="852"/>
      <point x="382" y="751"/>
      <point x="289" y="680"/>
      <point x="213" y="665" type="qcurve" name="iv01"/>
      <point x="289" y="650"/>
      <point x="382" y="579"/>
      <point x="433" y="478"/>
      <point x="450" y="354"/>
      <point x="450" y="286" type="qcurve"/>
      <point x="450" y="111" type="line" name="dh02"/>
      <point x="450" y="49"/>
      <point x="461" y="-33"/>
      <point x="499" y="-83"/>
      <point x="573" y="-104"/>
      <point x="636" y="-104" type="qcurve" name="dv02"/>
      <point x="654" y="-206" type="line" name="ah02"/>
      <point x="568" y="-206"/>
      <point x="439" y="-180"/>
      <point x="352" y="-112"/>
      <point x="308" y="2"/>
      <point x="308" y="91" type="qcurve" name="dh01"/>
      <point x="308" y="266" type="line"/>
      <point x="308" y="342"/>
      <point x="298" y="470"/>
      <point x="252" y="562"/>
      <point x="157" y="614"/>
      <point x="72" y="614" type="qcurve" name="dv01"/>
      <point x="72" y="716" type="line" name="ah01"/>
      <point x="159" y="716"/>
      <point x="254" y="768"/>
      <point x="299" y="860"/>
      <point x="308" y="988"/>
      <point x="308" y="1064" type="qcurve" name="sh02"/>
      <point x="308" y="1229" type="line"/>
      <point x="308" y="1317"/>
      <point x="352" y="1436"/>
      <point x="439" y="1506"/>
      <point x="568" y="1536"/>
      <point x="654" y="1536" type="qcurve" name="sh03"/>
    </contour>
  </outline>
</glyph>
<glyph name="sign:braceright" format="2">
  <advance width="736"/>
  <unicode hex="007D"/>
  <outline>
    <contour>
      <point x="72" y="1536" type="line" name="sh01"/>
      <point x="157" y="1536"/>
      <point x="287" y="1506"/>
      <point x="374" y="1436"/>
      <point x="418" y="1317"/>
      <point x="418" y="1229" type="qcurve" name="sh02"/>
      <point x="418" y="1064" type="line"/>
      <point x="418" y="988"/>
      <point x="426" y="860"/>
      <point x="471" y="768"/>
      <point x="567" y="716"/>
      <point x="654" y="716" type="qcurve" name="dv02"/>
      <point x="654" y="614" type="line" name="ah01"/>
      <point x="569" y="614"/>
      <point x="474" y="562"/>
      <point x="428" y="470"/>
      <point x="418" y="342"/>
      <point x="418" y="266" type="qcurve"/>
      <point x="418" y="91" type="line" name="dh02"/>
      <point x="418" y="2"/>
      <point x="374" y="-112"/>
      <point x="287" y="-180"/>
      <point x="157" y="-206"/>
      <point x="72" y="-206" type="qcurve" name="ah02"/>
      <point x="90" y="-104" type="line" name="dv01"/>
      <point x="153" y="-104"/>
      <point x="227" y="-83"/>
      <point x="265" y="-33"/>
      <point x="276" y="49"/>
      <point x="276" y="111" type="qcurve" name="dh01"/>
      <point x="276" y="286" type="line"/>
      <point x="276" y="354"/>
      <point x="293" y="478"/>
      <point x="344" y="579"/>
      <point x="437" y="650"/>
      <point x="513" y="665" type="qcurve" name="iv01"/>
      <point x="437" y="680"/>
      <point x="344" y="751"/>
      <point x="293" y="852"/>
      <point x="276" y="976"/>
      <point x="276" y="1044" type="qcurve" name="sh03"/>
      <point x="276" y="1207" type="line"/>
      <point x="276" y="1268"/>
      <point x="265" y="1355"/>
      <point x="227" y="1409"/>
      <point x="153" y="1434"/>
      <point x="90" y="1434" type="qcurve" name="at01"/>
    </contour>
  </outline>
</glyph>
<glyph name="sign:exclamdown" format="2">
  <advance width="552"/>
  <unicode hex="00A1"/>
  <outline>
    <contour>
      <point x="314" y="580" type="line" name="hr00"/>
      <point x="405" y="580" type="line"/>
      <point x="444" y="-460" type="line"/>
      <point x="275" y="-460" type="line"/>
    </contour>
    <contour>
      <point x="263" y="908" type="qcurve"/>
      <point x="263" y="948"/>
      <point x="319" y="1004"/>
      <point x="359" y="1004" type="qcurve"/>
      <point x="399" y="1004"/>
      <point x="455" y="948"/>
      <point x="455" y="908" type="qcurve"/>
      <point x="455" y="868"/>
      <point x="399" y="812"/>
      <point x="359" y="812" type="qcurve"/>
      <point x="319" y="812"/>
      <point x="263" y="868"/>
    </contour>
  </outline>
</glyph>
<glyph name="sign:section" format="2">
  <advance width="768"/>
  <unicode hex="00A7"/>
  <outline>
    <contour>
      <point x="619" y="-184" type="qcurve" name="sh01"/>
      <point x="619" y="-251"/>
      <point x="590" y="-363"/>
      <point x="533" y="-444"/>
      <point x="449" y="-490"/>
      <point x="395" y="-490" type="qcurve" name="ab01"/>
      <point x="357" y="-490"/>
      <point x="288" y="-465" name="hr00"/>
      <point x="227" y="-423"/>
      <point x="176" y="-367"/>
      <point x="156" y="-335" type="qcurve"/>
      <point x="232" y="-233" type="line" name="iv01"/>
      <point x="244" y="-265"/>
      <point x="278" y="-321"/>
      <point x="320" y="-363"/>
      <point x="368" y="-388" name="hr01"/>
      <point x="395" y="-388" type="qcurve" name="sv01"/>
      <point x="419" y="-388"/>
      <point x="459" y="-363"/>
      <point x="488" y="-319"/>
      <point x="505" y="-258"/>
      <point x="505" y="-222" type="qcurve" name="ih01"/>
      <point x="505" y="-159"/>
      <point x="473" y="-64"/>
      <point x="420" y="13"/>
      <point x="353" y="78"/>
      <point x="282" y="144"/>
      <point x="215" y="218"/>
      <point x="162" y="313"/>
      <point x="130" y="435"/>
      <point x="130" y="516" type="qcurve" name="sh02"/>
      <point x="130" y="575"/>
      <point x="155" y="671"/>
      <point x="200" y="751"/>
      <point x="258" y="815"/>
      <point x="292" y="842" type="qcurve"/>
      <point x="251" y="896"/>
      <point x="197" y="1053"/>
      <point x="197" y="1158" type="qcurve"/>
      <point x="197" y="1225" name="sh03"/>
      <point x="229" y="1337"/>
      <point x="287" y="1418"/>
      <point x="370" y="1464"/>
      <point x="422" y="1464" type="qcurve" name="at01"/>
      <point x="499" y="1464"/>
      <point x="617" y="1378"/>
      <point x="660" y="1309" type="qcurve"/>
      <point x="584" y="1207" type="line" name="iv02"/>
      <point x="575" y="1234"/>
      <point x="542" y="1289"/>
      <point x="500" y="1334"/>
      <point x="449" y="1362"/>
      <point x="422" y="1362" type="qcurve" name="sv02"/>
      <point x="398" y="1362"/>
      <point x="357" y="1337"/>
      <point x="328" y="1293"/>
      <point x="311" y="1232"/>
      <point x="311" y="1196" type="qcurve" name="ih02"/>
      <point x="311" y="1133"/>
      <point x="344" y="1038"/>
      <point x="396" y="961"/>
      <point x="464" y="896"/>
      <point x="534" y="830"/>
      <point x="602" y="756"/>
      <point x="654" y="661"/>
      <point x="686" y="539"/>
      <point x="686" y="458" type="qcurve" name="sh04"/>
      <point x="686" y="399"/>
      <point x="661" y="302"/>
      <point x="617" y="222"/>
      <point x="557" y="158"/>
      <point x="524" y="131" type="qcurve"/>
      <point x="565" y="77"/>
      <point x="619" y="-79"/>
    </contour>
    <contour>
      <point x="251" y="547" type="qcurve" name="ah02"/>
      <point x="251" y="483"/>
      <point x="290" y="388"/>
      <point x="350" y="310"/>
      <point x="427" y="239"/>
      <point x="464" y="200" type="qcurve" name="av02"/>
      <point x="514" y="236"/>
      <point x="565" y="352"/>
      <point x="565" y="427" type="qcurve" name="ah01"/>
      <point x="565" y="491"/>
      <point x="527" y="586"/>
      <point x="466" y="664"/>
      <point x="389" y="735"/>
      <point x="352" y="774" type="qcurve" name="av01"/>
      <point x="302" y="738"/>
      <point x="251" y="622"/>
    </contour>
  </outline>
</glyph>
<glyph name="sign:diaeresis" format="2">
  <advance width="568"/>
  <unicode hex="00A8"/>
  <outline>
    <contour>
      <point x="-24" y="1280" type="qcurve" name="sh01"/>
      <point x="-24" y="1299"/>
      <point x="-8" y="1335"/>
      <point x="19" y="1362"/>
      <point x="55" y="1378"/>
      <point x="76" y="1378" type="qcurve" name="sv01"/>
      <point x="96" y="1378"/>
      <point x="133" y="1362"/>
      <point x="161" y="1335"/>
      <point x="178" y="1299"/>
      <point x="178" y="1280" type="qcurve" name="dh01"/>
      <point x="178" y="1259"/>
      <point x="161" y="1221"/>
      <point x="133" y="1192"/>
      <point x="96" y="1176"/>
      <point x="76" y="1176" type="qcurve" name="av01"/>
      <point x="55" y="1176"/>
      <point x="19" y="1192"/>
      <point x="-8" y="1221"/>
      <point x="-24" y="1259"/>
    </contour>
    <contour>
      <point x="390" y="1280" type="qcurve" name="dh02"/>
      <point x="390" y="1299"/>
      <point x="406" y="1335"/>
      <point x="433" y="1362"/>
      <point x="469" y="1378"/>
      <point x="490" y="1378" type="qcurve" name="sv02"/>
      <point x="510" y="1378"/>
      <point x="547" y="1362"/>
      <point x="575" y="1335"/>
      <point x="592" y="1299"/>
      <point x="592" y="1280" type="qcurve" name="sh02"/>
      <point x="592" y="1259"/>
      <point x="575" y="1221"/>
      <point x="547" y="1192"/>
      <point x="510" y="1176"/>
      <point x="490" y="1176" type="qcurve" name="sv03"/>
      <point x="469" y="1176"/>
      <point x="433" y="1192"/>
      <point x="406" y="1221"/>
      <point x="390" y="1259"/>
    </contour>
  </outline>
</glyph>
<glyph name="sign:copyright" format="2">
  <advance width="1200"/>
  <unicode hex="00A9"/>
  <outline>
    <contour>
      <point x="39" y="716" type="qcurve" name="sh01"/>
      <point x="39" y="819"/>
      <point x="79" y="1010"/>
      <point x="152" y="1177"/>
      <point x="254" y="1313"/>
      <point x="379" y="1411"/>
      <point x="522" y="1464"/>
      <point x="599" y="1464" type="qcurve" name="at01"/>
      <point x="677" y="1464"/>
      <point x="820" y="1411"/>
      <point x="945" y="1313"/>
      <point x="1047" y="1177"/>
      <point x="1121" y="1010"/>
      <point x="1160" y="819"/>
      <point x="1160" y="716" type="qcurve" name="sh02"/>
      <point x="1160" y="613"/>
      <point x="1121" y="422"/>
      <point x="1047" y="256"/>
      <point x="945" y="120"/>
      <point x="820" y="23"/>
      <point x="677" y="-30"/>
      <point x="599" y="-30" type="qcurve" name="ab01"/>
      <point x="522" y="-30"/>
      <point x="379" y="23"/>
      <point x="254" y="120"/>
      <point x="152" y="256"/>
      <point x="79" y="422"/>
      <point x="39" y="613"/>
    </contour>
    <contour>
      <point x="101" y="717" type="qcurve" name="sh03"/>
      <point x="101" y="627"/>
      <point x="137" y="459"/>
      <point x="203" y="312"/>
      <point x="296" y="189"/>
      <point x="407" y="101"/>
      <point x="533" y="52"/>
      <point x="599" y="52" type="qcurve" name="sv01"/>
      <point x="666" y="52"/>
      <point x="793" y="101"/>
      <point x="904" y="189"/>
      <point x="996" y="312"/>
      <point x="1062" y="459"/>
      <point x="1099" y="627"/>
      <point x="1099" y="717" type="qcurve" name="sh04"/>
      <point x="1099" y="806"/>
      <point x="1062" y="975"/>
      <point x="996" y="1122"/>
      <point x="904" y="1245"/>
      <point x="793" y="1333"/>
      <point x="666" y="1382"/>
      <point x="599" y="1382" type="qcurve" name="sv02"/>
      <point x="533" y="1382"/>
      <point x="407" y="1333"/>
      <point x="296" y="1245"/>
      <point x="203" y="1122"/>
      <point x="137" y="974"/>
      <point x="101" y="806"/>
    </contour>
    <contour>
      <point x="790" y="941" type="line"/>
      <point x="781" y="959"/>
      <point x="750" y="1008"/>
      <point x="708" y="1052"/>
      <point x="654" y="1082"/>
      <point x="620" y="1082" type="qcurve" name="sv04"/>
      <point x="574" y="1082"/>
      <point x="495" y="1024"/>
      <point x="437" y="924"/>
      <point x="404" y="791"/>
      <point x="404" y="716" type="qcurve" name="sh06"/>
      <point x="404" y="641"/>
      <point x="437" y="508"/>
      <point x="494" y="408"/>
      <point x="574" y="350"/>
      <point x="620" y="350" type="qcurve" name="sv06"/>
      <point x="654" y="350"/>
      <point x="708" y="380"/>
      <point x="750" y="424"/>
      <point x="781" y="473"/>
      <point x="790" y="491" type="qcurve"/>
      <point x="856" y="402" type="line" name="sh07"/>
      <point x="839" y="378"/>
      <point x="793" y="330"/>
      <point x="734" y="292"/>
      <point x="662" y="268"/>
      <point x="620" y="268" type="qcurve" name="sv05"/>
      <point x="551" y="268"/>
      <point x="433" y="336"/>
      <point x="346" y="456"/>
      <point x="297" y="620"/>
      <point x="297" y="716" type="qcurve" name="sh05"/>
      <point x="297" y="812"/>
      <point x="347" y="976"/>
      <point x="433" y="1096"/>
      <point x="551" y="1164"/>
      <point x="620" y="1164" type="qcurve" name="sv03"/>
      <point x="662" y="1164"/>
      <point x="734" y="1140"/>
      <point x="793" y="1102"/>
      <point x="839" y="1054"/>
      <point x="856" y="1030" type="qcurve" name="sh08"/>
    </contour>
  </outline>
</glyph>
<glyph name="latn:ordfeminine" format="2">
  <advance width="648"/>
  <unicode hex="00AA"/>
  <outline>
    <contour>
      <point x="99" y="1341" type="line" name="hr00"/>
      <point x="138" y="1401"/>
      <point x="245" y="1464"/>
      <point x="313" y="1464" type="qcurve"/>
      <point x="356" y="1464"/>
      <point x="434" y="1428"/>
      <point x="491" y="1355"/>
      <point x="524" y="1246"/>
      <point x="524" y="1174" type="qcurve"/>
      <point x="524" y="810" type="line"/>
      <point x="524" y="729"/>
      <point x="569" y="729" type="qcurve"/>
      <point x="559" y="649" type="line"/>
      <point x="527" y="649"/>
      <point x="485" y="675"/>
      <point x="458" y="715"/>
      <point x="443" y="763"/>
      <point x="439" y="784" type="qcurve"/>
      <point x="432" y="784" type="line"/>
      <point x="417" y="761"/>
      <point x="383" y="713"/>
      <point x="337" y="674"/>
      <point x="277" y="649"/>
      <point x="236" y="649" type="qcurve"/>
      <point x="200" y="649"/>
      <point x="142" y="680"/>
      <point x="101" y="737"/>
      <point x="79" y="817"/>
      <point x="79" y="865" type="qcurve"/>
      <point x="79" y="932"/>
      <point x="119" y="1036"/>
      <point x="204" y="1107"/>
      <point x="338" y="1144"/>
      <point x="432" y="1144" type="qcurve"/>
      <point x="432" y="1206" type="line"/>
      <point x="432" y="1254"/>
      <point x="413" y="1321"/>
      <point x="380" y="1363"/>
      <point x="336" y="1382"/>
      <point x="313" y="1382" type="qcurve"/>
      <point x="261" y="1382"/>
      <point x="185" y="1315"/>
      <point x="159" y="1261" type="qcurve"/>
    </contour>
    <contour>
      <point x="432" y="1084" type="line"/>
      <point x="361" y="1084"/>
      <point x="262" y="1056"/>
      <point x="199" y="1003"/>
      <point x="170" y="925"/>
      <point x="170" y="874" type="qcurve"/>
      <point x="170" y="836"/>
      <point x="191" y="781"/>
      <point x="221" y="747"/>
      <point x="256" y="731"/>
      <point x="269" y="731" type="qcurve"/>
      <point x="296" y="731"/>
      <point x="341" y="749"/>
      <point x="380" y="784"/>
      <point x="415" y="833"/>
      <point x="432" y="864" type="qcurve"/>
    </contour>
  </outline>
</glyph>
<glyph name="sign:guillemetleft" format="2">
  <advance width="1024"/>
  <unicode hex="00AB"/>
  <guideline x="0" y="901" angle="0"/>
  <guideline x="532" y="0" angle="90"/>
  <guideline x="930" y="0" angle="90"/>
  <outline>
    <contour>
      <point x="828" y="906" type="line" name="av01"/>
      <point x="930" y="876" type="line" name="sh02"/>
      <point x="664" y="487" type="line" name="sh03"/>
      <point x="930" y="98" type="line" name="sh01"/>
      <point x="828" y="68" type="line" name="av03"/>
      <point x="500" y="487" type="line" name="sh04"/>
    </contour>
    <contour>
      <point x="430" y="906" type="line" name="av02"/>
      <point x="532" y="876" type="line" name="sh06"/>
      <point x="266" y="487" type="line" name="sh07"/>
      <point x="532" y="98" type="line" name="sh05"/>
      <point x="430" y="68" type="line" name="av04"/>
      <point x="102" y="487" type="line" name="sh08"/>
    </contour>
  </outline>
</glyph>
<glyph name="macron" format="2">
  <advance width="568"/>
  <unicode hex="00AF"/>
  <guideline x="-71" y="0" angle="80"/>
  <outline>
    <contour>
      <point x="57" y="1364" type="line" name="hr00"/>
      <point x="531" y="1364" type="line" name="ah02"/>
      <point x="510" y="1242" type="line" name="av01"/>
      <point x="36" y="1242" type="line" name="ah01"/>
    </contour>
  </outline>
</glyph>
<glyph name="degree" format="2">
  <advance width="768"/>
  <unicode hex="00B0"/>
  <guideline x="0" y="1247" angle="0"/>
  <guideline x="357" y="0" angle="90"/>
  <outline>
    <contour>
      <point x="190" y="1272" type="qcurve" name="dh01"/>
      <point x="190" y="1231"/>
      <point x="220" y="1159"/>
      <point x="271" y="1106"/>
      <point x="341" y="1076"/>
      <point x="382" y="1076" type="qcurve" name="dv01"/>
      <point x="422" y="1076"/>
      <point x="494" y="1106"/>
      <point x="547" y="1159"/>
      <point x="578" y="1231"/>
      <point x="578" y="1272" type="qcurve" name="dh02"/>
      <point x="578" y="1311"/>
      <point x="547" y="1381"/>
      <point x="494" y="1433"/>
      <point x="422" y="1464"/>
      <point x="382" y="1464" type="qcurve" name="dv02"/>
      <point x="341" y="1464"/>
      <point x="271" y="1433"/>
      <point x="220" y="1381"/>
      <point x="190" y="1311"/>
    </contour>
    <contour>
      <point x="88" y="1271" type="qcurve" name="sh01"/>
      <point x="88" y="1331"/>
      <point x="133" y="1439"/>
      <point x="213" y="1519"/>
      <point x="321" y="1566"/>
      <point x="383" y="1566" type="qcurve" name="sv01"/>
      <point x="444" y="1566"/>
      <point x="552" y="1519"/>
      <point x="633" y="1439"/>
      <point x="680" y="1331"/>
      <point x="680" y="1271" type="qcurve" name="sh02"/>
      <point x="680" y="1207"/>
      <point x="633" y="1098"/>
      <point x="552" y="1019"/>
      <point x="444" y="974"/>
      <point x="383" y="974" type="qcurve" name="sv02"/>
      <point x="321" y="974"/>
      <point x="213" y="1019"/>
      <point x="133" y="1098"/>
      <point x="88" y="1207"/>
    </contour>
  </outline>
</glyph>
<glyph name="digit:three.superior" format="2">
  <advance width="552"/>
  <unicode hex="00B3"/>
  <outline>
    <contour>
      <point x="134" y="770" type="line" name="hr00"/>
      <point x="154" y="732"/>
      <point x="216" y="688"/>
      <point x="261" y="688" type="qcurve" name="sv01"/>
      <point x="293" y="688"/>
      <point x="340" y="715" name="hr01"/>
      <point x="372" y="759"/>
      <point x="389" y="815"/>
      <point x="389" y="844" type="qcurve" name="sh01"/>
      <point x="389" y="882"/>
      <point x="370" y="950"/>
      <point x="335" y="1002"/>
      <point x="282" y="1032"/>
      <point x="248" y="1032" type="qcurve" name="dv01"/>
      <point x="198" y="1032" type="line"/>
      <point x="206" y="1134" type="line" name="hr02"/>
      <point x="245" y="1134" type="line" name="dv02"/>
      <point x="265" y="1134"/>
      <point x="304" y="1155"/>
      <point x="334" y="1190"/>
      <point x="353" y="1237"/>
      <point x="353" y="1263" type="qcurve" name="dh01"/>
      <point x="353" y="1308"/>
      <point x="314" y="1362"/>
      <point x="281" y="1362" type="qcurve" name="sv02"/>
      <point x="267" y="1362"/>
      <point x="239" y="1348"/>
      <point x="211" y="1326"/>
      <point x="187" y="1296"/>
      <point x="179" y="1280" type="qcurve"/>
      <point x="117" y="1362" type="line"/>
      <point x="126" y="1375"/>
      <point x="158" y="1410"/>
      <point x="198" y="1442"/>
      <point x="247" y="1464"/>
      <point x="273" y="1464" type="qcurve" name="at01"/>
      <point x="311" y="1464"/>
      <point x="371" y="1434"/>
      <point x="414" y="1383"/>
      <point x="437" y="1313"/>
      <point x="437" y="1274" type="qcurve" name="dh02"/>
      <point x="437" y="1230"/>
      <point x="412" y="1168"/>
      <point x="377" y="1124"/>
      <point x="337" y="1099"/>
      <point x="322" y="1093" type="qcurve"/>
      <point x="322" y="1087" type="line" name="iv01"/>
      <point x="338" y="1082"/>
      <point x="392" y="1053"/>
      <point x="443" y="997"/>
      <point x="480" y="909"/>
      <point x="480" y="846" type="qcurve" name="sh02"/>
      <point x="480" y="792"/>
      <point x="449" y="697"/>
      <point x="392" y="627"/>
      <point x="311" y="586"/>
      <point x="261" y="586" type="qcurve" name="av01"/>
      <point x="230" y="586"/>
      <point x="173" y="605"/>
      <point x="125" y="635"/>
      <point x="86" y="672"/>
      <point x="73" y="690" type="qcurve"/>
    </contour>
  </outline>
</glyph>
<glyph name="sign:acute" format="2">
  <advance width="568"/>
  <unicode hex="00B4"/>
  <guideline x="2696" y="0" angle="90"/>
  <guideline x="677" y="0" angle="90"/>
  <outline>
    <contour>
      <point x="71" y="1176" type="line" name="hr00"/>
      <point x="382" y="1521" type="line" name="av01"/>
      <point x="412" y="1521" type="line"/>
      <point x="494" y="1434" type="line"/>
      <point x="494" y="1404" type="line"/>
      <point x="128" y="1116" type="line" name="av02"/>
    </contour>
  </outline>
</glyph>
<glyph name="mu" format="2">
  <advance width="768"/>
  <unicode hex="00B5"/>
  <outline>
    <contour>
      <point x="213" y="974" type="line" name="sh03"/>
      <point x="213" y="487" type="line"/>
      <point x="213" y="383"/>
      <point x="240" y="233"/>
      <point x="287" y="137"/>
      <point x="347" y="92"/>
      <point x="380" y="92" type="qcurve" name="sv01"/>
      <point x="413" y="92"/>
      <point x="472" y="137"/>
      <point x="516" y="233"/>
      <point x="542" y="383"/>
      <point x="542" y="487" type="qcurve" name="sh04"/>
      <point x="542" y="944" type="line"/>
      <point x="641" y="974" type="line" name="at01"/>
      <point x="663" y="974" type="line"/>
      <point x="663" y="259" type="line" name="sh05"/>
      <point x="663" y="186"/>
      <point x="707" y="92"/>
      <point x="752" y="92" type="qcurve" name="sv02"/>
      <point x="735" y="-30" type="line" name="ab02"/>
      <point x="688" y="-30"/>
      <point x="620" y="-1"/>
      <point x="576" y="43"/>
      <point x="553" y="97"/>
      <point x="549" y="122" type="qcurve"/>
      <point x="542" y="122" type="line" name="ah01"/>
      <point x="535" y="97"/>
      <point x="509" y="44"/>
      <point x="470" y="-1"/>
      <point x="416" y="-30"/>
      <point x="380" y="-30" type="qcurve" name="ab03"/>
      <point x="349" y="-30"/>
      <point x="297" y="-1"/>
      <point x="257" y="43"/>
      <point x="229" y="97"/>
      <point x="221" y="122" type="qcurve" name="sh06"/>
      <point x="213" y="122" type="line"/>
      <point x="213" y="-460" type="line" name="sh02"/>
      <point x="114" y="-490" type="line" name="ab01"/>
      <point x="92" y="-490" type="line" name="sh01"/>
      <point x="92" y="944" type="line"/>
      <point x="191" y="974" type="line"/>
    </contour>
  </outline>
</glyph>
<glyph name="cedilla" format="2">
  <advance width="568"/>
  <unicode hex="00B8"/>
  <guideline x="460" y="0" angle="70"/>
  <outline>
    <contour>
      <point x="370" y="29" type="line" name="ih01"/>
      <point x="320" y="-110" type="line" name="av02"/>
      <point x="349" y="-110"/>
      <point x="405" y="-135"/>
      <point x="450" y="-182"/>
      <point x="477" y="-250"/>
      <point x="477" y="-293" type="qcurve" name="sh01"/>
      <point x="477" y="-344"/>
      <point x="439" y="-418"/>
      <point x="377" y="-466"/>
      <point x="301" y="-490"/>
      <point x="264" y="-490" type="qcurve" name="ab01"/>
      <point x="229" y="-490"/>
      <point x="170" y="-476"/>
      <point x="124" y="-456"/>
      <point x="92" y="-433"/>
      <point x="83" y="-423" type="qcurve" name="ah02"/>
      <point x="137" y="-347" type="line" name="av01"/>
      <point x="140" y="-352"/>
      <point x="158" y="-372"/>
      <point x="186" y="-393"/>
      <point x="223" y="-408"/>
      <point x="245" y="-408" type="qcurve" name="sv01"/>
      <point x="268" y="-408"/>
      <point x="308" y="-391"/>
      <point x="338" y="-361"/>
      <point x="355" y="-321"/>
      <point x="355" y="-298" type="qcurve" name="ah01"/>
      <point x="355" y="-276"/>
      <point x="338" y="-236"/>
      <point x="308" y="-207"/>
      <point x="268" y="-190" name="hr00"/>
      <point x="245" y="-190" type="qcurve"/>
      <point x="224" y="-190"/>
      <point x="198" y="-194"/>
      <point x="180" y="-199"/>
      <point x="168" y="-204"/>
      <point x="162" y="-206" type="qcurve" name="ah03"/>
      <point x="248" y="29" type="line" name="sh02"/>
    </contour>
  </outline>
</glyph>
<glyph name="digit:one.superior" format="2">
  <advance width="552"/>
  <unicode hex="00B9"/>
  <outline>
    <contour>
      <point x="366" y="1464" type="line" name="at01"/>
      <point x="366" y="586" type="line" name="dh02"/>
      <point x="282" y="586" type="line" name="dh01"/>
      <point x="282" y="1339" type="line"/>
      <point x="278" y="1339" type="line"/>
      <point x="161" y="1309" type="line"/>
      <point x="152" y="1381" type="line"/>
      <point x="341" y="1464" type="line"/>
    </contour>
  </outline>
</glyph>
<glyph name="questiondown" format="2">
  <advance width="768"/>
  <unicode hex="00BF"/>
  <outline>
    <contour>
      <point x="632" y="125" type="line" name="hr00"/>
      <point x="584" y="47"/>
      <point x="462" y="-30"/>
      <point x="392" y="-30" type="qcurve"/>
      <point x="347" y="-30"/>
      <point x="257" y="12" name="hr01"/>
      <point x="188" y="91"/>
      <point x="144" y="203"/>
      <point x="144" y="273" type="qcurve"/>
      <point x="144" y="339"/>
      <point x="169" y="436"/>
      <point x="216" y="516"/>
      <point x="286" y="591"/>
      <point x="330" y="635" type="qcurve"/>
      <point x="367" y="672"/>
      <point x="418" y="729"/>
      <point x="449" y="778"/>
      <point x="464" y="823"/>
      <point x="464" y="847" type="qcurve"/>
      <point x="464" y="878"/>
      <point x="451" y="923"/>
      <point x="431" y="953"/>
      <point x="404" y="967"/>
      <point x="392" y="967" type="qcurve"/>
      <point x="362" y="967"/>
      <point x="334" y="949"/>
      <point x="321" y="933" type="qcurve"/>
      <point x="266" y="1006" type="line"/>
      <point x="287" y="1032"/>
      <point x="356" y="1069"/>
      <point x="392" y="1069" type="qcurve"/>
      <point x="422" y="1069"/>
      <point x="481" y="1042"/>
      <point x="527" y="987"/>
      <point x="555" y="903"/>
      <point x="555" y="846" type="qcurve"/>
      <point x="555" y="802"/>
      <point x="529" y="717"/>
      <point x="484" y="635"/>
      <point x="424" y="558"/>
      <point x="390" y="522" type="qcurve"/>
      <point x="354" y="483"/>
      <point x="307" y="421"/>
      <point x="278" y="362"/>
      <point x="266" y="301"/>
      <point x="266" y="264" type="qcurve"/>
      <point x="266" y="216"/>
      <point x="287" y="144"/>
      <point x="323" y="96"/>
      <point x="368" y="72"/>
      <point x="392" y="72" type="qcurve"/>
      <point x="415" y="72"/>
      <point x="462" y="92"/>
      <point x="505" y="132"/>
      <point x="542" y="189"/>
      <point x="555" y="227" type="qcurve"/>
    </contour>
    <contour>
      <point x="296" y="1338" type="qcurve"/>
      <point x="296" y="1378"/>
      <point x="352" y="1434"/>
      <point x="392" y="1434" type="qcurve"/>
      <point x="432" y="1434"/>
      <point x="488" y="1378"/>
      <point x="488" y="1338" type="qcurve"/>
      <point x="488" y="1298"/>
      <point x="432" y="1242"/>
      <point x="392" y="1242" type="qcurve"/>
      <point x="352" y="1242"/>
      <point x="296" y="1298"/>
    </contour>
  </outline>
</glyph>
<glyph name="latn:Eth" format="2">
  <advance width="1128"/>
  <unicode hex="00D0"/>
  <outline>
    <contour>
      <point x="144" y="1434" type="line" name="hr00"/>
      <point x="464" y="1434" type="line"/>
      <point x="601" y="1434"/>
      <point x="818" y="1336"/>
      <point x="968" y="1151"/>
      <point x="1047" y="885"/>
      <point x="1047" y="717" type="qcurve"/>
      <point x="1047" y="619"/>
      <point x="1010" y="436"/>
      <point x="938" y="277"/>
      <point x="836" y="145"/>
      <point x="709" y="52"/>
      <point x="557" y="0"/>
      <point x="472" y="0" type="qcurve"/>
      <point x="144" y="0" type="line"/>
      <point x="144" y="707" type="line"/>
      <point x="41" y="707" type="line"/>
      <point x="57" y="829" type="line"/>
      <point x="144" y="829" type="line"/>
    </contour>
    <contour>
      <point x="281" y="122" type="line"/>
      <point x="450" y="122" type="line"/>
      <point x="559" y="122"/>
      <point x="728" y="210"/>
      <point x="843" y="368"/>
      <point x="903" y="586"/>
      <point x="903" y="717" type="qcurve"/>
      <point x="903" y="873"/>
      <point x="839" y="1097"/>
      <point x="720" y="1243"/>
      <point x="551" y="1312"/>
      <point x="445" y="1312" type="qcurve"/>
      <point x="281" y="1312" type="line"/>
      <point x="281" y="829" type="line"/>
      <point x="600" y="829" type="line"/>
      <point x="584" y="707" type="line"/>
      <point x="281" y="707" type="line"/>
    </contour>
  </outline>
</glyph>
<glyph name="latn:germandbls" format="2">
  <advance width="864"/>
  <unicode hex="00DF"/>
  <outline>
    <contour>
      <point x="107" y="1039" type="line" name="hr00"/>
      <point x="107" y="1153"/>
      <point x="161" y="1347"/>
      <point x="252" y="1487"/>
      <point x="372" y="1566"/>
      <point x="437" y="1566" type="qcurve"/>
      <point x="489" y="1566"/>
      <point x="572" y="1521" name="hr01"/>
      <point x="629" y="1448"/>
      <point x="660" y="1357"/>
      <point x="660" y="1311" type="qcurve"/>
      <point x="660" y="1256"/>
      <point x="635" y="1170" name="hr02"/>
      <point x="596" y="1100"/>
      <point x="551" y="1042"/>
      <point x="512" y="988"/>
      <point x="486" y="934"/>
      <point x="486" y="902" type="qcurve"/>
      <point x="486" y="860"/>
      <point x="534" y="792"/>
      <point x="605" y="724"/>
      <point x="689" y="651"/>
      <point x="761" y="557"/>
      <point x="809" y="437"/>
      <point x="809" y="356" type="qcurve"/>
      <point x="809" y="283"/>
      <point x="770" y="144"/>
      <point x="674" y="36"/>
      <point x="508" y="-30"/>
      <point x="381" y="-30" type="qcurve"/>
      <point x="395" y="72" type="line"/>
      <point x="535" y="72"/>
      <point x="687" y="217"/>
      <point x="687" y="352" type="qcurve"/>
      <point x="687" y="401"/>
      <point x="662" y="475"/>
      <point x="621" y="534"/>
      <point x="569" y="583"/>
      <point x="513" y="630"/>
      <point x="461" y="680"/>
      <point x="420" y="741"/>
      <point x="395" y="816"/>
      <point x="395" y="866" type="qcurve"/>
      <point x="395" y="907"/>
      <point x="418" y="977"/>
      <point x="454" y="1043"/>
      <point x="494" y="1107"/>
      <point x="530" y="1177"/>
      <point x="554" y="1255"/>
      <point x="554" y="1302" type="qcurve"/>
      <point x="554" y="1333"/>
      <point x="537" y="1392"/>
      <point x="506" y="1437"/>
      <point x="461" y="1464"/>
      <point x="433" y="1464" type="qcurve"/>
      <point x="393" y="1464"/>
      <point x="319" y="1407"/>
      <point x="262" y="1292"/>
      <point x="228" y="1118"/>
      <point x="228" y="1001" type="qcurve"/>
      <point x="228" y="0" type="line"/>
      <point x="107" y="0" type="line"/>
    </contour>
  </outline>
</glyph>
<glyph name="latn:ae" format="2">
  <advance width="1200"/>
  <unicode hex="00E6"/>
  <outline>
    <contour>
      <point x="644" y="487" type="line" name="sh01"/>
      <point x="644" y="373"/>
      <point x="682" y="215"/>
      <point x="747" y="116"/>
      <point x="832" y="72"/>
      <point x="878" y="72" type="qcurve" name="sv01"/>
      <point x="915" y="72"/>
      <point x="971" y="103" name="hr00"/>
      <point x="1014" y="149"/>
      <point x="1045" y="204"/>
      <point x="1055" y="227" type="qcurve" name="ih01"/>
      <point x="1131" y="125" type="line"/>
      <point x="1119" y="106"/>
      <point x="1075" y="53"/>
      <point x="1010" y="4"/>
      <point x="926" y="-30"/>
      <point x="875" y="-30" type="qcurve" name="ab01"/>
      <point x="661" y="-30"/>
      <point x="570" y="195" type="qcurve" name="av01"/>
      <point x="563" y="195" type="line"/>
      <point x="527" y="139"/>
      <point x="464" y="55"/>
      <point x="396" y="-2"/>
      <point x="317" y="-30"/>
      <point x="266" y="-30" type="qcurve" name="ab02"/>
      <point x="221" y="-30"/>
      <point x="148" y="10"/>
      <point x="97" y="83"/>
      <point x="69" y="184"/>
      <point x="69" y="245" type="qcurve" name="sh02"/>
      <point x="69" y="330"/>
      <point x="122" y="459"/>
      <point x="232" y="547"/>
      <point x="404" y="595"/>
      <point x="522" y="599" type="qcurve" name="dh01"/>
      <point x="522" y="667" type="line"/>
      <point x="522" y="727"/>
      <point x="497" y="816"/>
      <point x="455" y="874"/>
      <point x="401" y="902"/>
      <point x="371" y="902" type="qcurve" name="sv02"/>
      <point x="301" y="902"/>
      <point x="207" y="817"/>
      <point x="176" y="747" type="qcurve" name="ih02"/>
      <point x="99" y="849" type="line"/>
      <point x="153" y="928"/>
      <point x="284" y="1004"/>
      <point x="371" y="1004" type="qcurve" name="at01"/>
      <point x="406" y="1004"/>
      <point x="474" y="983"/>
      <point x="536" y="942"/>
      <point x="588" y="883"/>
      <point x="608" y="844" type="qcurve" name="ih03"/>
      <point x="655" y="920"/>
      <point x="773" y="1004"/>
      <point x="850" y="1004" type="qcurve" name="at02"/>
      <point x="913" y="1004"/>
      <point x="1023" y="944"/>
      <point x="1106" y="817"/>
      <point x="1154" y="622"/>
      <point x="1154" y="487" type="qcurve" name="dh04"/>
    </contour>
    <contour>
      <point x="522" y="537" type="line" name="sh04"/>
      <point x="432" y="534"/>
      <point x="306" y="490"/>
      <point x="227" y="417"/>
      <point x="191" y="316"/>
      <point x="191" y="256" type="qcurve" name="sh03"/>
      <point x="191" y="208"/>
      <point x="212" y="138"/>
      <point x="245" y="93"/>
      <point x="283" y="72"/>
      <point x="301" y="72" type="qcurve" name="sv03"/>
      <point x="338" y="72"/>
      <point x="400" y="93"/>
      <point x="453" y="133"/>
      <point x="500" y="194"/>
      <point x="522" y="233" type="qcurve"/>
    </contour>
    <contour>
      <point x="1040" y="589" type="line" name="dh03"/>
      <point x="1040" y="649"/>
      <point x="1015" y="762"/>
      <point x="966" y="849"/>
      <point x="893" y="902"/>
      <point x="844" y="902" type="qcurve" name="sv04"/>
      <point x="797" y="902"/>
      <point x="725" y="853"/>
      <point x="675" y="769"/>
      <point x="647" y="655"/>
      <point x="644" y="589" type="qcurve" name="dh02"/>
    </contour>
  </outline>
</glyph>
<glyph name="latn:ostroke" format="2">
  <advance width="840"/>
  <unicode hex="00F8"/>
  <outline>
    <contour>
      <point x="420" y="1004" type="qcurve" name="at01"/>
      <point x="456" y="1004"/>
      <point x="520" y="988"/>
      <point x="550" y="974" type="qcurve"/>
      <point x="595" y="1099" type="line" name="av01"/>
      <point x="672" y="1069" type="line"/>
      <point x="621" y="926" type="line"/>
      <point x="659" y="893"/>
      <point x="720" y="801"/>
      <point x="763" y="689"/>
      <point x="786" y="559"/>
      <point x="786" y="487" type="qcurve" name="sh01"/>
      <point x="786" y="376"/>
      <point x="732" y="186"/>
      <point x="635" y="48"/>
      <point x="500" y="-30"/>
      <point x="420" y="-30" type="qcurve" name="ab01"/>
      <point x="384" y="-30"/>
      <point x="320" y="-14"/>
      <point x="290" y="0" type="qcurve"/>
      <point x="245" y="-125" type="line" name="av02"/>
      <point x="168" y="-95" type="line"/>
      <point x="219" y="47" type="line"/>
      <point x="142" y="114"/>
      <point x="54" y="340"/>
      <point x="54" y="487" type="qcurve" name="sh02"/>
      <point x="54" y="598"/>
      <point x="108" y="788"/>
      <point x="206" y="926"/>
      <point x="340" y="1004"/>
    </contour>
    <contour>
      <point x="420" y="902" type="qcurve" name="sv01"/>
      <point x="367" y="902"/>
      <point x="279" y="837"/>
      <point x="217" y="724"/>
      <point x="183" y="573"/>
      <point x="183" y="487" type="qcurve" name="sh03"/>
      <point x="183" y="390"/>
      <point x="224" y="226"/>
      <point x="263" y="169" type="qcurve" name="ih01"/>
      <point x="514" y="872" type="line"/>
      <point x="492" y="886"/>
      <point x="446" y="902"/>
    </contour>
    <contour>
      <point x="420" y="72" type="qcurve" name="sv02"/>
      <point x="473" y="72"/>
      <point x="561" y="137"/>
      <point x="623" y="249"/>
      <point x="657" y="401"/>
      <point x="657" y="487" type="qcurve" name="ah01"/>
      <point x="657" y="584"/>
      <point x="616" y="747"/>
      <point x="578" y="804" type="qcurve" name="ih02"/>
      <point x="326" y="102" type="line"/>
      <point x="368" y="72"/>
    </contour>
  </outline>
</glyph>
<glyph name="latn:thorn" format="2">
  <advance width="840"/>
  <unicode hex="00FE"/>
  <outline>
    <contour>
      <point x="228" y="1464" type="line" name="hr00"/>
      <point x="228" y="894" type="line"/>
      <point x="245" y="916"/>
      <point x="293" y="956"/>
      <point x="348" y="986"/>
      <point x="407" y="1004"/>
      <point x="433" y="1004" type="qcurve"/>
      <point x="510" y="1004"/>
      <point x="638" y="927"/>
      <point x="728" y="789"/>
      <point x="779" y="599"/>
      <point x="779" y="487" type="qcurve"/>
      <point x="779" y="378"/>
      <point x="729" y="189"/>
      <point x="638" y="50"/>
      <point x="506" y="-30"/>
      <point x="424" y="-30" type="qcurve"/>
      <point x="395" y="-30"/>
      <point x="340" y="-13"/>
      <point x="289" y="15"/>
      <point x="245" y="52"/>
      <point x="228" y="72" type="qcurve"/>
      <point x="228" y="-460" type="line"/>
      <point x="129" y="-490" type="line"/>
      <point x="107" y="-490" type="line"/>
      <point x="107" y="1434" type="line"/>
      <point x="206" y="1464" type="line"/>
    </contour>
    <contour>
      <point x="416" y="72" type="qcurve"/>
      <point x="467" y="72"/>
      <point x="553" y="135"/>
      <point x="615" y="247"/>
      <point x="650" y="398"/>
      <point x="650" y="487" type="qcurve"/>
      <point x="650" y="578"/>
      <point x="613" y="731"/>
      <point x="549" y="841"/>
      <point x="464" y="902"/>
      <point x="416" y="902" type="qcurve"/>
      <point x="385" y="902"/>
      <point x="326" y="880"/>
      <point x="277" y="845"/>
      <point x="239" y="803"/>
      <point x="228" y="784" type="qcurve"/>
      <point x="228" y="190" type="line"/>
      <point x="239" y="172"/>
      <point x="276" y="131"/>
      <point x="325" y="95"/>
      <point x="383" y="72"/>
    </contour>
  </outline>
</glyph>
<glyph name="latn:Aogonek" format="2">
  <advance width="1008"/>
  <unicode hex="0104"/>
  <anchor x="500" y="1600" name="AccentAbove"/>
  <anchor x="750" y="1600" name="AccentAboveRight"/>
  <outline>
    <contour>
      <point x="985" y="-419" type="line" name="hr00"/>
      <point x="959" y="-432"/>
      <point x="901" y="-440"/>
      <point x="872" y="-440" type="qcurve" name="dv01"/>
      <point x="831" y="-440"/>
      <point x="757" y="-408"/>
      <point x="702" y="-353"/>
      <point x="670" y="-280"/>
      <point x="670" y="-239" type="qcurve" name="sh02"/>
      <point x="670" y="-209"/>
      <point x="688" y="-148"/>
      <point x="742" y="-83"/>
      <point x="786" y="-49" type="qcurve"/>
      <point x="799" y="-39"/>
      <point x="814" y="-29" type="qcurve" name="dh04"/>
      <point x="694" y="365" type="line" name="dv03"/>
      <point x="254" y="365" type="line"/>
      <point x="134" y="-30" type="line" name="dh02"/>
      <point x="44" y="0" type="line" name="dh01"/>
      <point x="488" y="1464" type="line" name="mh01"/>
      <point x="521" y="1464" type="line" name="ih02"/>
      <point x="964" y="0" type="line" name="dh03"/>
      <point x="908" y="-38"/>
      <point x="839" y="-94"/>
      <point x="801" y="-143"/>
      <point x="782" y="-191"/>
      <point x="782" y="-222" type="qcurve" name="sh01"/>
      <point x="782" y="-245"/>
      <point x="799" y="-284"/>
      <point x="827" y="-312"/>
      <point x="862" y="-328"/>
      <point x="880" y="-328" type="qcurve" name="dv02"/>
      <point x="895" y="-328"/>
      <point x="916" y="-326"/>
      <point x="935" y="-320"/>
      <point x="953" y="-310"/>
      <point x="964" y="-302" type="qcurve"/>
    </contour>
    <contour>
      <point x="470" y="1102" type="line" name="ih01"/>
      <point x="291" y="487" type="line"/>
      <point x="656" y="487" type="line" name="dv04"/>
      <point x="478" y="1102" type="line"/>
    </contour>
  </outline>
</glyph>
<glyph name="latn:aogonek" format="2">
  <advance width="840"/>
  <unicode hex="0105"/>
  <anchor x="420" y="1100" name="AccentAbove"/>
  <anchor x="670" y="1100" name="AccentAboveRight"/>
  <outline>
    <contour>
      <point x="773" y="-419" type="line" name="hr00"/>
      <point x="747" y="-432"/>
      <point x="689" y="-440"/>
      <point x="660" y="-440" type="qcurve" name="dv01"/>
      <point x="619" y="-440"/>
      <point x="545" y="-408"/>
      <point x="490" y="-353"/>
      <point x="458" y="-280"/>
      <point x="458" y="-239" type="qcurve" name="ah02"/>
      <point x="458" y="-209"/>
      <point x="476" y="-148"/>
      <point x="530" y="-83"/>
      <point x="574" y="-49" type="qcurve"/>
      <point x="612" y="-20"/>
      <point x="672" y="10" type="qcurve" name="ih01"/>
      <point x="664" y="19"/>
      <point x="657" y="28" type="qcurve"/>
      <point x="639" y="54"/>
      <point x="618" y="115"/>
      <point x="614" y="142" type="qcurve"/>
      <point x="606" y="142" type="line" name="dh01"/>
      <point x="588" y="115"/>
      <point x="531" y="55"/>
      <point x="458" y="4"/>
      <point x="372" y="-30"/>
      <point x="326" y="-30" type="qcurve" name="ab01"/>
      <point x="278" y="-30"/>
      <point x="194" y="4"/>
      <point x="130" y="69"/>
      <point x="93" y="164"/>
      <point x="93" y="225" type="qcurve" name="sh01"/>
      <point x="93" y="313"/>
      <point x="164" y="449"/>
      <point x="296" y="541"/>
      <point x="487" y="589"/>
      <point x="606" y="589" type="qcurve" name="sh02"/>
      <point x="606" y="637" type="line"/>
      <point x="606" y="716"/>
      <point x="572" y="819"/>
      <point x="518" y="879"/>
      <point x="454" y="902"/>
      <point x="424" y="902" type="qcurve" name="sv01"/>
      <point x="394" y="902"/>
      <point x="330" y="879"/>
      <point x="269" y="839"/>
      <point x="213" y="781"/>
      <point x="191" y="747" type="qcurve" name="ih02"/>
      <point x="115" y="849" type="line"/>
      <point x="176" y="925"/>
      <point x="338" y="1004"/>
      <point x="424" y="1004" type="qcurve" name="at01"/>
      <point x="480" y="1004"/>
      <point x="589" y="960"/>
      <point x="674" y="862"/>
      <point x="728" y="708"/>
      <point x="728" y="597" type="qcurve"/>
      <point x="728" y="174" type="line" name="dh02"/>
      <point x="728" y="72"/>
      <point x="786" y="72" type="qcurve" name="ah01"/>
      <point x="773" y="-30" type="line" name="ab02"/>
      <point x="743" y="-30"/>
      <point x="720" y="-21" type="qcurve" name="ab03"/>
      <point x="685" y="-46"/>
      <point x="661" y="-66" type="qcurve"/>
      <point x="627" y="-94"/>
      <point x="589" y="-143"/>
      <point x="570" y="-191"/>
      <point x="570" y="-222" type="qcurve" name="sh04"/>
      <point x="570" y="-245"/>
      <point x="587" y="-284"/>
      <point x="615" y="-312"/>
      <point x="650" y="-328"/>
      <point x="668" y="-328" type="qcurve" name="dv02"/>
      <point x="683" y="-328"/>
      <point x="704" y="-326"/>
      <point x="723" y="-320"/>
      <point x="741" y="-310"/>
      <point x="752" y="-302" type="qcurve" name="sh05"/>
    </contour>
    <contour>
      <point x="606" y="507" type="line" name="sh06"/>
      <point x="572" y="507"/>
      <point x="488" y="501"/>
      <point x="401" y="482"/>
      <point x="319" y="447"/>
      <point x="254" y="389"/>
      <point x="215" y="305"/>
      <point x="215" y="246" type="qcurve" name="sh03"/>
      <point x="215" y="164"/>
      <point x="288" y="72"/>
      <point x="354" y="72" type="qcurve" name="sv02"/>
      <point x="392" y="72"/>
      <point x="464" y="104"/>
      <point x="529" y="157"/>
      <point x="584" y="226"/>
      <point x="606" y="263" type="qcurve"/>
    </contour>
  </outline>
</glyph>
<glyph name="dcroat" format="2">
  <advance width="840"/>
  <unicode hex="0111"/>
  <outline>
    <contour>
      <point x="614" y="1464" type="line" name="hr00"/>
      <point x="713" y="1494" type="line"/>
      <point x="735" y="1494" type="line"/>
      <point x="735" y="1292" type="line"/>
      <point x="840" y="1292" type="line"/>
      <point x="823" y="1160" type="line"/>
      <point x="735" y="1166" type="line"/>
      <point x="735" y="179" type="line"/>
      <point x="735" y="125"/>
      <point x="762" y="72"/>
      <point x="794" y="72" type="qcurve"/>
      <point x="780" y="-30" type="line"/>
      <point x="737" y="-30"/>
      <point x="678" y="7"/>
      <point x="642" y="60"/>
      <point x="624" y="119"/>
      <point x="621" y="142" type="qcurve"/>
      <point x="614" y="142" type="line"/>
      <point x="599" y="114"/>
      <point x="558" y="54"/>
      <point x="503" y="3"/>
      <point x="432" y="-30"/>
      <point x="386" y="-30" type="qcurve"/>
      <point x="323" y="-30"/>
      <point x="206" y="40"/>
      <point x="116" y="172"/>
      <point x="62" y="365"/>
      <point x="62" y="488" type="qcurve"/>
      <point x="62" y="594"/>
      <point x="115" y="782"/>
      <point x="206" y="922"/>
      <point x="326" y="1004"/>
      <point x="393" y="1004" type="qcurve"/>
      <point x="426" y="1004"/>
      <point x="488" y="986"/>
      <point x="543" y="957"/>
      <point x="589" y="921"/>
      <point x="606" y="902" type="qcurve"/>
      <point x="614" y="902" type="line"/>
      <point x="614" y="1175" type="line"/>
      <point x="414" y="1190" type="line"/>
      <point x="428" y="1292" type="line"/>
      <point x="614" y="1292" type="line"/>
    </contour>
    <contour>
      <point x="614" y="785" type="line"/>
      <point x="599" y="806"/>
      <point x="560" y="848"/>
      <point x="511" y="881"/>
      <point x="451" y="902"/>
      <point x="416" y="902" type="qcurve"/>
      <point x="369" y="902"/>
      <point x="287" y="844"/>
      <point x="226" y="736"/>
      <point x="191" y="583"/>
      <point x="191" y="489" type="qcurve"/>
      <point x="191" y="375"/>
      <point x="230" y="217"/>
      <point x="292" y="117"/>
      <point x="370" y="72"/>
      <point x="409" y="72" type="qcurve"/>
      <point x="444" y="72"/>
      <point x="505" y="105"/>
      <point x="557" y="158"/>
      <point x="598" y="227"/>
      <point x="614" y="263" type="qcurve"/>
    </contour>
  </outline>
</glyph>
<glyph name="eogonek" format="2">
  <advance width="768"/>
  <unicode hex="0119"/>
  <anchor x="400" y="1100" name="AccentAbove"/>
  <anchor x="650" y="1100" name="AccentAboveRight"/>
  <outline>
    <contour>
      <point x="575" y="-419" type="line" name="hr00"/>
      <point x="549" y="-432"/>
      <point x="491" y="-440"/>
      <point x="462" y="-440" type="qcurve" name="dv01"/>
      <point x="421" y="-440"/>
      <point x="347" y="-408"/>
      <point x="292" y="-353"/>
      <point x="260" y="-280"/>
      <point x="260" y="-239" type="qcurve" name="dh01"/>
      <point x="260" y="-209" name="hr01"/>
      <point x="278" y="-148"/>
      <point x="332" y="-83"/>
      <point x="376" y="-49" type="qcurve"/>
      <point x="389" y="-39"/>
      <point x="405" y="-29" type="qcurve" name="ih01"/>
      <point x="330" y="-23"/>
      <point x="271" y="8" type="qcurve"/>
      <point x="199" y="47"/>
      <point x="103" y="188"/>
      <point x="54" y="386"/>
      <point x="54" y="507" type="qcurve" name="sh01"/>
      <point x="54" y="617"/>
      <point x="110" y="800"/>
      <point x="206" y="931"/>
      <point x="332" y="1004"/>
      <point x="403" y="1004" type="qcurve" name="at01"/>
      <point x="466" y="1004"/>
      <point x="581" y="944"/>
      <point x="669" y="817"/>
      <point x="722" y="622"/>
      <point x="722" y="487" type="qcurve" name="dh04"/>
      <point x="183" y="487" type="line" name="sh02"/>
      <point x="183" y="373"/>
      <point x="226" y="215"/>
      <point x="296" y="116"/>
      <point x="385" y="72"/>
      <point x="431" y="72" type="qcurve" name="dv02"/>
      <point x="467" y="72"/>
      <point x="529" y="103"/>
      <point x="577" y="149"/>
      <point x="613" y="204"/>
      <point x="623" y="227" type="qcurve"/>
      <point x="699" y="125" type="line" name="sh03"/>
      <point x="683" y="99"/>
      <point x="608" y="26"/>
      <point x="554" y="0" type="qcurve"/>
      <point x="498" y="-38"/>
      <point x="429" y="-94"/>
      <point x="391" y="-143"/>
      <point x="372" y="-191"/>
      <point x="372" y="-222" type="qcurve" name="dh02"/>
      <point x="372" y="-245"/>
      <point x="389" y="-284"/>
      <point x="417" y="-312"/>
      <point x="452" y="-328"/>
      <point x="470" y="-328" type="qcurve" name="sv01"/>
      <point x="485" y="-328"/>
      <point x="506" y="-326"/>
      <point x="525" y="-320"/>
      <point x="543" y="-310"/>
      <point x="554" y="-302" type="qcurve" name="ih02"/>
    </contour>
    <contour>
      <point x="608" y="589" type="line" name="dh03"/>
      <point x="608" y="649"/>
      <point x="578" y="762"/>
      <point x="524" y="849"/>
      <point x="446" y="902"/>
      <point x="397" y="902" type="qcurve" name="sv02"/>
      <point x="350" y="902"/>
      <point x="275" y="853"/>
      <point x="219" y="769"/>
      <point x="186" y="655"/>
      <point x="183" y="589" type="qcurve" name="sh04"/>
    </contour>
  </outline>
</glyph>
<glyph name="latn:Iogonek" format="2">
  <advance width="432"/>
  <unicode hex="012E"/>
  <anchor x="220" y="1600" name="AccentAbove"/>
  <anchor x="270" y="1600" name="AccentAboveRight"/>
  <outline>
    <contour>
      <point x="305" y="-419" type="line" name="sh03"/>
      <point x="279" y="-432"/>
      <point x="221" y="-440"/>
      <point x="192" y="-440" type="qcurve" name="av01"/>
      <point x="151" y="-440"/>
      <point x="77" y="-408"/>
      <point x="22" y="-353"/>
      <point x="-10" y="-280"/>
      <point x="-10" y="-239" type="qcurve" name="sh04"/>
      <point x="-10" y="-209"/>
      <point x="8" y="-148"/>
      <point x="62" y="-83"/>
      <point x="106" y="-49" type="qcurve"/>
      <point x="137" y="-25"/>
      <point x="185" y="0" type="qcurve" name="ab01"/>
      <point x="148" y="0" type="line" name="sh01"/>
      <point x="148" y="1434" type="line"/>
      <point x="284" y="1464" type="line" name="at01"/>
      <point x="284" y="0" type="line" name="sh02"/>
      <point x="228" y="-38"/>
      <point x="159" y="-94"/>
      <point x="121" y="-143"/>
      <point x="102" y="-191"/>
      <point x="102" y="-222" type="qcurve" name="sh05"/>
      <point x="102" y="-245"/>
      <point x="119" y="-284"/>
      <point x="147" y="-312"/>
      <point x="182" y="-328"/>
      <point x="200" y="-328" type="qcurve" name="sv01"/>
      <point x="215" y="-328"/>
      <point x="236" y="-326"/>
      <point x="255" y="-320"/>
      <point x="273" y="-310"/>
      <point x="284" y="-302" type="qcurve"/>
    </contour>
  </outline>
</glyph>
<glyph name="latn:idotless" format="2">
  <advance width="432"/>
  <unicode hex="0131"/>
  <anchor x="220" y="1100" name="AccentAbove"/>
  <anchor x="270" y="1200" name="AccentAboveRight"/>
  <anchor x="218" y="0" name="AccentAttachedBelow"/>
  <anchor x="220" y="0" name="AccentBelow"/>
  <anchor x="120" y="486" name="AccentOverlay"/>
  <outline>
    <contour>
      <point x="155" y="0" type="line" name="hr00"/>
      <point x="155" y="974" type="line"/>
      <point x="254" y="1004" type="line"/>
      <point x="277" y="1004" type="line"/>
      <point x="277" y="0" type="line"/>
    </contour>
  </outline>
</glyph>
<glyph name="latn:kra" format="2">
  <advance width="768"/>
  <unicode hex="0138"/>
  <outline>
    <contour>
      <point x="757" y="0" type="line" name="hr00"/>
      <point x="619" y="-30" type="line"/>
      <point x="308" y="477" type="line"/>
      <point x="300" y="477" type="line"/>
      <point x="236" y="390" type="line"/>
      <point x="236" y="0" type="line"/>
      <point x="114" y="0" type="line"/>
      <point x="114" y="974" type="line"/>
      <point x="213" y="1004" type="line"/>
      <point x="236" y="1004" type="line"/>
      <point x="236" y="546" type="line"/>
      <point x="243" y="546" type="line"/>
      <point x="579" y="1004" type="line"/>
      <point x="674" y="974" type="line"/>
      <point x="371" y="571" type="line"/>
    </contour>
  </outline>
</glyph>
<glyph name="Lslash" format="2">
  <advance width="816"/>
  <unicode hex="0141"/>
  <outline>
    <contour>
      <point x="273" y="1464" type="line" name="sh01"/>
      <point x="273" y="867" type="line"/>
      <point x="420" y="1004" type="line" name="at01"/>
      <point x="435" y="896" type="line" name="sv01"/>
      <point x="273" y="745" type="line"/>
      <point x="273" y="122" type="line" name="dh02"/>
      <point x="758" y="142" type="line"/>
      <point x="739" y="0" type="line"/>
      <point x="137" y="0" type="line" name="dh01"/>
      <point x="137" y="618" type="line"/>
      <point x="15" y="505" type="line" name="sv02"/>
      <point x="1" y="613" type="line" name="av01"/>
      <point x="137" y="739" type="line" name="sh02"/>
      <point x="137" y="1434" type="line"/>
    </contour>
  </outline>
</glyph>
<glyph name="lslash" format="2">
  <advance width="432"/>
  <unicode hex="0142"/>
  <outline>
    <contour>
      <point x="155" y="1464" type="line" name="dh01"/>
      <point x="254" y="1494" type="line" name="av01"/>
      <point x="277" y="1494" type="line" name="dh02"/>
      <point x="277" y="898" type="line" name="iv01"/>
      <point x="374" y="1004" type="line" name="iv02"/>
      <point x="390" y="880" type="line"/>
      <point x="277" y="756" type="line" name="sh01"/>
      <point x="277" y="293" type="line"/>
      <point x="277" y="226"/>
      <point x="300" y="140"/>
      <point x="336" y="91"/>
      <point x="379" y="72"/>
      <point x="398" y="72" type="qcurve"/>
      <point x="384" y="-30" type="line" name="ab01"/>
      <point x="341" y="-30"/>
      <point x="259" y="0"/>
      <point x="194" y="75"/>
      <point x="155" y="202"/>
      <point x="155" y="300" type="qcurve" name="sh02"/>
      <point x="155" y="624" type="line" name="iv03"/>
      <point x="53" y="512" type="line" name="iv04"/>
      <point x="36" y="636" type="line"/>
      <point x="155" y="766" type="line"/>
    </contour>
  </outline>
</glyph>
<glyph name="Eng" format="2">
  <advance width="1128"/>
  <unicode hex="014A"/>
  <outline>
    <contour>
      <point x="221" y="1464" type="line" name="hr00"/>
      <point x="900" y="306" type="line"/>
      <point x="908" y="306" type="line"/>
      <point x="908" y="1464" type="line"/>
      <point x="999" y="1434" type="line"/>
      <point x="999" y="-77" type="line"/>
      <point x="999" y="-196"/>
      <point x="962" y="-354"/>
      <point x="894" y="-450"/>
      <point x="795" y="-490"/>
      <point x="733" y="-490" type="qcurve"/>
      <point x="746" y="-388" type="line" name="hr01"/>
      <point x="773" y="-388"/>
      <point x="821" y="-365"/>
      <point x="857" y="-310"/>
      <point x="878" y="-220"/>
      <point x="878" y="-152" type="qcurve"/>
      <point x="878" y="51" type="line"/>
      <point x="228" y="1159" type="line"/>
      <point x="221" y="1159" type="line"/>
      <point x="221" y="0" type="line"/>
      <point x="129" y="0" type="line"/>
      <point x="129" y="1434" type="line"/>
    </contour>
  </outline>
</glyph>
<glyph name="latn:Scedilla" format="2">
  <advance width="864"/>
  <unicode hex="015E"/>
  <outline>
    <contour>
      <point x="674" y="1113" type="line" name="hr00"/>
      <point x="656" y="1159"/>
      <point x="608" y="1242"/>
      <point x="551" y="1305"/>
      <point x="483" y="1342"/>
      <point x="446" y="1342" type="qcurve"/>
      <point x="410" y="1342"/>
      <point x="348" y="1308"/>
      <point x="302" y="1249"/>
      <point x="277" y="1170"/>
      <point x="277" y="1126" type="qcurve"/>
      <point x="277" y="1078"/>
      <point x="298" y="1000"/>
      <point x="347" y="934"/>
      <point x="425" y="876"/>
      <point x="482" y="848" type="qcurve"/>
      <point x="635" y="774"/>
      <point x="789" y="555"/>
      <point x="789" y="398" type="qcurve" name="hr01"/>
      <point x="789" y="311"/>
      <point x="737" y="164"/>
      <point x="650" y="53"/>
      <point x="594" y="17" type="qcurve"/>
      <point x="547" y="-12"/>
      <point x="497" y="-26" type="qcurve"/>
      <point x="467" y="-110" type="line"/>
      <point x="496" y="-110"/>
      <point x="552" y="-135"/>
      <point x="597" y="-182"/>
      <point x="624" y="-250"/>
      <point x="624" y="-293" type="qcurve"/>
      <point x="624" y="-344"/>
      <point x="586" y="-418"/>
      <point x="524" y="-466"/>
      <point x="448" y="-490"/>
      <point x="411" y="-490" type="qcurve"/>
      <point x="376" y="-490"/>
      <point x="317" y="-476"/>
      <point x="271" y="-456"/>
      <point x="239" y="-433"/>
      <point x="230" y="-423" type="qcurve"/>
      <point x="284" y="-347" type="line"/>
      <point x="287" y="-352"/>
      <point x="305" y="-372"/>
      <point x="333" y="-393"/>
      <point x="370" y="-408"/>
      <point x="392" y="-408" type="qcurve"/>
      <point x="415" y="-408"/>
      <point x="455" y="-391"/>
      <point x="485" y="-361"/>
      <point x="502" y="-321"/>
      <point x="502" y="-298" type="qcurve"/>
      <point x="502" y="-276"/>
      <point x="485" y="-236"/>
      <point x="455" y="-207"/>
      <point x="415" y="-190"/>
      <point x="392" y="-190" type="qcurve"/>
      <point x="371" y="-190"/>
      <point x="345" y="-194"/>
      <point x="327" y="-199"/>
      <point x="315" y="-204"/>
      <point x="309" y="-206" type="qcurve"/>
      <point x="374" y="-27" type="line"/>
      <point x="332" y="-17"/>
      <point x="296" y="-2" type="qcurve"/>
      <point x="254" y="15"/>
      <point x="179" y="71"/>
      <point x="110" y="150"/>
      <point x="75" y="204" type="qcurve"/>
      <point x="163" y="322" type="line"/>
      <point x="180" y="283"/>
      <point x="228" y="202"/>
      <point x="293" y="135"/>
      <point x="374" y="92"/>
      <point x="425" y="92" type="qcurve"/>
      <point x="476" y="92"/>
      <point x="557" y="139"/>
      <point x="614" y="213"/>
      <point x="645" y="305"/>
      <point x="645" y="351" type="qcurve"/>
      <point x="645" y="409"/>
      <point x="620" y="496"/>
      <point x="563" y="566"/>
      <point x="473" y="626"/>
      <point x="408" y="658" type="qcurve"/>
      <point x="345" y="689"/>
      <point x="245" y="772"/>
      <point x="177" y="879"/>
      <point x="140" y="1014"/>
      <point x="140" y="1097" type="qcurve"/>
      <point x="140" y="1173"/>
      <point x="188" y="1307"/>
      <point x="269" y="1407"/>
      <point x="377" y="1464"/>
      <point x="440" y="1464" type="qcurve"/>
      <point x="500" y="1464"/>
      <point x="602" y="1420"/>
      <point x="683" y="1351"/>
      <point x="743" y="1268"/>
      <point x="762" y="1230" type="qcurve"/>
    </contour>
  </outline>
</glyph>
<glyph name="latn:Tcedilla" format="2">
  <advance width="864"/>
  <unicode hex="0162"/>
  <outline>
    <contour>
      <point x="500" y="0" type="line" name="hr00"/>
      <point x="461" y="-110" type="line"/>
      <point x="490" y="-110"/>
      <point x="546" y="-135"/>
      <point x="591" y="-182"/>
      <point x="618" y="-250"/>
      <point x="618" y="-293" type="qcurve"/>
      <point x="618" y="-344"/>
      <point x="580" y="-418"/>
      <point x="518" y="-466"/>
      <point x="442" y="-490" name="hr01"/>
      <point x="405" y="-490" type="qcurve"/>
      <point x="370" y="-490"/>
      <point x="311" y="-476"/>
      <point x="265" y="-456"/>
      <point x="233" y="-433"/>
      <point x="224" y="-423" type="qcurve"/>
      <point x="278" y="-347" type="line" name="hr02"/>
      <point x="281" y="-352"/>
      <point x="299" y="-372"/>
      <point x="327" y="-393"/>
      <point x="364" y="-408"/>
      <point x="386" y="-408" type="qcurve"/>
      <point x="409" y="-408"/>
      <point x="449" y="-391"/>
      <point x="479" y="-361"/>
      <point x="496" y="-321"/>
      <point x="496" y="-298" type="qcurve"/>
      <point x="496" y="-276"/>
      <point x="479" y="-236"/>
      <point x="449" y="-207"/>
      <point x="409" y="-190"/>
      <point x="386" y="-190" type="qcurve"/>
      <point x="365" y="-190"/>
      <point x="339" y="-194"/>
      <point x="321" y="-199"/>
      <point x="309" y="-204"/>
      <point x="303" y="-206" type="qcurve"/>
      <point x="378" y="0" type="line"/>
      <point x="364" y="0" type="line"/>
      <point x="364" y="1312" type="line"/>
      <point x="24" y="1292" type="line"/>
      <point x="43" y="1434" type="line"/>
      <point x="840" y="1434" type="line"/>
      <point x="821" y="1292" type="line"/>
      <point x="500" y="1312" type="line"/>
    </contour>
  </outline>
</glyph>
<glyph name="latn:Tstroke" format="2">
  <advance width="864"/>
  <unicode hex="0166"/>
  <outline>
    <contour>
      <point x="50" y="1434" type="line" name="hr00"/>
      <point x="833" y="1434" type="line"/>
      <point x="814" y="1292" type="line"/>
      <point x="508" y="1332" type="line"/>
      <point x="500" y="1332" type="line"/>
      <point x="500" y="829" type="line"/>
      <point x="702" y="829" type="line"/>
      <point x="686" y="707" type="line"/>
      <point x="500" y="707" type="line"/>
      <point x="500" y="0" type="line"/>
      <point x="364" y="0" type="line"/>
      <point x="364" y="707" type="line"/>
      <point x="162" y="707" type="line"/>
      <point x="178" y="829" type="line"/>
      <point x="364" y="829" type="line"/>
      <point x="364" y="1332" type="line"/>
      <point x="356" y="1332" type="line"/>
      <point x="32" y="1292" type="line"/>
    </contour>
  </outline>
</glyph>
<glyph name="latn:tstroke" format="2">
  <advance width="552"/>
  <unicode hex="0167"/>
  <outline>
    <contour>
      <point x="310" y="1322" type="line" name="hr00"/>
      <point x="310" y="1004" type="line"/>
      <point x="488" y="1004" type="line"/>
      <point x="470" y="872" type="line"/>
      <point x="310" y="886" type="line"/>
      <point x="310" y="588" type="line"/>
      <point x="488" y="588" type="line"/>
      <point x="474" y="486" type="line"/>
      <point x="310" y="486" type="line"/>
      <point x="310" y="297" type="line"/>
      <point x="310" y="240"/>
      <point x="323" y="155"/>
      <point x="359" y="99"/>
      <point x="422" y="72"/>
      <point x="472" y="72" type="qcurve"/>
      <point x="458" y="-30" type="line"/>
      <point x="378" y="-30"/>
      <point x="274" y="8"/>
      <point x="213" y="92"/>
      <point x="188" y="228"/>
      <point x="188" y="326" type="qcurve"/>
      <point x="188" y="486" type="line"/>
      <point x="62" y="486" type="line"/>
      <point x="75" y="588" type="line"/>
      <point x="188" y="588" type="line"/>
      <point x="188" y="893" type="line"/>
      <point x="62" y="902" type="line"/>
      <point x="75" y="1004" type="line"/>
      <point x="188" y="1004" type="line"/>
      <point x="188" y="1292" type="line"/>
      <point x="287" y="1322" type="line"/>
    </contour>
  </outline>
</glyph>
<glyph name="latn:uogonek" format="2">
  <advance width="840"/>
  <unicode hex="0173"/>
  <anchor x="450" y="1100" name="AccentAbove"/>
  <anchor x="700" y="1100" name="AccentAboveRight"/>
  <outline>
    <contour>
      <point x="797" y="-419" type="line" name="hr00"/>
      <point x="771" y="-432"/>
      <point x="713" y="-440"/>
      <point x="684" y="-440" type="qcurve" name="dv01"/>
      <point x="643" y="-440"/>
      <point x="569" y="-408"/>
      <point x="514" y="-353"/>
      <point x="482" y="-280"/>
      <point x="482" y="-239" type="qcurve" name="sh01"/>
      <point x="482" y="-209"/>
      <point x="500" y="-148"/>
      <point x="554" y="-83"/>
      <point x="598" y="-49" type="qcurve"/>
      <point x="630" y="-24"/>
      <point x="680" y="2" type="qcurve" name="iv01"/>
      <point x="652" y="25"/>
      <point x="637" y="62" type="qcurve"/>
      <point x="621" y="103"/>
      <point x="614" y="142" type="qcurve"/>
      <point x="606" y="142" type="line"/>
      <point x="593" y="116"/>
      <point x="549" y="56"/>
      <point x="486" y="4"/>
      <point x="407" y="-30"/>
      <point x="359" y="-30" type="qcurve" name="ab01"/>
      <point x="313" y="-30"/>
      <point x="225" y="4"/>
      <point x="156" y="79"/>
      <point x="114" y="197"/>
      <point x="114" y="280" type="qcurve" name="sh02"/>
      <point x="114" y="974" type="line"/>
      <point x="213" y="1004" type="line" name="at01"/>
      <point x="236" y="1004" type="line"/>
      <point x="236" y="305" type="line" name="sh03"/>
      <point x="236" y="240"/>
      <point x="261" y="151"/>
      <point x="303" y="96"/>
      <point x="356" y="72"/>
      <point x="384" y="72" type="qcurve" name="sv01"/>
      <point x="425" y="72"/>
      <point x="493" y="107"/>
      <point x="548" y="163"/>
      <point x="590" y="230"/>
      <point x="606" y="263" type="qcurve" name="sh05"/>
      <point x="606" y="974" type="line"/>
      <point x="705" y="1004" type="line" name="at02"/>
      <point x="728" y="1004" type="line"/>
      <point x="728" y="189" type="line" name="sh04"/>
      <point x="728" y="123"/>
      <point x="756" y="72"/>
      <point x="786" y="72" type="qcurve" name="sv02"/>
      <point x="773" y="-30" type="line" name="ab02"/>
      <point x="764" y="-30"/>
      <point x="751" y="-29"/>
      <point x="737" y="-26" type="qcurve" name="ab03"/>
      <point x="707" y="-48"/>
      <point x="685" y="-66" type="qcurve"/>
      <point x="651" y="-94"/>
      <point x="613" y="-143"/>
      <point x="594" y="-191"/>
      <point x="594" y="-222" type="qcurve" name="ah01"/>
      <point x="594" y="-245"/>
      <point x="611" y="-284"/>
      <point x="639" y="-312"/>
      <point x="674" y="-328"/>
      <point x="692" y="-328" type="qcurve" name="dv02"/>
      <point x="707" y="-328"/>
      <point x="728" y="-326"/>
      <point x="747" y="-320"/>
      <point x="765" y="-310"/>
      <point x="776" y="-302" type="qcurve"/>
    </contour>
  </outline>
</glyph>
<glyph name="latn:nlongrightleg" format="2">
  <advance width="840"/>
  <unicode hex="019E"/>
  <outline>
    <contour>
      <point x="728" y="-460" type="line" name="hr00"/>
      <point x="629" y="-490" type="line"/>
      <point x="606" y="-490" type="line"/>
      <point x="606" y="687" type="line"/>
      <point x="606" y="790" name="hr01"/>
      <point x="533" y="902"/>
      <point x="464" y="902" type="qcurve"/>
      <point x="394" y="902"/>
      <point x="284" y="797"/>
      <point x="236" y="697" type="qcurve"/>
      <point x="236" y="0" type="line" name="hr02"/>
      <point x="114" y="0" type="line"/>
      <point x="114" y="944" type="line"/>
      <point x="213" y="974" type="line"/>
      <point x="236" y="974" type="line"/>
      <point x="236" y="837" type="line"/>
      <point x="243" y="837" type="line"/>
      <point x="296" y="925"/>
      <point x="413" y="1004"/>
      <point x="482" y="1004" type="qcurve"/>
      <point x="536" y="1004"/>
      <point x="626" y="963"/>
      <point x="692" y="887"/>
      <point x="728" y="776"/>
      <point x="728" y="707" type="qcurve"/>
    </contour>
  </outline>
</glyph>
<glyph name="latn:oopen" format="2">
  <advance width="768"/>
  <unicode hex="0254"/>
  <outline>
    <contour>
      <point x="62" y="849" type="line" name="hr00"/>
      <point x="80" y="877"/>
      <point x="134" y="932"/>
      <point x="203" y="976"/>
      <point x="286" y="1004"/>
      <point x="333" y="1004" type="qcurve"/>
      <point x="413" y="1004"/>
      <point x="549" y="926"/>
      <point x="650" y="788"/>
      <point x="707" y="598"/>
      <point x="707" y="487" type="qcurve"/>
      <point x="707" y="376"/>
      <point x="650" y="186"/>
      <point x="550" y="48"/>
      <point x="413" y="-30"/>
      <point x="333" y="-30" type="qcurve"/>
      <point x="286" y="-30"/>
      <point x="203" y="-3"/>
      <point x="134" y="40"/>
      <point x="80" y="96"/>
      <point x="62" y="125" type="qcurve"/>
      <point x="138" y="227" type="line"/>
      <point x="148" y="206"/>
      <point x="183" y="152"/>
      <point x="232" y="105"/>
      <point x="295" y="72"/>
      <point x="333" y="72" type="qcurve"/>
      <point x="387" y="72"/>
      <point x="476" y="137"/>
      <point x="542" y="249"/>
      <point x="578" y="400"/>
      <point x="578" y="487" type="qcurve"/>
      <point x="578" y="573"/>
      <point x="542" y="724"/>
      <point x="476" y="837"/>
      <point x="386" y="902"/>
      <point x="333" y="902" type="qcurve"/>
      <point x="295" y="902"/>
      <point x="232" y="869"/>
      <point x="183" y="822"/>
      <point x="148" y="768"/>
      <point x="138" y="747" type="qcurve"/>
    </contour>
  </outline>
</glyph>
<glyph name="latn:ereversed" format="2">
  <advance width="768"/>
  <unicode hex="0258"/>
  <outline>
    <contour>
      <point x="54" y="487" type="line" name="hr00"/>
      <point x="54" y="622"/>
      <point x="107" y="817"/>
      <point x="195" y="944"/>
      <point x="310" y="1004"/>
      <point x="373" y="1004" type="qcurve"/>
      <point x="443" y="1004"/>
      <point x="570" y="931"/>
      <point x="666" y="800"/>
      <point x="722" y="617"/>
      <point x="722" y="507" type="qcurve"/>
      <point x="722" y="375"/>
      <point x="667" y="174"/>
      <point x="569" y="39"/>
      <point x="431" y="-30"/>
      <point x="348" y="-30" type="qcurve"/>
      <point x="296" y="-30"/>
      <point x="208" y="4"/>
      <point x="138" y="53"/>
      <point x="89" y="106"/>
      <point x="77" y="125" type="qcurve"/>
      <point x="152" y="227" type="line"/>
      <point x="163" y="204"/>
      <point x="199" y="149"/>
      <point x="247" y="103"/>
      <point x="308" y="72"/>
      <point x="344" y="72" type="qcurve"/>
      <point x="391" y="72"/>
      <point x="480" y="116"/>
      <point x="550" y="215"/>
      <point x="593" y="373"/>
      <point x="593" y="487" type="qcurve"/>
    </contour>
    <contour>
      <point x="593" y="589" type="line"/>
      <point x="590" y="655"/>
      <point x="557" y="769"/>
      <point x="501" y="853"/>
      <point x="425" y="902"/>
      <point x="379" y="902" type="qcurve"/>
      <point x="330" y="902"/>
      <point x="252" y="849"/>
      <point x="197" y="762"/>
      <point x="168" y="649"/>
      <point x="168" y="589" type="qcurve"/>
    </contour>
  </outline>
</glyph>
<glyph name="uni025D" format="2">
  <advance width="936"/>
  <unicode hex="025D"/>
  <outline>
    <contour>
      <point x="297" y="589" type="line" name="hr00"/>
      <point x="320" y="589"/>
      <point x="365" y="613"/>
      <point x="402" y="659"/>
      <point x="425" y="725"/>
      <point x="425" y="768" type="qcurve"/>
      <point x="425" y="800"/>
      <point x="410" y="850"/>
      <point x="383" y="884"/>
      <point x="347" y="902"/>
      <point x="326" y="902" type="qcurve"/>
      <point x="298" y="902"/>
      <point x="248" y="877"/>
      <point x="206" y="834"/>
      <point x="173" y="778"/>
      <point x="161" y="747" type="qcurve" name="hr01"/>
      <point x="85" y="849" type="line"/>
      <point x="106" y="882"/>
      <point x="159" y="938"/>
      <point x="221" y="980"/>
      <point x="290" y="1004" name="hr02"/>
      <point x="326" y="1004" type="qcurve"/>
      <point x="361" y="1004"/>
      <point x="425" y="986"/>
      <point x="476" y="950"/>
      <point x="514" y="894"/>
      <point x="523" y="855" type="qcurve"/>
      <point x="683" y="1004" type="line"/>
      <point x="695" y="974" type="line"/>
      <point x="667" y="917"/>
      <point x="641" y="804"/>
      <point x="641" y="756" type="qcurve"/>
      <point x="641" y="733"/>
      <point x="652" y="695"/>
      <point x="671" y="668"/>
      <point x="696" y="653"/>
      <point x="710" y="653" type="qcurve"/>
      <point x="725" y="653"/>
      <point x="751" y="668"/>
      <point x="770" y="693"/>
      <point x="781" y="727"/>
      <point x="781" y="746" type="qcurve"/>
      <point x="849" y="786" type="line"/>
      <point x="851" y="776"/>
      <point x="854" y="748"/>
      <point x="854" y="734" type="qcurve"/>
      <point x="854" y="694"/>
      <point x="833" y="627"/>
      <point x="795" y="578"/>
      <point x="745" y="551"/>
      <point x="717" y="551" type="qcurve"/>
      <point x="689" y="551"/>
      <point x="638" y="579"/>
      <point x="601" y="629"/>
      <point x="579" y="696"/>
      <point x="579" y="734" type="qcurve"/>
      <point x="579" y="748"/>
      <point x="581" y="769"/>
      <point x="584" y="782" type="qcurve"/>
      <point x="581" y="791" type="line"/>
      <point x="530" y="744" type="line"/>
      <point x="521" y="676"/>
      <point x="446" y="584"/>
      <point x="395" y="558" type="qcurve"/>
      <point x="395" y="548" type="line"/>
      <point x="454" y="522"/>
      <point x="527" y="453"/>
      <point x="566" y="375"/>
      <point x="579" y="294"/>
      <point x="579" y="256" type="qcurve"/>
      <point x="579" y="192"/>
      <point x="536" y="87"/>
      <point x="465" y="12"/>
      <point x="373" y="-30"/>
      <point x="323" y="-30" type="qcurve"/>
      <point x="176" y="-30"/>
      <point x="69" y="125" type="qcurve"/>
      <point x="146" y="227" type="line"/>
      <point x="161" y="193"/>
      <point x="200" y="136"/>
      <point x="246" y="95"/>
      <point x="297" y="72"/>
      <point x="323" y="72" type="qcurve"/>
      <point x="350" y="72"/>
      <point x="401" y="97"/>
      <point x="440" y="145"/>
      <point x="465" y="214"/>
      <point x="465" y="258" type="qcurve"/>
      <point x="465" y="303"/>
      <point x="447" y="386"/>
      <point x="413" y="449"/>
      <point x="360" y="487"/>
      <point x="326" y="487" type="qcurve"/>
      <point x="251" y="487" type="line"/>
      <point x="265" y="589" type="line"/>
    </contour>
  </outline>
</glyph>
<glyph name="latn:ramshorn" format="2">
  <advance width="768"/>
  <unicode hex="0264"/>
  <outline>
    <contour>
      <point x="409" y="690" type="qcurve" name="hr00"/>
      <point x="441" y="791"/>
      <point x="510" y="915"/>
      <point x="587" y="982"/>
      <point x="673" y="1004"/>
      <point x="722" y="1004" type="qcurve"/>
      <point x="708" y="902" type="line"/>
      <point x="676" y="902"/>
      <point x="619" y="884"/>
      <point x="567" y="831"/>
      <point x="518" y="736"/>
      <point x="494" y="658" type="qcurve"/>
      <point x="455" y="530" type="line"/>
      <point x="484" y="433"/>
      <point x="519" y="307"/>
      <point x="537" y="226"/>
      <point x="543" y="178"/>
      <point x="543" y="159" type="qcurve"/>
      <point x="543" y="118"/>
      <point x="523" y="49"/>
      <point x="485" y="-1"/>
      <point x="432" y="-30"/>
      <point x="398" y="-30" type="qcurve"/>
      <point x="365" y="-30"/>
      <point x="317" y="4"/>
      <point x="287" y="60"/>
      <point x="274" y="131"/>
      <point x="274" y="168" type="qcurve"/>
      <point x="274" y="188"/>
      <point x="279" y="234"/>
      <point x="293" y="300"/>
      <point x="320" y="393"/>
      <point x="342" y="460" type="qcurve"/>
      <point x="280" y="659" type="line"/>
      <point x="256" y="736"/>
      <point x="209" y="831"/>
      <point x="155" y="884"/>
      <point x="89" y="902"/>
      <point x="47" y="902" type="qcurve"/>
      <point x="60" y="1004" type="line"/>
      <point x="119" y="1004"/>
      <point x="214" y="991"/>
      <point x="297" y="930"/>
      <point x="372" y="803"/>
    </contour>
    <contour>
      <point x="389" y="325" type="qcurve"/>
      <point x="380" y="299"/>
      <point x="366" y="257"/>
      <point x="356" y="215"/>
      <point x="350" y="171"/>
      <point x="350" y="143" type="qcurve"/>
      <point x="350" y="117"/>
      <point x="369" y="72"/>
      <point x="389" y="72" type="qcurve"/>
      <point x="410" y="72"/>
      <point x="428" y="117"/>
      <point x="428" y="143" type="qcurve"/>
      <point x="428" y="175"/>
      <point x="409" y="265"/>
    </contour>
  </outline>
</glyph>
<glyph name="latn:hturned" format="2">
  <advance width="840"/>
  <unicode hex="0265"/>
  <outline>
    <contour>
      <point x="606" y="974" type="line" name="hr00"/>
      <point x="705" y="1004" type="line"/>
      <point x="728" y="1004" type="line"/>
      <point x="728" y="-460" type="line"/>
      <point x="629" y="-490" type="line"/>
      <point x="606" y="-490" type="line"/>
      <point x="606" y="137" type="line"/>
      <point x="599" y="137" type="line"/>
      <point x="551" y="58"/>
      <point x="432" y="-30"/>
      <point x="353" y="-30" type="qcurve"/>
      <point x="301" y="-30"/>
      <point x="213" y="11"/>
      <point x="149" y="90"/>
      <point x="114" y="204"/>
      <point x="114" y="277" type="qcurve"/>
      <point x="114" y="778" type="line"/>
      <point x="114" y="844"/>
      <point x="88" y="902"/>
      <point x="56" y="902" type="qcurve"/>
      <point x="69" y="1004" type="line"/>
      <point x="115" y="1004"/>
      <point x="178" y="965"/>
      <point x="218" y="897"/>
      <point x="236" y="802"/>
      <point x="236" y="747" type="qcurve"/>
      <point x="236" y="277" type="line"/>
      <point x="236" y="230"/>
      <point x="256" y="155"/>
      <point x="293" y="101"/>
      <point x="345" y="72"/>
      <point x="377" y="72" type="qcurve"/>
      <point x="415" y="72"/>
      <point x="482" y="105"/>
      <point x="539" y="162"/>
      <point x="587" y="236"/>
      <point x="606" y="278" type="qcurve"/>
    </contour>
  </outline>
</glyph>
<glyph name="latn:hhook" format="2">
  <advance width="840"/>
  <unicode hex="0266"/>
  <outline>
    <contour>
      <point x="380" y="1464" type="qcurve" name="hr00"/>
      <point x="367" y="1362" type="line"/>
      <point x="340" y="1362"/>
      <point x="292" y="1339"/>
      <point x="256" y="1284"/>
      <point x="236" y="1193"/>
      <point x="236" y="1126" type="qcurve"/>
      <point x="236" y="837" type="line"/>
      <point x="243" y="837" type="line"/>
      <point x="290" y="916"/>
      <point x="410" y="1004"/>
      <point x="489" y="1004" type="qcurve"/>
      <point x="541" y="1004"/>
      <point x="629" y="963"/>
      <point x="692" y="884"/>
      <point x="728" y="770"/>
      <point x="728" y="697" type="qcurve"/>
      <point x="728" y="196" type="line"/>
      <point x="728" y="130"/>
      <point x="754" y="72"/>
      <point x="786" y="72" type="qcurve"/>
      <point x="773" y="-30" type="line"/>
      <point x="727" y="-30"/>
      <point x="664" y="9"/>
      <point x="624" y="77"/>
      <point x="606" y="171"/>
      <point x="606" y="227" type="qcurve"/>
      <point x="606" y="697" type="line"/>
      <point x="606" y="743"/>
      <point x="586" y="819"/>
      <point x="549" y="873"/>
      <point x="497" y="902"/>
      <point x="464" y="902" type="qcurve"/>
      <point x="427" y="902"/>
      <point x="360" y="869"/>
      <point x="302" y="812"/>
      <point x="254" y="738"/>
      <point x="236" y="696" type="qcurve"/>
      <point x="236" y="0" type="line"/>
      <point x="114" y="0" type="line"/>
      <point x="114" y="1051" type="line"/>
      <point x="114" y="1169"/>
      <point x="150" y="1328"/>
      <point x="219" y="1424"/>
      <point x="318" y="1464"/>
    </contour>
  </outline>
</glyph>
<glyph name="latn:lmiddletilde" format="2">
  <advance width="552"/>
  <unicode hex="026B"/>
  <outline>
    <contour>
      <point x="212" y="1464" type="line" name="hr00"/>
      <point x="310" y="1494" type="line"/>
      <point x="333" y="1494" type="line" name="hr01"/>
      <point x="333" y="882" type="line"/>
      <point x="344" y="873"/>
      <point x="367" y="862" name="hr02"/>
      <point x="379" y="862" type="qcurve"/>
      <point x="411" y="862"/>
      <point x="444" y="941"/>
      <point x="444" y="1004" type="qcurve"/>
      <point x="506" y="1004" type="line"/>
      <point x="506" y="887"/>
      <point x="443" y="750" name="hr03"/>
      <point x="379" y="750" type="qcurve"/>
      <point x="358" y="750"/>
      <point x="333" y="761" type="qcurve" name="hr04"/>
      <point x="333" y="219" type="line"/>
      <point x="333" y="186"/>
      <point x="338" y="132" name="hr05"/>
      <point x="350" y="93"/>
      <point x="373" y="72"/>
      <point x="392" y="72" type="qcurve"/>
      <point x="378" y="-30" type="line"/>
      <point x="292" y="-30"/>
      <point x="212" y="91"/>
      <point x="212" y="226" type="qcurve"/>
      <point x="212" y="873" type="line"/>
      <point x="200" y="881"/>
      <point x="178" y="892"/>
      <point x="166" y="892" type="qcurve"/>
      <point x="134" y="892"/>
      <point x="101" y="813"/>
      <point x="101" y="750" type="qcurve"/>
      <point x="39" y="750" type="line"/>
      <point x="39" y="867"/>
      <point x="102" y="1004"/>
      <point x="166" y="1004" type="qcurve"/>
      <point x="179" y="1004"/>
      <point x="201" y="997"/>
      <point x="212" y="992" type="qcurve"/>
    </contour>
  </outline>
</glyph>
<glyph name="latn:lbelt" format="2">
  <advance width="552"/>
  <unicode hex="026C"/>
  <outline>
    <contour>
      <point x="252" y="1464" type="line" name="hr00"/>
      <point x="350" y="1494" type="line"/>
      <point x="374" y="1494" type="line"/>
      <point x="374" y="730" type="line"/>
      <point x="519" y="730" type="line"/>
      <point x="506" y="624" type="line"/>
      <point x="374" y="634" type="line"/>
      <point x="374" y="219" type="line"/>
      <point x="374" y="186"/>
      <point x="378" y="132"/>
      <point x="390" y="93"/>
      <point x="413" y="72"/>
      <point x="432" y="72" type="qcurve"/>
      <point x="419" y="-30" type="line"/>
      <point x="332" y="-30"/>
      <point x="252" y="91"/>
      <point x="252" y="226" type="qcurve"/>
      <point x="252" y="640" type="line"/>
      <point x="179" y="648" type="line"/>
      <point x="152" y="648"/>
      <point x="104" y="676"/>
      <point x="68" y="724"/>
      <point x="47" y="788"/>
      <point x="47" y="824" type="qcurve"/>
      <point x="47" y="862"/>
      <point x="68" y="928"/>
      <point x="104" y="976"/>
      <point x="152" y="1004"/>
      <point x="179" y="1004" type="qcurve"/>
      <point x="220" y="1004"/>
      <point x="252" y="976" type="qcurve"/>
    </contour>
    <contour>
      <point x="108" y="826" type="qcurve"/>
      <point x="108" y="786"/>
      <point x="150" y="730"/>
      <point x="180" y="730" type="qcurve"/>
      <point x="252" y="730" type="line"/>
      <point x="252" y="826" type="line"/>
      <point x="252" y="866"/>
      <point x="210" y="922"/>
      <point x="180" y="922" type="qcurve"/>
      <point x="150" y="922"/>
      <point x="108" y="866"/>
    </contour>
  </outline>
</glyph>
<glyph name="latn:mlonglegturned" format="2">
  <advance width="1248"/>
  <unicode hex="0270"/>
  <outline>
    <contour>
      <point x="1020" y="974" type="line" name="hr00"/>
      <point x="1119" y="1004" type="line"/>
      <point x="1142" y="1004" type="line"/>
      <point x="1142" y="-460" type="line"/>
      <point x="1043" y="-490" type="line"/>
      <point x="1020" y="-490" type="line"/>
      <point x="1020" y="136" type="line"/>
      <point x="1012" y="136" type="line"/>
      <point x="987" y="92"/>
      <point x="937" y="29"/>
      <point x="881" y="-11"/>
      <point x="819" y="-30"/>
      <point x="783" y="-30" type="qcurve"/>
      <point x="743" y="-30"/>
      <point x="678" y="-3"/>
      <point x="626" y="44"/>
      <point x="589" y="108"/>
      <point x="577" y="146" type="qcurve"/>
      <point x="569" y="146" type="line"/>
      <point x="543" y="102"/>
      <point x="492" y="36"/>
      <point x="436" y="-8"/>
      <point x="372" y="-30"/>
      <point x="334" y="-30" type="qcurve"/>
      <point x="294" y="-30"/>
      <point x="213" y="5"/>
      <point x="148" y="76"/>
      <point x="107" y="184"/>
      <point x="107" y="258" type="qcurve"/>
      <point x="107" y="777" type="line"/>
      <point x="107" y="843"/>
      <point x="80" y="902"/>
      <point x="48" y="902" type="qcurve"/>
      <point x="62" y="1004" type="line"/>
      <point x="143" y="1004"/>
      <point x="228" y="876"/>
      <point x="228" y="747" type="qcurve"/>
      <point x="228" y="278" type="line"/>
      <point x="228" y="230"/>
      <point x="248" y="154"/>
      <point x="281" y="100"/>
      <point x="328" y="72"/>
      <point x="355" y="72" type="qcurve"/>
      <point x="388" y="72"/>
      <point x="444" y="102"/>
      <point x="494" y="157"/>
      <point x="540" y="232"/>
      <point x="563" y="277" type="qcurve"/>
      <point x="563" y="974" type="line"/>
      <point x="662" y="1004" type="line"/>
      <point x="685" y="1004" type="line"/>
      <point x="685" y="258" type="line"/>
      <point x="685" y="225"/>
      <point x="702" y="158"/>
      <point x="734" y="105"/>
      <point x="779" y="72"/>
      <point x="806" y="72" type="qcurve"/>
      <point x="842" y="72"/>
      <point x="900" y="103"/>
      <point x="950" y="157"/>
      <point x="997" y="233"/>
      <point x="1020" y="278" type="qcurve"/>
    </contour>
  </outline>
</glyph>
<glyph name="latn:nhookleft" format="2">
  <advance width="840"/>
  <unicode hex="0272"/>
  <outline>
    <contour>
      <point x="728" y="197" type="line" name="hr00"/>
      <point x="728" y="131"/>
      <point x="754" y="72"/>
      <point x="786" y="72" type="qcurve"/>
      <point x="773" y="-30" type="line" name="hr01"/>
      <point x="724" y="-30"/>
      <point x="660" y="11"/>
      <point x="622" y="82"/>
      <point x="606" y="175"/>
      <point x="606" y="227" type="qcurve"/>
      <point x="606" y="687" type="line"/>
      <point x="606" y="790"/>
      <point x="533" y="902" name="hr02"/>
      <point x="464" y="902" type="qcurve"/>
      <point x="394" y="902"/>
      <point x="284" y="797"/>
      <point x="236" y="697" type="qcurve"/>
      <point x="236" y="-77" type="line"/>
      <point x="236" y="-196"/>
      <point x="199" y="-354"/>
      <point x="131" y="-450"/>
      <point x="32" y="-490"/>
      <point x="-31" y="-490" type="qcurve"/>
      <point x="-17" y="-388" type="line"/>
      <point x="10" y="-388"/>
      <point x="58" y="-365"/>
      <point x="94" y="-310"/>
      <point x="114" y="-220"/>
      <point x="114" y="-152" type="qcurve"/>
      <point x="114" y="944" type="line"/>
      <point x="213" y="974" type="line"/>
      <point x="236" y="974" type="line"/>
      <point x="236" y="837" type="line"/>
      <point x="243" y="837" type="line"/>
      <point x="296" y="925"/>
      <point x="413" y="1004"/>
      <point x="482" y="1004" type="qcurve"/>
      <point x="536" y="1004"/>
      <point x="626" y="963"/>
      <point x="692" y="887"/>
      <point x="728" y="776"/>
      <point x="728" y="707" type="qcurve"/>
    </contour>
  </outline>
</glyph>
<glyph name="latn:obarred" format="2">
  <advance width="840"/>
  <unicode hex="0275"/>
  <outline>
    <contour>
      <point x="420" y="1004" type="qcurve" name="hr00"/>
      <point x="500" y="1004"/>
      <point x="635" y="926"/>
      <point x="732" y="788"/>
      <point x="786" y="598"/>
      <point x="786" y="487" type="qcurve"/>
      <point x="786" y="376"/>
      <point x="732" y="186"/>
      <point x="635" y="48"/>
      <point x="500" y="-30"/>
      <point x="420" y="-30" type="qcurve"/>
      <point x="340" y="-30"/>
      <point x="206" y="48"/>
      <point x="108" y="186"/>
      <point x="54" y="375"/>
      <point x="54" y="487" type="qcurve"/>
      <point x="54" y="598"/>
      <point x="108" y="788"/>
      <point x="206" y="926"/>
      <point x="340" y="1004"/>
    </contour>
    <contour>
      <point x="420" y="72" type="qcurve"/>
      <point x="469" y="72"/>
      <point x="551" y="128"/>
      <point x="613" y="226"/>
      <point x="651" y="359"/>
      <point x="656" y="436" type="qcurve"/>
      <point x="185" y="436" type="line"/>
      <point x="189" y="358"/>
      <point x="227" y="225"/>
      <point x="288" y="128"/>
      <point x="371" y="72"/>
    </contour>
    <contour>
      <point x="420" y="902" type="qcurve"/>
      <point x="371" y="902"/>
      <point x="288" y="846"/>
      <point x="227" y="748"/>
      <point x="189" y="615"/>
      <point x="185" y="538" type="qcurve"/>
      <point x="656" y="538" type="line"/>
      <point x="651" y="615"/>
      <point x="613" y="748"/>
      <point x="551" y="846"/>
      <point x="469" y="902"/>
    </contour>
  </outline>
</glyph>
<glyph name="latn:esh" format="2">
  <advance width="552"/>
  <unicode hex="0283"/>
  <outline>
    <contour>
      <point x="499" y="1464" type="qcurve" name="hr00"/>
      <point x="485" y="1362" type="line"/>
      <point x="440" y="1362"/>
      <point x="383" y="1332"/>
      <point x="350" y="1274"/>
      <point x="337" y="1191"/>
      <point x="337" y="1137" type="qcurve"/>
      <point x="337" y="-77" type="line"/>
      <point x="337" y="-196"/>
      <point x="300" y="-354"/>
      <point x="232" y="-450"/>
      <point x="133" y="-490"/>
      <point x="71" y="-490" type="qcurve"/>
      <point x="84" y="-388" type="line"/>
      <point x="111" y="-388"/>
      <point x="159" y="-365"/>
      <point x="195" y="-310"/>
      <point x="215" y="-220"/>
      <point x="215" y="-152" type="qcurve"/>
      <point x="215" y="1108" type="line"/>
      <point x="215" y="1210"/>
      <point x="242" y="1346"/>
      <point x="307" y="1429"/>
      <point x="416" y="1464"/>
    </contour>
  </outline>
</glyph>
<glyph name="latn:tretroflex" format="2">
  <advance width="552"/>
  <unicode hex="0288"/>
  <outline>
    <contour>
      <point x="310" y="1322" type="line" name="hr00"/>
      <point x="310" y="1004" type="line"/>
      <point x="488" y="1004" type="line"/>
      <point x="470" y="872" type="line"/>
      <point x="310" y="886" type="line"/>
      <point x="310" y="-163" type="line"/>
      <point x="310" y="-220"/>
      <point x="323" y="-305"/>
      <point x="359" y="-361"/>
      <point x="422" y="-388"/>
      <point x="472" y="-388" type="qcurve"/>
      <point x="458" y="-490" type="line"/>
      <point x="378" y="-490"/>
      <point x="274" y="-452"/>
      <point x="213" y="-368"/>
      <point x="188" y="-232"/>
      <point x="188" y="-134" type="qcurve"/>
      <point x="188" y="893" type="line"/>
      <point x="62" y="902" type="line"/>
      <point x="74" y="1004" type="line"/>
      <point x="188" y="1004" type="line"/>
      <point x="188" y="1292" type="line"/>
      <point x="287" y="1322" type="line"/>
    </contour>
  </outline>
</glyph>
<glyph name="latn:ubar" format="2">
  <advance width="840"/>
  <unicode hex="0289"/>
  <outline>
    <contour>
      <point x="59" y="589" type="line" name="hr00"/>
      <point x="114" y="589" type="line"/>
      <point x="114" y="974" type="line"/>
      <point x="213" y="1004" type="line"/>
      <point x="236" y="1004" type="line"/>
      <point x="236" y="589" type="line"/>
      <point x="606" y="589" type="line"/>
      <point x="606" y="974" type="line"/>
      <point x="705" y="1004" type="line"/>
      <point x="728" y="1004" type="line"/>
      <point x="728" y="589" type="line"/>
      <point x="788" y="589" type="line"/>
      <point x="774" y="487" type="line"/>
      <point x="728" y="487" type="line"/>
      <point x="728" y="189" type="line"/>
      <point x="728" y="123"/>
      <point x="756" y="72"/>
      <point x="786" y="72" type="qcurve"/>
      <point x="773" y="-30" type="line"/>
      <point x="731" y="-30"/>
      <point x="676" y="2"/>
      <point x="640" y="52"/>
      <point x="620" y="113"/>
      <point x="614" y="142" type="qcurve"/>
      <point x="606" y="142" type="line"/>
      <point x="593" y="116"/>
      <point x="549" y="56"/>
      <point x="486" y="4"/>
      <point x="407" y="-30"/>
      <point x="359" y="-30" type="qcurve"/>
      <point x="313" y="-30"/>
      <point x="225" y="4"/>
      <point x="156" y="79"/>
      <point x="114" y="197"/>
      <point x="114" y="280" type="qcurve"/>
      <point x="114" y="487" type="line"/>
      <point x="47" y="487" type="line"/>
    </contour>
    <contour>
      <point x="384" y="72" type="qcurve"/>
      <point x="425" y="72"/>
      <point x="493" y="107"/>
      <point x="548" y="163"/>
      <point x="590" y="230"/>
      <point x="606" y="263" type="qcurve"/>
      <point x="606" y="487" type="line"/>
      <point x="236" y="487" type="line"/>
      <point x="236" y="305" type="line"/>
      <point x="236" y="240"/>
      <point x="261" y="151"/>
      <point x="303" y="96"/>
      <point x="356" y="72"/>
    </contour>
  </outline>
</glyph>
<glyph name="latn:vhook" format="2">
  <advance width="840"/>
  <unicode hex="028B"/>
  <outline>
    <contour>
      <point x="228" y="1004" type="line" name="hr00"/>
      <point x="228" y="297" type="line"/>
      <point x="228" y="188"/>
      <point x="289" y="72"/>
      <point x="350" y="72" type="qcurve"/>
      <point x="407" y="72"/>
      <point x="517" y="146"/>
      <point x="604" y="291"/>
      <point x="657" y="506"/>
      <point x="657" y="648" type="qcurve"/>
      <point x="657" y="716"/>
      <point x="644" y="813"/>
      <point x="608" y="874"/>
      <point x="545" y="902"/>
      <point x="495" y="902" type="qcurve"/>
      <point x="509" y="1004" type="line"/>
      <point x="588" y="1004"/>
      <point x="695" y="966"/>
      <point x="759" y="882"/>
      <point x="786" y="746"/>
      <point x="786" y="648" type="qcurve"/>
      <point x="786" y="542"/>
      <point x="749" y="359"/>
      <point x="686" y="208"/>
      <point x="599" y="92"/>
      <point x="502" y="12"/>
      <point x="398" y="-30"/>
      <point x="347" y="-30" type="qcurve"/>
      <point x="221" y="-30"/>
      <point x="107" y="153"/>
      <point x="107" y="326" type="qcurve"/>
      <point x="107" y="974" type="line"/>
      <point x="205" y="1004" type="line"/>
    </contour>
  </outline>
</glyph>
<glyph name="latn:yturned" format="2">
  <advance width="720"/>
  <unicode hex="028E"/>
  <outline>
    <contour>
      <point x="558" y="-30" type="line" name="hr00"/>
      <point x="323" y="770" type="line"/>
      <point x="315" y="770" type="line"/>
      <point x="121" y="-30" type="line"/>
      <point x="39" y="0" type="line"/>
      <point x="284" y="1004" type="line"/>
      <point x="320" y="1155"/>
      <point x="395" y="1336"/>
      <point x="478" y="1433"/>
      <point x="572" y="1464"/>
      <point x="629" y="1464" type="qcurve"/>
      <point x="615" y="1362" type="line"/>
      <point x="578" y="1362"/>
      <point x="517" y="1336"/>
      <point x="461" y="1260"/>
      <point x="408" y="1119"/>
      <point x="379" y="1004" type="qcurve"/>
      <point x="689" y="0" type="line"/>
    </contour>
  </outline>
</glyph>
<glyph name="latn:Ysmall" format="2">
  <advance width="720"/>
  <unicode hex="028F"/>
  <outline>
    <contour>
      <point x="387" y="487" type="line" name="hr00"/>
      <point x="605" y="1004" type="line"/>
      <point x="687" y="974" type="line"/>
      <point x="421" y="359" type="line"/>
      <point x="421" y="0" type="line"/>
      <point x="299" y="0" type="line"/>
      <point x="299" y="357" type="line"/>
      <point x="33" y="974" type="line"/>
      <point x="164" y="1004" type="line"/>
      <point x="382" y="487" type="line"/>
    </contour>
  </outline>
</glyph>
<glyph name="latn:pharyngealvoicedfricative" format="2">
  <advance width="768"/>
  <unicode hex="0295"/>
  <outline>
    <contour>
      <point x="464" y="0" type="line" name="hr00"/>
      <point x="343" y="0" type="line"/>
      <point x="343" y="565" type="line"/>
      <point x="298" y="565"/>
      <point x="199" y="633"/>
      <point x="116" y="754"/>
      <point x="62" y="921"/>
      <point x="62" y="1021" type="qcurve"/>
      <point x="62" y="1111"/>
      <point x="111" y="1272"/>
      <point x="203" y="1393"/>
      <point x="336" y="1464"/>
      <point x="419" y="1464" type="qcurve"/>
      <point x="474" y="1464"/>
      <point x="560" y="1439"/>
      <point x="629" y="1396"/>
      <point x="684" y="1340"/>
      <point x="707" y="1309" type="qcurve"/>
      <point x="630" y="1207" type="line"/>
      <point x="614" y="1238"/>
      <point x="575" y="1295"/>
      <point x="524" y="1337"/>
      <point x="461" y="1362"/>
      <point x="419" y="1362" type="qcurve"/>
      <point x="368" y="1362"/>
      <point x="283" y="1305"/>
      <point x="223" y="1212"/>
      <point x="191" y="1094"/>
      <point x="191" y="1033" type="qcurve"/>
      <point x="191" y="964"/>
      <point x="218" y="838"/>
      <point x="277" y="743"/>
      <point x="366" y="687"/>
      <point x="427" y="687" type="qcurve"/>
      <point x="464" y="687" type="line"/>
    </contour>
  </outline>
</glyph>
<glyph name="latn:clickbilabial" format="2">
  <advance width="1080"/>
  <unicode hex="0298"/>
  <outline>
    <contour>
      <point x="62" y="717" type="qcurve" name="hr00"/>
      <point x="62" y="889"/>
      <point x="137" y="1166"/>
      <point x="268" y="1360"/>
      <point x="442" y="1464"/>
      <point x="540" y="1464" type="qcurve"/>
      <point x="638" y="1464"/>
      <point x="812" y="1360"/>
      <point x="943" y="1166"/>
      <point x="1019" y="889"/>
      <point x="1019" y="717" type="qcurve"/>
      <point x="1019" y="544"/>
      <point x="943" y="268"/>
      <point x="812" y="74"/>
      <point x="638" y="-30"/>
      <point x="540" y="-30" type="qcurve"/>
      <point x="442" y="-30"/>
      <point x="268" y="74"/>
      <point x="137" y="268"/>
      <point x="62" y="544"/>
    </contour>
    <contour>
      <point x="191" y="717" type="qcurve"/>
      <point x="191" y="558"/>
      <point x="251" y="316"/>
      <point x="348" y="154"/>
      <point x="474" y="72"/>
      <point x="540" y="72" type="qcurve"/>
      <point x="606" y="72"/>
      <point x="732" y="154"/>
      <point x="830" y="316"/>
      <point x="890" y="558"/>
      <point x="890" y="717" type="qcurve"/>
      <point x="890" y="876"/>
      <point x="830" y="1118"/>
      <point x="732" y="1280"/>
      <point x="606" y="1362"/>
      <point x="540" y="1362" type="qcurve"/>
      <point x="474" y="1362"/>
      <point x="348" y="1280"/>
      <point x="251" y="1118"/>
      <point x="191" y="876"/>
    </contour>
    <contour>
      <point x="444" y="717" type="qcurve"/>
      <point x="444" y="757"/>
      <point x="500" y="813"/>
      <point x="540" y="813" type="qcurve"/>
      <point x="580" y="813"/>
      <point x="636" y="757"/>
      <point x="636" y="717" type="qcurve"/>
      <point x="636" y="677"/>
      <point x="580" y="621"/>
      <point x="540" y="621" type="qcurve"/>
      <point x="500" y="621"/>
      <point x="444" y="677"/>
    </contour>
  </outline>
</glyph>
